<svg xmlns="http://www.w3.org/2000/svg" viewBox="0 0 265 65"><defs><style>.cls-1{fill:#5f7175;}.cls-2,.cls-3,.cls-4,.cls-7{fill:#fff;}.cls-2,.cls-6{stroke:#fff;}.cls-2,.cls-4{stroke-linejoin:round;}.cls-2,.cls-3,.cls-4,.cls-5,.cls-6{stroke-width:2px;}.cls-3,.cls-4{stroke:#5f7175;}.cls-3,.cls-5,.cls-6{stroke-miterlimit:10;}.cls-5{fill:#99adb3;stroke:#99adb3;}.cls-6{fill:none;}</style></defs><title>Asset 78</title><g id="Layer_2" data-name="Layer 2"><g id="_2-cidade" data-name="2-cidade"><polygon class="cls-1" points="14.34 0 0 13 28 13 14.34 0"/><polygon class="cls-2" points="135.98 1.96 109.73 14 161 14 135.98 1.96"/><rect class="cls-3" x="161" y="2" width="61" height="14.02"/><polygon class="cls-4" points="222 14 243 1.99 264 14 222 14"/><rect class="cls-3" x="28.52" y="1" width="81.21" height="13.52"/><rect class="cls-5" x="1" y="14.01" width="263" height="49.99"/><line class="cls-6" x1="109.73" y1="13.52" x2="109.73" y2="62.87"/><line class="cls-6" x1="28.52" y1="13.52" x2="28.52" y2="62.87"/><rect class="cls-6" x="10.52" y="29.93" width="4.61" height="34.07"/><rect class="cls-6" x="75.02" y="29.93" width="22.48" height="34.07"/><rect class="cls-6" x="123.13" y="29.93" width="4.61" height="34.07"/><rect class="cls-6" x="189.13" y="29.93" width="4.61" height="34.07"/><rect class="cls-6" x="249.13" y="29.93" width="4.61" height="34.07"/><rect class="cls-7" x="18.31" y="22.88" width="5.49" height="5.38"/><rect class="cls-7" x="32.04" y="22.88" width="34.73" height="5.38"/><line class="cls-6" x1="161" y1="13.01" x2="161" y2="64"/><line class="cls-6" x1="222" y1="13.01" x2="222" y2="64"/><rect class="cls-7" x="168" y="22.02" width="15" height="7.01"/><rect class="cls-7" x="229" y="22.02" width="7" height="7.01"/></g></g></svg>