<svg xmlns="http://www.w3.org/2000/svg" viewBox="0 0 90 107"><defs><style>.cls-1{fill:#fff;}.cls-1,.cls-2,.cls-3,.cls-4{stroke:#5f7175;stroke-miterlimit:10;stroke-width:2px;}.cls-2,.cls-5{fill:#5f7175;}.cls-3{fill:#c2d1d4;}.cls-4{fill:#99adb3;}</style></defs><title>Asset 75</title><g id="Layer_2" data-name="Layer 2"><g id="_2-cidade" data-name="2-cidade"><path class="cls-1" d="M38.67,4.75C38.67,1.3,35.83,1,32.33,1S26,1.3,26,4.75V106H38.67Z"/><path class="cls-1" d="M64,4.75C64,1.3,61.16,1,57.67,1s-6.33.3-6.33,3.75V106H64Z"/><rect class="cls-2" x="63.86" y="34" width="25.14" height="12.5" transform="translate(152.86 80.5) rotate(180)"/><rect class="cls-3" x="12.94" y="34" width="50.91" height="12.5"/><rect class="cls-4" x="76.43" y="45.88" width="12.57" height="60.13" transform="translate(165.43 151.88) rotate(180)"/><rect class="cls-1" x="1" y="45.88" width="75.43" height="60.13"/><rect class="cls-5" x="6.03" y="51.5" width="7.54" height="7.5"/><rect class="cls-5" x="18.6" y="51.5" width="7.54" height="7.5"/><rect class="cls-5" x="31.17" y="51.5" width="7.54" height="7.5"/><rect class="cls-5" x="43.74" y="51.5" width="7.54" height="7.5"/><rect class="cls-5" x="56.31" y="51.5" width="7.54" height="7.5"/><rect class="cls-5" x="6.03" y="63.38" width="7.54" height="7.5"/><rect class="cls-5" x="18.6" y="63.38" width="7.54" height="7.5"/><rect class="cls-5" x="31.17" y="63.38" width="7.54" height="7.5"/><rect class="cls-5" x="43.74" y="63.38" width="7.54" height="7.5"/><rect class="cls-5" x="56.31" y="63.38" width="7.54" height="7.5"/></g></g></svg>