<svg xmlns="http://www.w3.org/2000/svg" viewBox="0 0 197 149"><defs><style>.cls-1{fill:#c2d1d4;}.cls-1,.cls-2,.cls-4,.cls-6{stroke:#5f7175;}.cls-1,.cls-2,.cls-3,.cls-4,.cls-6{stroke-miterlimit:10;stroke-width:2px;}.cls-2{fill:#5f7175;}.cls-3{fill:none;stroke:#fff;}.cls-4{fill:#fff;}.cls-5,.cls-6{fill:#99adb3;}</style></defs><title>Asset 54</title><g id="Layer_2" data-name="Layer 2"><g id="_2-cidade" data-name="2-cidade"><rect class="cls-1" x="31.33" y="80.72" width="152" height="67.28"/><rect class="cls-2" x="183.33" y="80.72" width="12.67" height="67.28" transform="translate(379.33 228.72) rotate(180)"/><line class="cls-3" x1="43.37" y1="93.15" x2="170.67" y2="93.15"/><line class="cls-3" x1="43.37" y1="99.98" x2="170.67" y2="99.98"/><path class="cls-4" d="M62.91,68.29H46.07V2.86A23.12,23.12,0,0,1,54.35,1a24.91,24.91,0,0,1,8.56,1.86Z"/><path class="cls-4" d="M96.61,68.29H79.76V22.86A23.12,23.12,0,0,1,88,21a24.91,24.91,0,0,1,8.56,1.86Z"/><path class="cls-4" d="M130.3,68.29H113.46V2.86A23.12,23.12,0,0,1,121.74,1a24.91,24.91,0,0,1,8.56,1.86Z"/><path class="cls-4" d="M164,68.29H147.15V22.86A23.12,23.12,0,0,1,155.44,21,24.91,24.91,0,0,1,164,22.86Z"/><rect class="cls-1" x="41" y="55.29" width="128" height="25.43"/><rect class="cls-2" x="169" y="55.29" width="12.67" height="25.43"/><rect class="cls-5" x="50" y="65" width="104" height="8"/><rect class="cls-6" x="1" y="114" width="195" height="34"/></g></g></svg>