<svg xmlns="http://www.w3.org/2000/svg" viewBox="0 0 78.68 187.08"><defs><style>.cls-1{fill:none;}.cls-1,.cls-2,.cls-3{stroke:#fff;stroke-width:2px;}.cls-1,.cls-2{stroke-linejoin:round;}.cls-2,.cls-3{fill:#fff;}.cls-3{stroke-miterlimit:10;}</style></defs><title>Asset 45</title><g id="Layer_2" data-name="Layer 2"><g id="_3-camada" data-name="3-camada"><rect class="cls-1" x="1" y="23.65" width="61.51" height="162.43"/><line class="cls-1" x1="7.93" y1="33.36" x2="53.85" y2="33.36"/><line class="cls-1" x1="7.93" y1="40.48" x2="53.85" y2="40.48"/><line class="cls-1" x1="7.93" y1="47.6" x2="53.85" y2="47.6"/><line class="cls-1" x1="7.93" y1="54.71" x2="53.85" y2="54.71"/><line class="cls-1" x1="7.93" y1="61.83" x2="53.85" y2="61.83"/><line class="cls-1" x1="7.93" y1="68.95" x2="53.85" y2="68.95"/><line class="cls-1" x1="7.93" y1="76.07" x2="53.85" y2="76.07"/><line class="cls-1" x1="7.93" y1="83.19" x2="53.85" y2="83.19"/><line class="cls-1" x1="7.93" y1="90.31" x2="53.85" y2="90.31"/><rect class="cls-2" x="62.51" y="23.65" width="15.16" height="162.43" transform="translate(140.19 209.73) rotate(180)"/><path class="cls-3" d="M17,4.88C17,1.31,15.09,1,12.7,1s-4.33.31-4.33,3.88V23H17Z"/><path class="cls-3" d="M35.66,4.88C35.66,1.31,33.72,1,31.32,1S27,1.31,27,4.88V23h8.66Z"/><path class="cls-3" d="M54.28,4.88C54.28,1.31,52.34,1,50,1s-4.33.31-4.33,3.88V23h8.66Z"/></g></g></svg>