<svg xmlns="http://www.w3.org/2000/svg" viewBox="0 0 89.01 41.06"><defs><style>.cls-1{fill:#99adb3;}.cls-1,.cls-4{stroke:#5f7175;stroke-miterlimit:10;stroke-width:2px;}.cls-2{fill:#fff;}.cls-3{fill:#1d1d1b;}.cls-4{fill:#5f7175;}</style></defs><title>Asset 65</title><g id="Layer_2" data-name="Layer 2"><g id="_0-veículos" data-name="0-veículos"><polygon class="cls-1" points="88.01 30.37 88 34.34 53.6 34.29 43.59 18.85 41.03 1.11 58.37 1.06 63.7 19.42 63.78 19.42 88.01 30.37"/><polygon class="cls-2" points="55.67 5.07 45.78 5.05 49.01 16 49.06 16 58.91 16.01 55.67 5.07"/><ellipse class="cls-3" cx="30.31" cy="34.25" rx="6.77" ry="6.75" transform="translate(-3.98 64.52) rotate(-89.93)"/><ellipse class="cls-3" cx="61.63" cy="34.29" rx="6.77" ry="6.75" transform="translate(27.25 95.87) rotate(-89.93)"/><polygon class="cls-4" points="46.53 19.4 46.44 19.4 41.11 1.04 13.41 1 8.03 19.35 4.98 19.34 1.01 23.31 1 34.22 70.75 34.31 70.75 30.34 46.53 19.4"/><polygon class="cls-2" points="42.03 18.75 38.07 5.11 19.5 5.09 15.5 18.72 42.03 18.75"/><ellipse class="cls-3" cx="14.3" cy="34.23" rx="6.77" ry="6.75" transform="translate(-19.95 48.49) rotate(-89.93)"/><ellipse class="cls-2" cx="14.3" cy="34.23" rx="3.05" ry="3.04" transform="translate(-19.95 48.49) rotate(-89.93)"/><ellipse class="cls-3" cx="45.62" cy="34.27" rx="6.77" ry="6.75" transform="translate(11.29 79.84) rotate(-89.93)"/><ellipse class="cls-2" cx="45.62" cy="34.27" rx="3.05" ry="3.04" transform="translate(11.29 79.84) rotate(-89.93)"/><rect class="cls-4" x="70.7" y="30.74" width="17" height="3"/></g></g></svg>