<svg xmlns="http://www.w3.org/2000/svg" viewBox="0 0 166.73 41"><defs><style>.cls-1{fill:#1d1d1b;}.cls-2{fill:#e4e9ec;}.cls-2,.cls-3{stroke:#5f7175;stroke-miterlimit:10;stroke-width:2px;}.cls-3,.cls-4{fill:#5f7175;}.cls-5{fill:#fff;}</style></defs><title>Asset 64</title><g id="Layer_2" data-name="Layer 2"><g id="_0-veículos" data-name="0-veículos"><ellipse class="cls-1" cx="54.01" cy="31.78" rx="8.9" ry="9.22"/><ellipse class="cls-1" cx="127.57" cy="31.78" rx="8.9" ry="9.22"/><polygon class="cls-2" points="130.35 31.78 157.5 31.78 165 18.77 130.35 18.77 130.35 31.78"/><polygon class="cls-2" points="118.83 19.2 108.67 1.71 96.73 1.71 106.88 19.2 118.83 19.2"/><rect class="cls-1" x="8.22" y="25.14" width="10.63" height="4.37"/><polygon class="cls-3" points="107.85 18.5 97.69 1 67.38 1 57.22 18.5 13.31 18.5 13.31 31.78 130.82 31.78 138.32 18.5 107.85 18.5"/><ellipse class="cls-4" cx="143.07" cy="24.58" rx="1.95" ry="2.02"/><ellipse class="cls-4" cx="155.52" cy="24.58" rx="1.95" ry="2.02"/><polygon class="cls-5" points="96.07 14.43 90.64 5.07 74.43 5.07 69 14.43 96.07 14.43"/><ellipse class="cls-1" cx="32.91" cy="31.78" rx="8.9" ry="9.22"/><ellipse class="cls-5" cx="32.91" cy="31.78" rx="4.01" ry="4.16"/><ellipse class="cls-1" cx="106.48" cy="31.78" rx="8.9" ry="9.22"/><ellipse class="cls-5" cx="106.77" cy="31.78" rx="4.01" ry="4.16"/><path class="cls-4" d="M1,24.55a2.82,2.82,0,0,1,4.07.32,3.07,3.07,0,0,1-.31,4.22A2.82,2.82,0,0,1,.7,28.78,3.07,3.07,0,0,1,1,24.55Z"/></g></g></svg>