<svg xmlns="http://www.w3.org/2000/svg" xmlns:xlink="http://www.w3.org/1999/xlink" viewBox="0 0 1292 230.87"><defs><style>.cls-1{fill:none;}.cls-2{clip-path:url(#clip-path);}.cls-3{fill:url(#linear-gradient);}.cls-4{clip-path:url(#clip-path-2);}.cls-5{fill:url(#linear-gradient-2);}.cls-6{fill:url(#linear-gradient-3);}</style><clipPath id="clip-path" transform="translate(0 -83.74)"><path class="cls-1" d="M20.31,313S277.8,209.42,347,225.19c58.76,13.4,128,35,205.65,23,37-5.72,77-15.58,122-30.23,31.12-10.14,64-22,98.29-33.67,67.26-22.95,149.25-44.66,220-52.72,96.92-11,137.48,55.21,169.59,97.25C1202.38,281.09,1292,313,1292,313V0H21.13Z"/></clipPath><linearGradient id="linear-gradient" x1="703.29" y1="245.37" x2="672.1" y2="94.81" gradientUnits="userSpaceOnUse"><stop offset="0.07" stop-color="#5f7175" stop-opacity="0.8"/><stop offset="0.09" stop-color="#5c6d71" stop-opacity="0.76"/><stop offset="0.25" stop-color="#455052" stop-opacity="0.49"/><stop offset="0.42" stop-color="#333a3a" stop-opacity="0.27"/><stop offset="0.6" stop-color="#272a28" stop-opacity="0.12"/><stop offset="0.78" stop-color="#1f201e" stop-opacity="0.03"/><stop offset="1" stop-color="#1d1d1b" stop-opacity="0"/></linearGradient><clipPath id="clip-path-2" transform="translate(0 -83.74)"><path class="cls-1" d="M20.31,313S277.8,209.42,347,225.19v-102H0V312.39Z"/></clipPath><linearGradient id="linear-gradient-2" x1="159.69" y1="314.61" x2="159.69" y2="142.6" gradientUnits="userSpaceOnUse"><stop offset="0.07" stop-color="#5f7175" stop-opacity="0.9"/><stop offset="0.29" stop-color="#4e5b5e" stop-opacity="0.67"/><stop offset="0.77" stop-color="#2b2f2e" stop-opacity="0.19"/><stop offset="1" stop-color="#1d1d1b" stop-opacity="0"/></linearGradient><linearGradient id="linear-gradient-3" x1="656.15" y1="313" x2="656.15" y2="65.09" gradientUnits="userSpaceOnUse"><stop offset="0" stop-color="#5f7175" stop-opacity="0.8"/><stop offset="0.11" stop-color="#526164" stop-opacity="0.65"/><stop offset="0.36" stop-color="#3b4344" stop-opacity="0.37"/><stop offset="0.6" stop-color="#2b2e2d" stop-opacity="0.16"/><stop offset="0.81" stop-color="#202120" stop-opacity="0.04"/><stop offset="1" stop-color="#1d1d1b" stop-opacity="0"/></linearGradient></defs><title>Asset 73</title><g id="Layer_2" data-name="Layer 2"><g id="BG"><g class="cls-2"><path class="cls-3" d="M931.2,141.49c-30.74-24.46-59.9-51.81-98.9-56.84-25.47-3.28-51.41,2.6-75.22,12.22S714.2,121,693.81,136.62c-66.71,51-74,98.11-238,118l55.42,20.46Z" transform="translate(0 -83.74)"/></g><g class="cls-4"><path class="cls-5" d="M319.39,224.2c-28.88.9-49.13-11.39-56.56-17.32-28.46-22.71-56.7-50.47-90-61.12-24.72-7.91-46-.35-61.19,15.67C78.72,196.22,30.65,270.83,0,314.61l22.24-1.66,198-34.52Z" transform="translate(0 -83.74)"/></g><path class="cls-6" d="M20.31,313S277.8,209.42,347,225.19c58.76,13.4,128,35,205.65,23,37-5.72,77-15.58,122-30.23,31.12-10.14,64-22,98.29-33.67,67.26-22.95,149.25-44.66,220-52.72,96.92-11,137.48,55.21,169.59,97.25C1202.38,281.09,1292,313,1292,313" transform="translate(0 -83.74)"/></g></g></svg>