<svg xmlns="http://www.w3.org/2000/svg" viewBox="0 0 1200 42"><defs><style>.cls-1{fill:#99adb3;}.cls-2{fill:#c2d1d4;}.cls-3{fill:none;stroke:#99adb3;stroke-miterlimit:10;}</style></defs><title>Asset 66</title><g id="Layer_2" data-name="Layer 2"><g id="_1-plano" data-name="1-plano"><rect class="cls-1" width="1200" height="42"/><path class="cls-2" d="M1200,0H0V6.06A1.37,1.37,0,0,1,1.25,4.6,1.37,1.37,0,0,1,2.5,6.06V10.5H5V6.06A1.37,1.37,0,0,1,6.22,4.6,1.37,1.37,0,0,1,7.47,6.06V10.5H9.93V6.06A1.37,1.37,0,0,1,11.18,4.6a1.37,1.37,0,0,1,1.25,1.46V10.5h2.46V6.06A1.37,1.37,0,0,1,16.14,4.6,1.37,1.37,0,0,1,17.4,6.06V10.5h2.46V6.06A1.37,1.37,0,0,1,21.11,4.6a1.37,1.37,0,0,1,1.25,1.46V10.5h2.46V6.06a1.27,1.27,0,1,1,2.5,0V10.5h2.46V6.06a1.27,1.27,0,1,1,2.5,0V10.5h2.46V6.06a1.27,1.27,0,1,1,2.5,0V10.5h2.46V6.06a1.27,1.27,0,1,1,2.5,0V10.5h2.46V6.06a1.27,1.27,0,1,1,2.5,0V10.5h2.46V6.06a1.27,1.27,0,1,1,2.5,0V10.5H54.6V6.06a1.27,1.27,0,1,1,2.5,0V10.5h2.46V6.06a1.27,1.27,0,1,1,2.5,0V10.5h2.46V6.06a1.27,1.27,0,1,1,2.5,0V10.5h2.46V6.06a1.27,1.27,0,1,1,2.5,0V10.5h2.46V6.06a1.27,1.27,0,1,1,2.5,0V10.5h2.46V6.06a1.27,1.27,0,1,1,2.5,0V10.5h2.46V6.06a1.27,1.27,0,1,1,2.5,0V10.5h2.46V6.06a1.27,1.27,0,1,1,2.5,0V10.5h2.46V6.06a1.27,1.27,0,1,1,2.5,0V10.5h2.46V6.06a1.27,1.27,0,1,1,2.5,0V10.5h2.46V6.06a1.27,1.27,0,1,1,2.5,0V10.5h2.46V6.06a1.27,1.27,0,1,1,2.5,0V10.5h2.46V6.06a1.27,1.27,0,1,1,2.5,0V10.5h2.46V6.06a1.27,1.27,0,1,1,2.5,0V10.5h2.46V6.06a1.27,1.27,0,1,1,2.5,0V10.5h2.46V6.06a1.27,1.27,0,1,1,2.5,0V10.5H134V6.06a1.27,1.27,0,1,1,2.5,0V10.5H139V6.06a1.37,1.37,0,0,1,1.25-1.46h0a1.37,1.37,0,0,1,1.25,1.46V10.5h2.46V6.06a1.27,1.27,0,1,1,2.5,0V10.5h2.46V6.06a1.27,1.27,0,1,1,2.5,0V10.5h2.46V6.06a1.27,1.27,0,1,1,2.5,0V10.5h2.46V6.06a1.27,1.27,0,1,1,2.5,0V10.5h2.46V6.06a1.27,1.27,0,1,1,2.5,0V10.5h2.46V6.06a1.27,1.27,0,1,1,2.5,0V10.5h2.46V6.06a1.27,1.27,0,1,1,2.5,0V10.5h2.46V6.06a1.27,1.27,0,1,1,2.5,0V10.5h2.46V6.06a1.27,1.27,0,1,1,2.5,0V10.5h2.46V6.06a1.27,1.27,0,1,1,2.5,0V10.5h2.46V6.06a1.37,1.37,0,0,1,1.25-1.46h0a1.37,1.37,0,0,1,1.25,1.46V10.5h2.46V6.06a1.27,1.27,0,1,1,2.5,0V10.5h2.46V6.06a1.27,1.27,0,1,1,2.5,0V10.5h2.46V6.06a1.27,1.27,0,1,1,2.5,0V10.5h2.46V6.06a1.27,1.27,0,1,1,2.5,0V10.5h2.46V6.06a1.27,1.27,0,1,1,2.5,0V10.5h2.46V6.06a1.27,1.27,0,1,1,2.5,0V10.5h2.46V6.06a1.27,1.27,0,1,1,2.5,0V10.5h2.46V6.06a1.27,1.27,0,1,1,2.5,0V10.5h2.46V6.06a1.27,1.27,0,1,1,2.5,0V10.5h2.46V6.06a1.27,1.27,0,1,1,2.5,0V10.5h2.46V6.06a1.27,1.27,0,1,1,2.5,0V10.5h2.46V6.06a1.27,1.27,0,1,1,2.5,0V10.5h2.46V6.06a1.27,1.27,0,1,1,2.5,0V10.5h2.46V6.06a1.27,1.27,0,1,1,2.5,0V10.5H268V6.06a1.27,1.27,0,1,1,2.5,0V10.5H273V6.06a1.27,1.27,0,1,1,2.5,0V10.5H278V6.06a1.27,1.27,0,1,1,2.5,0V10.5h2.46V6.06a1.27,1.27,0,1,1,2.5,0V10.5h2.46V6.06a1.27,1.27,0,1,1,2.5,0V10.5h2.46V6.06a1.27,1.27,0,1,1,2.5,0V10.5h2.46V6.06a1.27,1.27,0,1,1,2.5,0V10.5h2.46V6.06a1.27,1.27,0,1,1,2.5,0V10.5h2.46V6.06a1.27,1.27,0,1,1,2.5,0V10.5h2.46V6.06a1.27,1.27,0,1,1,2.5,0V10.5h2.46V6.06a1.27,1.27,0,1,1,2.5,0V10.5h2.46V6.06a1.27,1.27,0,1,1,2.5,0V10.5h2.46V6.06a1.27,1.27,0,1,1,2.5,0V10.5h2.46V6.06a1.27,1.27,0,1,1,2.5,0V10.5h2.46V6.06a1.37,1.37,0,0,1,1.25-1.46h0A1.37,1.37,0,0,1,340,6.06V10.5h2.46V6.06a1.27,1.27,0,1,1,2.5,0V10.5h2.46V6.06a1.27,1.27,0,1,1,2.5,0V10.5h2.46V6.06a1.27,1.27,0,1,1,2.5,0V10.5h2.46V6.06a1.27,1.27,0,1,1,2.5,0V10.5h2.46V6.06a1.27,1.27,0,1,1,2.5,0V10.5h2.46V6.06a1.27,1.27,0,1,1,2.5,0V10.5h2.46V6.06a1.27,1.27,0,1,1,2.5,0V10.5h2.46V6.06a1.27,1.27,0,1,1,2.5,0V10.5h2.46V6.06a1.27,1.27,0,1,1,2.5,0V10.5h2.46V6.06a1.27,1.27,0,1,1,2.5,0V10.5h2.46V6.06a1.37,1.37,0,0,1,1.25-1.46h0a1.37,1.37,0,0,1,1.25,1.46V10.5h2.46V6.06a1.27,1.27,0,1,1,2.5,0V10.5H402V6.06a1.27,1.27,0,1,1,2.5,0V10.5H407V6.06a1.27,1.27,0,1,1,2.5,0V10.5H412V6.06a1.27,1.27,0,1,1,2.5,0V10.5h2.46V6.06a1.27,1.27,0,1,1,2.5,0V10.5h2.46V6.06a1.27,1.27,0,1,1,2.5,0V10.5h2.46V6.06a1.27,1.27,0,1,1,2.5,0V10.5h2.46V6.06a1.27,1.27,0,1,1,2.5,0V10.5h2.46V6.06a1.27,1.27,0,1,1,2.5,0V10.5h2.46V6.06a1.27,1.27,0,1,1,2.5,0V10.5h2.46V6.06A1.37,1.37,0,0,1,448,4.6h0a1.37,1.37,0,0,1,1.25,1.46V10.5h2.46V6.06a1.27,1.27,0,1,1,2.5,0V10.5h2.46V6.06a1.27,1.27,0,1,1,2.5,0V10.5h2.46V6.06a1.27,1.27,0,1,1,2.5,0V10.5h2.46V6.06a1.27,1.27,0,1,1,2.5,0V10.5h2.46V6.06a1.27,1.27,0,1,1,2.5,0V10.5h2.46V6.06a1.27,1.27,0,1,1,2.5,0V10.5h2.46V6.06a1.27,1.27,0,1,1,2.5,0V10.5h2.46V6.06a1.27,1.27,0,1,1,2.5,0V10.5h2.46V6.06a1.27,1.27,0,1,1,2.5,0V10.5h2.46V6.06a1.27,1.27,0,1,1,2.5,0V10.5h2.46V6.06a1.37,1.37,0,0,1,1.25-1.46h0a1.37,1.37,0,0,1,1.25,1.46V10.5h2.46V6.06a1.27,1.27,0,1,1,2.5,0V10.5h2.46V6.06a1.27,1.27,0,1,1,2.5,0V10.5h2.46V6.06a1.27,1.27,0,1,1,2.5,0V10.5h2.46V6.06a1.27,1.27,0,1,1,2.5,0V10.5h2.46V6.06a1.27,1.27,0,1,1,2.5,0V10.5h2.46V6.06a1.27,1.27,0,1,1,2.5,0V10.5h2.46V6.06a1.27,1.27,0,1,1,2.5,0V10.5H541V6.06a1.27,1.27,0,1,1,2.5,0V10.5H546V6.06a1.27,1.27,0,1,1,2.5,0V10.5h2.46V6.06a1.27,1.27,0,1,1,2.5,0V10.5h2.46V6.06a1.37,1.37,0,0,1,1.25-1.46h0a1.37,1.37,0,0,1,1.25,1.46V10.5h2.46V6.06a1.27,1.27,0,1,1,2.5,0V10.5h2.46V6.06a1.27,1.27,0,1,1,2.5,0V10.5h2.46V6.06a1.27,1.27,0,1,1,2.5,0V10.5h2.46V6.06a1.27,1.27,0,1,1,2.5,0V10.5h2.46V6.06a1.27,1.27,0,1,1,2.5,0V10.5h2.46V6.06a1.27,1.27,0,1,1,2.5,0V10.5h2.46V6.06a1.27,1.27,0,1,1,2.5,0V10.5h2.46V6.06a1.27,1.27,0,1,1,2.5,0V10.5h2.46V6.06a1.27,1.27,0,1,1,2.5,0V10.5h2.46V6.06a1.27,1.27,0,1,1,2.5,0V10.5h2.46V6.06a1.37,1.37,0,0,1,1.25-1.46h0A1.37,1.37,0,0,1,613,6.06V10.5h2.46V6.06a1.27,1.27,0,1,1,2.5,0V10.5h2.46V6.06a1.27,1.27,0,1,1,2.5,0V10.5h2.46V6.06a1.27,1.27,0,1,1,2.5,0V10.5h2.46V6.06a1.27,1.27,0,1,1,2.5,0V10.5h2.46V6.06a1.27,1.27,0,1,1,2.5,0V10.5h2.46V6.06a1.27,1.27,0,1,1,2.5,0V10.5h2.46V6.06a1.27,1.27,0,1,1,2.5,0V10.5h2.46V6.06a1.27,1.27,0,1,1,2.5,0V10.5h2.46V6.06a1.27,1.27,0,1,1,2.5,0V10.5h2.46V6.06a1.27,1.27,0,1,1,2.5,0V10.5h2.46V6.06a1.37,1.37,0,0,1,1.25-1.46h0a1.37,1.37,0,0,1,1.25,1.46V10.5h2.46V6.06a1.27,1.27,0,1,1,2.5,0V10.5H675V6.06a1.27,1.27,0,1,1,2.5,0V10.5H680V6.06a1.27,1.27,0,1,1,2.5,0V10.5H685V6.06a1.27,1.27,0,1,1,2.5,0V10.5h2.46V6.06a1.27,1.27,0,1,1,2.5,0V10.5h2.46V6.06a1.27,1.27,0,1,1,2.5,0V10.5h2.46V6.06a1.27,1.27,0,1,1,2.5,0V10.5h2.46V6.06a1.27,1.27,0,1,1,2.5,0V10.5h2.46V6.06a1.27,1.27,0,1,1,2.5,0V10.5h2.46V6.06a1.27,1.27,0,1,1,2.5,0V10.5h2.46V6.06A1.37,1.37,0,0,1,721,4.6h0a1.37,1.37,0,0,1,1.25,1.46V10.5h2.46V6.06a1.27,1.27,0,1,1,2.5,0V10.5h2.46V6.06a1.27,1.27,0,1,1,2.5,0V10.5h2.46V6.06a1.27,1.27,0,1,1,2.5,0V10.5h2.46V6.06a1.27,1.27,0,1,1,2.5,0V10.5h2.46V6.06a1.27,1.27,0,1,1,2.5,0V10.5h2.46V6.06a1.27,1.27,0,1,1,2.5,0V10.5h2.46V6.06a1.27,1.27,0,1,1,2.5,0V10.5h2.46V6.06a1.27,1.27,0,1,1,2.5,0V10.5h2.46V6.06a1.27,1.27,0,1,1,2.5,0V10.5h2.46V6.06a1.27,1.27,0,1,1,2.5,0V10.5h2.46V6.06a1.27,1.27,0,1,1,2.5,0V10.5h2.46V6.06a1.27,1.27,0,1,1,2.5,0V10.5h2.46V6.06a1.27,1.27,0,1,1,2.5,0V10.5h2.46V6.06a1.27,1.27,0,1,1,2.5,0V10.5h2.46V6.06a1.27,1.27,0,1,1,2.5,0V10.5h2.46V6.06a1.27,1.27,0,1,1,2.5,0V10.5h2.46V6.06a1.27,1.27,0,1,1,2.5,0V10.5H809V6.06a1.27,1.27,0,1,1,2.5,0V10.5H814V6.06a1.27,1.27,0,1,1,2.5,0V10.5H819V6.06a1.27,1.27,0,1,1,2.5,0V10.5h2.46V6.06a1.27,1.27,0,1,1,2.5,0V10.5h2.46V6.06a1.27,1.27,0,1,1,2.5,0V10.5h2.46V6.06a1.27,1.27,0,1,1,2.5,0V10.5h2.46V6.06a1.27,1.27,0,1,1,2.5,0V10.5h2.46V6.06a1.27,1.27,0,1,1,2.5,0V10.5h2.46V6.06a1.27,1.27,0,1,1,2.5,0V10.5h2.46V6.06a1.27,1.27,0,1,1,2.5,0V10.5h2.46V6.06a1.27,1.27,0,1,1,2.5,0V10.5h2.46V6.06a1.27,1.27,0,1,1,2.5,0V10.5h2.46V6.06a1.27,1.27,0,1,1,2.5,0V10.5h2.46V6.06a1.27,1.27,0,1,1,2.5,0V10.5h2.46V6.06a1.27,1.27,0,1,1,2.5,0V10.5h2.46V6.06a1.27,1.27,0,1,1,2.5,0V10.5h2.46V6.06a1.27,1.27,0,1,1,2.5,0V10.5h2.46V6.06a1.27,1.27,0,1,1,2.5,0V10.5h2.46V6.06a1.27,1.27,0,1,1,2.5,0V10.5h2.46V6.06a1.27,1.27,0,1,1,2.5,0V10.5h2.46V6.06a1.27,1.27,0,1,1,2.5,0V10.5h2.46V6.06a1.27,1.27,0,1,1,2.5,0V10.5h2.46V6.06a1.27,1.27,0,1,1,2.5,0V10.5h2.46V6.06a1.27,1.27,0,1,1,2.5,0V10.5h2.46V6.06a1.27,1.27,0,1,1,2.5,0V10.5h2.46V6.06a1.27,1.27,0,1,1,2.5,0V10.5h2.46V6.06a1.27,1.27,0,1,1,2.5,0V10.5h2.46V6.06a1.27,1.27,0,1,1,2.5,0V10.5H948V6.06a1.27,1.27,0,1,1,2.5,0V10.5H953V6.06a1.27,1.27,0,1,1,2.5,0V10.5h2.46V6.06a1.27,1.27,0,1,1,2.5,0V10.5h2.46V6.06a1.27,1.27,0,1,1,2.5,0V10.5h2.46V6.06a1.27,1.27,0,1,1,2.5,0V10.5h2.46V6.06a1.27,1.27,0,1,1,2.5,0V10.5h2.46V6.06a1.27,1.27,0,1,1,2.5,0V10.5h2.46V6.06a1.27,1.27,0,1,1,2.5,0V10.5h2.46V6.06a1.27,1.27,0,1,1,2.5,0V10.5h2.46V6.06a1.27,1.27,0,1,1,2.5,0V10.5h2.46V6.06a1.27,1.27,0,1,1,2.5,0V10.5h2.46V6.06a1.27,1.27,0,1,1,2.5,0V10.5h2.46V6.06a1.27,1.27,0,1,1,2.5,0V10.5h2.46V6.06a1.27,1.27,0,1,1,2.5,0V10.5h2.46V6.06a1.27,1.27,0,1,1,2.5,0V10.5h2.46V6.06a1.27,1.27,0,1,1,2.5,0V10.5h2.46V6.06a1.27,1.27,0,1,1,2.5,0V10.5h2.46V6.06a1.27,1.27,0,1,1,2.5,0V10.5h2.46V6.06a1.27,1.27,0,1,1,2.5,0V10.5h2.46V6.06a1.27,1.27,0,1,1,2.5,0V10.5h2.46V6.06a1.27,1.27,0,1,1,2.5,0V10.5h2.46V6.06a1.27,1.27,0,1,1,2.5,0V10.5h2.46V6.06a1.27,1.27,0,1,1,2.5,0V10.5h2.46V6.06a1.27,1.27,0,1,1,2.5,0V10.5h2.46V6.06a1.27,1.27,0,1,1,2.5,0V10.5h2.46V6.06a1.27,1.27,0,1,1,2.5,0V10.5h2.46V6.06a1.27,1.27,0,1,1,2.5,0V10.5H1082V6.06a1.27,1.27,0,1,1,2.5,0V10.5H1087V6.06a1.27,1.27,0,1,1,2.5,0V10.5H1092V6.06a1.27,1.27,0,1,1,2.5,0V10.5h2.46V6.06a1.27,1.27,0,1,1,2.5,0V10.5h2.46V6.06a1.27,1.27,0,1,1,2.5,0V10.5h2.46V6.06a1.27,1.27,0,1,1,2.5,0V10.5h2.46V6.06a1.27,1.27,0,1,1,2.5,0V10.5h2.46V6.06a1.27,1.27,0,1,1,2.5,0V10.5h2.46V6.06a1.27,1.27,0,1,1,2.5,0V10.5h2.46V6.06a1.27,1.27,0,1,1,2.51,0V10.5h2.46V6.06a1.27,1.27,0,1,1,2.5,0V10.5h2.46V6.06a1.27,1.27,0,1,1,2.5,0V10.5h2.46V6.06a1.27,1.27,0,1,1,2.5,0V10.5h2.46V6.06a1.27,1.27,0,1,1,2.5,0V10.5h2.46V6.06a1.27,1.27,0,1,1,2.5,0V10.5h2.46V6.06a1.27,1.27,0,1,1,2.5,0V10.5h2.46V6.06a1.27,1.27,0,1,1,2.51,0V10.5h2.46V6.06a1.27,1.27,0,1,1,2.5,0V10.5h2.46V6.06a1.27,1.27,0,1,1,2.5,0V10.5h2.46V6.06a1.27,1.27,0,1,1,2.5,0V10.5h2.46V6.06a1.27,1.27,0,1,1,2.5,0V10.5h2.46V6.06a1.27,1.27,0,1,1,2.51,0V10.5h2.46V6.06a1.27,1.27,0,1,1,2.51,0V10.5h2.46V6.06a1.27,1.27,0,1,1,2.5,0V10.5h1.3Z"/><path class="cls-3" d="M85,33a5,5,0,0,1-5-5,5,5,0,0,1-5,5"/><path class="cls-3" d="M95,33a5,5,0,0,1-5-5,5,5,0,0,1-5,5"/><path class="cls-3" d="M931,29a5,5,0,0,1-5-5,5,5,0,0,1-5,5"/><path class="cls-3" d="M941,29a5,5,0,0,1-5-5,5,5,0,0,1-5,5"/><path class="cls-3" d="M1119,32a5,5,0,0,0-10,0"/><path class="cls-3" d="M1129,32a5,5,0,0,0-10,0"/><path class="cls-3" d="M327,32a5,5,0,0,1-5-5,5,5,0,0,1-5,5"/><path class="cls-3" d="M337,32a5,5,0,0,1-5-5,5,5,0,0,1-5,5"/></g></g></svg>