<svg xmlns="http://www.w3.org/2000/svg" width="400" height="300"><defs><style type="text/css"><![CDATA[ @import url("https://fonts.googleapis.com/css?family=Raleway:700"); ]]></style></defs><g transform="translate(200,150)"><g class="arc"><path d="M3.67394039744206e-15,-60A60,60,0,0,1,57.06339097770921,-18.541019662496844L22.825356391083684,-7.416407864998737A24,24,0,0,0,1.4695761589768238e-15,-24Z" fill="#351923"></path><g class="arc-label" transform="translate(40.557182408180644,-55.82217261187137)" dy="0.35em" style="position: relative; z-index: 999;"><text style="font-family: Raleway, sans-serif; font-size: 11px; font-weight: 700;" dy="0" text-anchor="start">20%</text><text style="font-family: Raleway, sans-serif; font-size: 11px; font-weight: 700;" dy="15" text-anchor="start">Agricultura/agropecuária</text></g></g><g class="arc"><path d="M57.06339097770921,-18.541019662496844A60,60,0,0,1,43.73811764528469,41.072826355721325L17.495247058113875,16.42913054228853A24,24,0,0,0,22.825356391083684,-7.416407864998737Z" fill="#5B414C"></path><g class="arc-label" transform="translate(67.33825657377358,15.05188365636144)" dy="0.35em" style="position: relative; z-index: 999;"><text style="font-family: Raleway, sans-serif; font-size: 11px; font-weight: 700;" dy="0" text-anchor="start">17%</text><text style="font-family: Raleway, sans-serif; font-size: 11px; font-weight: 700;" dy="15" text-anchor="start">Disponibilidade de água</text><text style="font-family: Raleway, sans-serif; font-size: 11px; font-weight: 700;" dy="30" text-anchor="start">para produção/serviços</text></g></g><g class="arc"><path d="M43.73811764528469,41.072826355721325A60,60,0,0,1,-3.767431171758831,59.88160370569629L-1.5069724687035322,23.952641482278516A24,24,0,0,0,17.495247058113875,16.42913054228853Z" fill="#7174A5"></path><g class="arc-label" transform="translate(25.400594135242763,64.15457752628936)" dy="0.35em" style="position: relative; z-index: 999;"><text style="font-family: Raleway, sans-serif; font-size: 11px; font-weight: 700;" dy="0" text-anchor="start">14%</text><text style="font-family: Raleway, sans-serif; font-size: 11px; font-weight: 700;" dy="15" text-anchor="start">Transporte matéria prima /</text><text style="font-family: Raleway, sans-serif; font-size: 11px; font-weight: 700;" dy="30" text-anchor="start">produtos e serviços</text></g></g><g class="arc"><path d="M-3.767431171758831,59.88160370569629A60,60,0,0,1,-41.07282635572135,43.73811764528467L-16.429130542288537,17.49524705811387A24,24,0,0,0,-1.5069724687035322,23.952641482278516Z" fill="#8D8FBA"></path><g class="arc-label" transform="translate(-27.403204453799876,63.32506917219469)" dy="0.35em" style="position: relative; z-index: 999;"><text style="font-family: Raleway, sans-serif; font-size: 11px; font-weight: 700;" dy="0" text-anchor="end">11%</text><text style="font-family: Raleway, sans-serif; font-size: 11px; font-weight: 700;" dy="15" text-anchor="end">Turismo</text></g></g><g class="arc"><path d="M-36.965543720149206,39.3643058807562A54,54,0,0,1,-9.91963907309356e-15,-54L-4.408728476930472e-15,-24A24,24,0,0,0,-16.429130542288537,17.49524705811387Z" fill="#A0A0A0"></path><g class="arc-label" transform="translate(-64.15457752628933,-25.4005941352428)" dy="0.35em" style="position: relative; z-index: 999;"><text style="font-family: Raleway, sans-serif; font-size: 11px; font-weight: 700;" dy="0" text-anchor="end">Outros</text></g></g></g></svg>