<svg xmlns="http://www.w3.org/2000/svg" width="1500" height="1500"><g transform="translate(750,750)"><g class="arc"><path d="M1.1021821192326179e-14,-180A180,180,0,0,1,171.19017293312763,-55.62305898749053L68.47606917325105,-22.249223594996213A72,72,0,0,0,4.408728476930472e-15,-72Z" fill="#351923"></path><g class="arc-label" transform="translate(126.9616144951742,-174.74767078498866)" dy="0.35em"><text style="font-family: Raleway, sans-serif; font-size: 33px; font-weight: bold;" dy="-70" text-anchor="start">20%</text><text style="font-family: Raleway, sans-serif; font-size: 33px; font-weight: bold;" dy="-35" text-anchor="start">Agricultura /</text><text style="font-family: Raleway, sans-serif; font-size: 33px; font-weight: bold;" dy="0" text-anchor="start">Agropecuaria</text></g></g><g class="arc"><path d="M171.19017293312763,-55.62305898749053A180,180,0,0,1,131.21435293585407,123.21847906716397L52.485741174341626,49.287391626865585A72,72,0,0,0,68.47606917325105,-22.249223594996213Z" fill="#5B414C"></path><g class="arc-label" transform="translate(210.79802057876944,47.118940141653205)" dy="0.35em"><text style="font-family: Raleway, sans-serif; font-size: 33px; font-weight: bold;" dy="0" text-anchor="start">17%</text><text style="font-family: Raleway, sans-serif; font-size: 33px; font-weight: bold;" dy="35" text-anchor="start">Disponibilidad de</text><text style="font-family: Raleway, sans-serif; font-size: 33px; font-weight: bold;" dy="70" text-anchor="start">agua para</text><text style="font-family: Raleway, sans-serif; font-size: 33px; font-weight: bold;" dy="105" text-anchor="start">producción/ servicios</text></g></g><g class="arc"><path d="M131.21435293585407,123.21847906716397A180,180,0,0,1,-11.302293515276492,179.6448111170889L-4.520917406110597,71.85792444683555A72,72,0,0,0,52.485741174341626,49.287391626865585Z" fill="#7174A5"></path><g class="arc-label" transform="translate(79.51490337989038,200.83172095186234)" dy="0.35em"><text style="font-family: Raleway, sans-serif; font-size: 33px; font-weight: bold;" dy="0" text-anchor="start">14%</text><text style="font-family: Raleway, sans-serif; font-size: 33px; font-weight: bold;" dy="35" text-anchor="start">Transporte matéria</text><text style="font-family: Raleway, sans-serif; font-size: 33px; font-weight: bold;" dy="70" text-anchor="start">prima / produtos</text><text style="font-family: Raleway, sans-serif; font-size: 33px; font-weight: bold;" dy="105" text-anchor="start">e serviços</text></g></g><g class="arc"><path d="M-11.302293515276492,179.6448111170889A180,180,0,0,1,-123.21847906716403,131.214352935854L-49.28739162686561,52.4857411743416A72,72,0,0,0,-4.520917406110597,71.85792444683555Z" fill="#8D8FBA"></path><g class="arc-label" transform="translate(-85.78394437711266,198.2349991477399)" dy="0.35em"><text style="font-family: Raleway, sans-serif; font-size: 33px; font-weight: bold;" dy="0" text-anchor="end">11%</text><text style="font-family: Raleway, sans-serif; font-size: 33px; font-weight: bold;" dy="35" text-anchor="end">Turismo</text></g></g><g class="arc"><path d="M-110.89663116044763,118.0929176422686A162,162,0,0,1,-2.975891721928068e-14,-162L-1.3226185430791413e-14,-72A72,72,0,0,0,-49.28739162686561,52.4857411743416Z" fill="#A0A0A0"></path><g class="arc-label" transform="translate(-200.83172095186228,-79.51490337989051)" dy="0.35em"><text style="font-family: Raleway, sans-serif; font-size: 33px; font-weight: bold;" dy="0" text-anchor="end">Otros</text></g></g></g></svg>