<svg xmlns="http://www.w3.org/2000/svg" width="1500" height="1500"><g transform="translate(750,750)"><g class="arc"><path d="M1.1021821192326179e-14,-180A180,180,0,0,1,127.27922061357856,-127.27922061357854L50.91168824543143,-50.91168824543142A72,72,0,0,0,4.408728476930472e-15,-72Z" fill="#006B85"></path><g class="arc-label" transform="translate(82.6596213908594,-199.55797902243793)" dy="0.35em"><text style="font-family: Raleway, sans-serif; font-size: 33px; font-weight: bold;" dy="-35" text-anchor="start">13%</text><text style="font-family: Raleway, sans-serif; font-size: 33px; font-weight: bold;" dy="0" text-anchor="start">Reducción de costos</text></g></g><g class="arc"><path d="M127.27922061357856,-127.27922061357854A180,180,0,0,1,179.86122652333012,-7.0667668366323495L71.94449060933205,-2.82670673465294A72,72,0,0,0,50.91168824543143,-50.91168824543142Z" fill="#13889B"></path><g class="arc-label" transform="translate(197.89659873730133,-86.56174795027846)" dy="0.35em"><text style="font-family: Raleway, sans-serif; font-size: 33px; font-weight: bold;" dy="-70" text-anchor="start">12%</text><text style="font-family: Raleway, sans-serif; font-size: 33px; font-weight: bold;" dy="-35" text-anchor="start">Mejor eficiencia</text><text style="font-family: Raleway, sans-serif; font-size: 33px; font-weight: bold;" dy="0" text-anchor="start">hídrica</text></g></g><g class="arc"><path d="M179.86122652333012,-7.0667668366323495A180,180,0,0,1,153.47522958373662,94.04974164887078L61.390091833494644,37.61989665954832A72,72,0,0,0,71.94449060933205,-2.82670673465294Z" fill="#289DA3"></path><g class="arc-label" transform="translate(209.0014039498161,54.538180635274145)" dy="0.35em"><text style="font-family: Raleway, sans-serif; font-size: 33px; font-weight: bold;" dy="0" text-anchor="start">9%</text><text style="font-family: Raleway, sans-serif; font-size: 33px; font-weight: bold;" dy="35" text-anchor="start">Aumento en el</text><text style="font-family: Raleway, sans-serif; font-size: 33px; font-weight: bold;" dy="70" text-anchor="start">valor de la marca</text></g></g><g class="arc"><path d="M153.47522958373662,94.04974164887078A180,180,0,0,1,94.0497416488708,153.4752295837366L37.619896659548324,61.39009183349464A72,72,0,0,0,61.390091833494644,37.61989665954832Z" fill="#58A4A8"></path><g class="arc-label" transform="translate(152.73506473629428,152.73506473629425)" dy="0.35em"><text style="font-family: Raleway, sans-serif; font-size: 33px; font-weight: bold;" dy="0" text-anchor="start">8%</text><text style="font-family: Raleway, sans-serif; font-size: 33px; font-weight: bold;" dy="35" text-anchor="start">Innovación</text></g></g><g class="arc"><path d="M94.0497416488708,153.4752295837366A180,180,0,0,1,28.158203707241565,177.7839013071248L11.263281482896627,71.11356052284992A72,72,0,0,0,37.619896659548324,61.39009183349464Z" fill="#6AB6BA"></path><g class="arc-label" transform="translate(74.76128432873854,202.64932855925656)" dy="0.35em"><text style="font-family: Raleway, sans-serif; font-size: 33px; font-weight: bold;" dy="0" text-anchor="start">6%</text><text style="font-family: Raleway, sans-serif; font-size: 33px; font-weight: bold;" dy="35" text-anchor="start">Mejora en la relación</text><text style="font-family: Raleway, sans-serif; font-size: 33px; font-weight: bold;" dy="70" text-anchor="start">con la comunidad</text></g></g><g class="arc"><path d="M28.158203707241565,177.7839013071248A180,180,0,0,1,-42.02016549406296,175.0265856715818L-16.808066197625184,70.01063426863271A72,72,0,0,0,11.263281482896627,71.11356052284992Z" fill="#7FCAD1"></path><g class="arc-label" transform="translate(-8.480120203958855,215.83347182799614)" dy="0.35em"><text style="font-family: Raleway, sans-serif; font-size: 33px; font-weight: bold;" dy="0" text-anchor="end">6%</text><text style="font-family: Raleway, sans-serif; font-size: 33px; font-weight: bold;" dy="35" text-anchor="end">Adaptación frente a</text><text style="font-family: Raleway, sans-serif; font-size: 33px; font-weight: bold;" dy="70" text-anchor="end">los cambios climáticos</text></g></g><g class="arc"><path d="M-37.81814894465666,157.52392710442362A162,162,0,0,1,-2.975891721928068e-14,-162L-1.3226185430791413e-14,-72A72,72,0,0,0,-16.808066197625184,70.01063426863271Z" fill="#A0A0A0"></path><g class="arc-label" transform="translate(-214.50278670226407,-25.388077850892856)" dy="0.35em"><text style="font-family: Raleway, sans-serif; font-size: 33px; font-weight: bold;" dy="0" text-anchor="end">Otros</text></g></g></g></svg>