<svg xmlns="http://www.w3.org/2000/svg" width="400" height="300"><defs><style type="text/css"><![CDATA[ @import url("https://fonts.googleapis.com/css?family=Raleway:700"); ]]></style></defs><g transform="translate(200,150)"><g class="arc"><path d="M3.67394039744206e-15,-60A60,60,0,0,1,12.474701449065554,58.68885604402834L4.989880579626222,23.475542417611337A24,24,0,0,0,1.4695761589768238e-15,-24Z" fill="#006B85"></path><g class="arc-label" transform="translate(71.60557646651567,-7.526049355271044)" dy="0.35em"><text style="font-family: Raleway, sans-serif; font-size: 11px; font-weight: 700;" dy="0" text-anchor="start">47%</text><text style="font-family: Raleway, sans-serif; font-size: 11px; font-weight: 700;" dy="15" text-anchor="start">Cobertura negativa</text><text style="font-family: Raleway, sans-serif; font-size: 11px; font-weight: 700;" dy="30" text-anchor="start">da mídia</text></g></g><g class="arc"><path d="M12.474701449065554,58.68885604402834A60,60,0,0,1,-57.06339097770922,-18.541019662496836L-22.825356391083687,-7.416407864998735A24,24,0,0,0,4.989880579626222,23.475542417611337Z" fill="#13889B"></path><g class="arc-label" transform="translate(-53.50642743437239,48.17740365783778)" dy="0.35em"><text style="font-family: Raleway, sans-serif; font-size: 11px; font-weight: 700;" dy="0" text-anchor="end">33%</text><text style="font-family: Raleway, sans-serif; font-size: 11px; font-weight: 700;" dy="15" text-anchor="end">Oposição da</text><text style="font-family: Raleway, sans-serif; font-size: 11px; font-weight: 700;" dy="30" text-anchor="end">comunidade</text></g></g><g class="arc"><path d="M-57.06339097770922,-18.541019662496836A60,60,0,0,1,-24.404198584548006,-54.81272745855606L-9.761679433819202,-21.92509098342242A24,24,0,0,0,-22.825356391083687,-7.416407864998735Z" fill="#289DA3"></path><g class="arc-label" transform="translate(-53.50642743437236,-48.177403657837814)" dy="0.35em"><text style="font-family: Raleway, sans-serif; font-size: 11px; font-weight: 700;" dy="0" text-anchor="end">13%</text><text style="font-family: Raleway, sans-serif; font-size: 11px; font-weight: 700;" dy="15" text-anchor="end">Acesso inadequado</text><text style="font-family: Raleway, sans-serif; font-size: 11px; font-weight: 700;" dy="30" text-anchor="end">à água, saneamento</text><text style="font-family: Raleway, sans-serif; font-size: 11px; font-weight: 700;" dy="45" text-anchor="end">e higiene</text></g></g><g class="arc"><path d="M-24.404198584548006,-54.81272745855606A60,60,0,0,1,-1.1021821192326178e-14,-60L-4.408728476930472e-15,-24A24,24,0,0,0,-9.761679433819202,-21.92509098342242Z" fill="#58A4A8"></path><g class="arc-label" transform="translate(-14.969641738878643,-70.42662725283401)" dy="0.35em"><text style="font-family: Raleway, sans-serif; font-size: 11px; font-weight: 700;" dy="-30" text-anchor="end">7%</text><text style="font-family: Raleway, sans-serif; font-size: 11px; font-weight: 700;" dy="-15" text-anchor="end">Valores culturais</text><text style="font-family: Raleway, sans-serif; font-size: 11px; font-weight: 700;" dy="0" text-anchor="end">e religiosos</text></g></g></g></svg>