<svg xmlns="http://www.w3.org/2000/svg" width="1500" height="1500"><g transform="translate(750,750)"><g class="arc"><path d="M1.1021821192326179e-14,-180A180,180,0,0,1,177.26539554219744,31.256671980047464L70.90615821687898,12.502668792018985A72,72,0,0,0,4.408728476930472e-15,-72Z" fill="#006B85"></path><g class="arc-label" transform="translate(165.46559971369928,-138.8421236922925)" dy="0.35em"><text style="font-family: Raleway, sans-serif; font-size: 33px; font-weight: bold;" dy="-70" text-anchor="start">28%</text><text style="font-family: Raleway, sans-serif; font-size: 33px; font-weight: bold;" dy="-35" text-anchor="start">Restricción al</text><text style="font-family: Raleway, sans-serif; font-size: 33px; font-weight: bold;" dy="0" text-anchor="start">crecimiento</text></g></g><g class="arc"><path d="M177.26539554219744,31.256671980047464A180,180,0,0,1,1.1021821192326179e-14,180L4.408728476930472e-15,72A72,72,0,0,0,70.90615821687898,12.502668792018985Z" fill="#13889B"></path><g class="arc-label" transform="translate(138.84212369229252,165.46559971369922)" dy="0.35em"><text style="font-family: Raleway, sans-serif; font-size: 33px; font-weight: bold;" dy="0" text-anchor="start">22%</text><text style="font-family: Raleway, sans-serif; font-size: 33px; font-weight: bold;" dy="35" text-anchor="start">Interrupción de la</text><text style="font-family: Raleway, sans-serif; font-size: 33px; font-weight: bold;" dy="70" text-anchor="start">producción/fábrica</text><text style="font-family: Raleway, sans-serif; font-size: 33px; font-weight: bold;" dy="105" text-anchor="start">conduciendo a la reducción</text><text style="font-family: Raleway, sans-serif; font-size: 33px; font-weight: bold;" dy="140" text-anchor="start">de las cantidades producidas</text></g></g><g class="arc"><path d="M1.1021821192326179e-14,180A180,180,0,0,1,-115.70176974357709,137.88799976141604L-46.28070789743084,55.155199904566416A72,72,0,0,0,4.408728476930472e-15,72Z" fill="#289DA3"></path><g class="arc-label" transform="translate(-73.87635095834445,202.97360608975623)" dy="0.35em"><text style="font-family: Raleway, sans-serif; font-size: 33px; font-weight: bold;" dy="0" text-anchor="end">11%</text><text style="font-family: Raleway, sans-serif; font-size: 33px; font-weight: bold;" dy="35" text-anchor="end">Daño a la marca</text></g></g><g class="arc"><path d="M-104.13159276921938,124.09919978527444A162,162,0,0,1,-2.975891721928068e-14,-162L-1.3226185430791413e-14,-72A72,72,0,0,0,-46.28070789743084,55.155199904566416Z" fill="#A0A0A0"></path><g class="arc-label" transform="translate(-202.97360608975623,-73.87635095834433)" dy="0.35em"><text style="font-family: Raleway, sans-serif; font-size: 33px; font-weight: bold;" dy="0" text-anchor="end">Otros</text></g></g></g></svg>