<svg xmlns="http://www.w3.org/2000/svg" width="400" height="300"><defs><style type="text/css"><![CDATA[ @import url("https://fonts.googleapis.com/css?family=Raleway:700"); ]]></style></defs><g transform="translate(200,150)"><g class="arc"><path d="M3.67394039744206e-15,-60A60,60,0,0,1,59.903321329737075,-3.404716385584442L23.96132853189483,-1.3618865542337766A24,24,0,0,0,1.4695761589768238e-15,-24Z" fill="#501D3C"></path><g class="arc-label" transform="translate(47.38584047373158,-50.15557917717691)" dy="0.35em" style="position: relative; z-index: 999;"><text style="font-family: Raleway, sans-serif; font-size: 11px; font-weight: 700;" dy="0" text-anchor="start">24%</text><text style="font-family: Raleway, sans-serif; font-size: 11px; font-weight: 700;" dy="15" text-anchor="start">Mudança nos</text><text style="font-family: Raleway, sans-serif; font-size: 11px; font-weight: 700;" dy="30" text-anchor="start">extremos das precipitações</text><text style="font-family: Raleway, sans-serif; font-size: 11px; font-weight: 700;" dy="45" text-anchor="start">e das secas</text></g></g><g class="arc"><path d="M59.903321329737075,-3.404716385584442A60,60,0,0,1,41.75204956751527,43.090211845751554L16.700819827006107,17.23608473830062A24,24,0,0,0,23.96132853189483,-1.3618865542337766Z" fill="#7F2D6E"></path><g class="arc-label" transform="translate(64.27562029294656,25.09272077629202)" dy="0.35em" style="position: relative; z-index: 999;"><text style="font-family: Raleway, sans-serif; font-size: 11px; font-weight: 700;" dy="0" text-anchor="start">14%</text><text style="font-family: Raleway, sans-serif; font-size: 11px; font-weight: 700;" dy="15" text-anchor="start">Mudança na</text><text style="font-family: Raleway, sans-serif; font-size: 11px; font-weight: 700;" dy="30" text-anchor="start">precipitação média</text></g></g><g class="arc"><path d="M41.75204956751527,43.090211845751554A60,60,0,0,1,2.270488603060222,59.957025288979885L0.9081954412240888,23.982810115591956A24,24,0,0,0,16.700819827006107,17.23608473830062Z" fill="#965084"></path><g class="arc-label" transform="translate(27.10729094695703,63.45230316952271)" dy="0.35em" style="position: relative; z-index: 999;"><text style="font-family: Raleway, sans-serif; font-size: 11px; font-weight: 700;" dy="0" text-anchor="start">12%</text><text style="font-family: Raleway, sans-serif; font-size: 11px; font-weight: 700;" dy="15" text-anchor="start">Alteração da</text><text style="font-family: Raleway, sans-serif; font-size: 11px; font-weight: 700;" dy="30" text-anchor="start">temperatura média</text></g></g><g class="arc"><path d="M2.0434397427541997,53.9613227600819A54,54,0,1,1,-9.91963907309356e-15,-54L-4.408728476930472e-15,-24A24,24,0,1,0,0.9081954412240888,23.982810115591956Z" fill="#A0A0A0"></path><g class="arc-label" transform="translate(-68.9876436642119,1.3057647796303051)" dy="0.35em" style="position: relative; z-index: 999;"><text style="font-family: Raleway, sans-serif; font-size: 11px; font-weight: 700;" dy="0" text-anchor="end">Outros</text></g></g></g></svg>