<svg xmlns="http://www.w3.org/2000/svg" width="1500" height="1500"><g transform="translate(750,750)"><g class="arc"><path d="M1.1021821192326179e-14,-180A180,180,0,0,1,155.84685989473348,90.06528887951956L62.3387439578934,36.02611555180782A72,72,0,0,0,4.408728476930472e-15,-72Z" fill="#123426"></path><g class="arc-label" transform="translate(187.08410258166174,-107.9608195653139)" dy="0.35em"><text style="font-family: Raleway, sans-serif; font-size: 33px; font-weight: bold;" dy="0" text-anchor="start">33%</text><text style="font-family: Raleway, sans-serif; font-size: 33px; font-weight: bold;" dy="35" text-anchor="start">Reglamentos y normas</text><text style="font-family: Raleway, sans-serif; font-size: 33px; font-weight: bold;" dy="70" text-anchor="start">sobre productos</text></g></g><g class="arc"><path d="M155.84685989473348,90.06528887951956A180,180,0,0,1,-155.90341881805145,89.9673496377616L-62.36136752722058,35.986939855104644A72,72,0,0,0,62.3387439578934,36.02611555180782Z" fill="#22563C"></path><g class="arc-label" transform="translate(-0.06785840020131531,215.99998934082734)" dy="0.35em"><text style="font-family: Raleway, sans-serif; font-size: 33px; font-weight: bold;" dy="0" text-anchor="end">33%</text><text style="font-family: Raleway, sans-serif; font-size: 33px; font-weight: bold;" dy="35" text-anchor="end">Normas y estándares</text><text style="font-family: Raleway, sans-serif; font-size: 33px; font-weight: bold;" dy="70" text-anchor="end">de rotulado de</text><text style="font-family: Raleway, sans-serif; font-size: 33px; font-weight: bold;" dy="105" text-anchor="end">productos</text></g></g><g class="arc"><path d="M-155.90341881805145,89.9673496377616A180,180,0,0,1,-3.3065463576978534e-14,-180L-1.3226185430791413e-14,-72A72,72,0,0,0,-62.36136752722058,35.986939855104644Z" fill="#30684D"></path><g class="arc-label" transform="translate(-187.05017645822718,-108.01958844092157)" dy="0.35em"><text style="font-family: Raleway, sans-serif; font-size: 33px; font-weight: bold;" dy="-35" text-anchor="end">33%</text><text style="font-family: Raleway, sans-serif; font-size: 33px; font-weight: bold;" dy="0" text-anchor="end">Acuerdos voluntarios</text></g></g></g></svg>