<svg xmlns="http://www.w3.org/2000/svg" width="400" height="300"><defs><style type="text/css"><![CDATA[ @import url("https://fonts.googleapis.com/css?family=Raleway:700"); ]]></style></defs><g transform="translate(200,150)"><g class="arc"><path d="M3.67394039744206e-15,-60A60,60,0,0,1,59.088465180732484,10.41889066001582L23.63538607229299,4.167556264006329A24,24,0,0,0,1.4695761589768238e-15,-24Z" fill="#006B85"></path><g class="arc-label" transform="translate(52.857066575209494,-44.35234506837121)" dy="0.35em" style="position: relative; z-index: 999;"><text style="font-family: Raleway, sans-serif; font-size: 11px; font-weight: 700;" dy="0" text-anchor="start">28%</text><text style="font-family: Raleway, sans-serif; font-size: 11px; font-weight: 700;" dy="15" text-anchor="start">Restrição ao</text><text style="font-family: Raleway, sans-serif; font-size: 11px; font-weight: 700;" dy="30" text-anchor="start">crescimento</text></g></g><g class="arc"><path d="M59.088465180732484,10.41889066001582A60,60,0,0,1,3.67394039744206e-15,60L1.4695761589768238e-15,24A24,24,0,0,0,23.63538607229299,4.167556264006329Z" fill="#13889B"></path><g class="arc-label" transform="translate(44.35234506837122,52.85706657520947)" dy="0.35em" style="position: relative; z-index: 999;"><text style="font-family: Raleway, sans-serif; font-size: 11px; font-weight: 700;" dy="0" text-anchor="start">22%</text><text style="font-family: Raleway, sans-serif; font-size: 11px; font-weight: 700;" dy="15" text-anchor="start">Interrupção da produção</text><text style="font-family: Raleway, sans-serif; font-size: 11px; font-weight: 700;" dy="30" text-anchor="start">das fábricas levando à</text><text style="font-family: Raleway, sans-serif; font-size: 11px; font-weight: 700;" dy="45" text-anchor="start">redução nas quantidades</text><text style="font-family: Raleway, sans-serif; font-size: 11px; font-weight: 700;" dy="60" text-anchor="start">produzidas</text></g></g><g class="arc"><path d="M3.67394039744206e-15,60A60,60,0,0,1,-38.56725658119236,45.96266658713868L-15.426902632476946,18.385066634855473A24,24,0,0,0,1.4695761589768238e-15,24Z" fill="#289DA3"></path><g class="arc-label" transform="translate(-23.59938988947114,64.83879083422768)" dy="0.35em" style="position: relative; z-index: 999;"><text style="font-family: Raleway, sans-serif; font-size: 11px; font-weight: 700;" dy="0" text-anchor="end">11%</text><text style="font-family: Raleway, sans-serif; font-size: 11px; font-weight: 700;" dy="15" text-anchor="end">Dano à marca</text></g></g><g class="arc"><path d="M-34.71053092307312,41.36639992842481A54,54,0,0,1,-9.91963907309356e-15,-54L-4.408728476930472e-15,-24A24,24,0,0,0,-15.426902632476946,18.385066634855473Z" fill="#A0A0A0"></path><g class="arc-label" transform="translate(-64.8387908342277,-23.599389889471105)" dy="0.35em" style="position: relative; z-index: 999;"><text style="font-family: Raleway, sans-serif; font-size: 11px; font-weight: 700;" dy="0" text-anchor="end">Outros</text></g></g></g></svg>