<svg xmlns="http://www.w3.org/2000/svg" width="1500" height="1500"><g transform="translate(750,750)"><g class="arc"><path d="M1.1021821192326179e-14,-180A180,180,0,0,1,146.84422824795095,104.09982051023759L58.73769129918038,41.639928204095035A72,72,0,0,0,4.408728476930472e-15,-72Z" fill="#501D3C"></path><g class="arc-label" transform="translate(191.8836541712889,-99.1799539315945)" dy="0.35em"><text style="font-family: Raleway, sans-serif; font-size: 33px; font-weight: bold;" dy="0" text-anchor="start">35%</text><text style="font-family: Raleway, sans-serif; font-size: 33px; font-weight: bold;" dy="35" text-anchor="start">Reputación</text></g></g><g class="arc"><path d="M146.84422824795095,104.09982051023759A180,180,0,0,1,-141.84193564921,110.81906555861845L-56.736774259684,44.32762622344738A72,72,0,0,0,58.73769129918038,41.639928204095035Z" fill="#7F2D6E"></path><g class="arc-label" transform="translate(5.026094576796122,215.94151609476373)" dy="0.35em"><text style="font-family: Raleway, sans-serif; font-size: 33px; font-weight: bold;" dy="0" text-anchor="start">30%</text><text style="font-family: Raleway, sans-serif; font-size: 33px; font-weight: bold;" dy="35" text-anchor="start">Alteración en el</text><text style="font-family: Raleway, sans-serif; font-size: 33px; font-weight: bold;" dy="70" text-anchor="start">comportamiento del consumidor</text></g></g><g class="arc"><path d="M-141.84193564921,110.81906555861845A180,180,0,0,1,-165.27889923844927,-71.29435788704832L-66.11155969537971,-28.51774315481933A72,72,0,0,0,-56.736774259684,44.32762622344738Z" fill="#965084"></path><g class="arc-label" transform="translate(-214.23319593291254,27.570595937888335)" dy="0.35em"><text style="font-family: Raleway, sans-serif; font-size: 33px; font-weight: bold;" dy="0" text-anchor="end">17%</text><text style="font-family: Raleway, sans-serif; font-size: 33px; font-weight: bold;" dy="35" text-anchor="end">Otros generadores</text><text style="font-family: Raleway, sans-serif; font-size: 33px; font-weight: bold;" dy="70" text-anchor="end">de oportunidad</text></g></g><g class="arc"><path d="M-148.75100931460435,-64.1649220983435A162,162,0,0,1,1.141259867721396e-13,-162L5.07226607876176e-14,-72A72,72,0,0,0,-66.11155969537971,-28.51774315481933Z" fill="#A0A0A0"></path><g class="arc-label" transform="translate(-118.69393926329391,-180.4653672651944)" dy="0.35em"><text style="font-family: Raleway, sans-serif; font-size: 33px; font-weight: bold;" dy="0" text-anchor="end">Otros</text></g></g></g></svg>