<svg xmlns="http://www.w3.org/2000/svg" width="400" height="300"><defs><style type="text/css"><![CDATA[ @import url("https://fonts.googleapis.com/css?family=Raleway:700"); ]]></style></defs><g transform="translate(200,150)"><g class="arc"><path d="M3.67394039744206e-15,-60A60,60,0,0,1,52.800732238412145,28.497064324023L21.12029289536486,11.3988257296092A24,24,0,0,0,1.4695761589768238e-15,-24Z" fill="#501D3C"></path><g class="arc-label" transform="translate(59.2547131210304,-35.35362743686123)" dy="0.35em" style="position: relative; z-index: 999;"><text style="font-family: Raleway, sans-serif; font-size: 11px; font-weight: 700;" dy="0" text-anchor="start">33%</text><text style="font-family: Raleway, sans-serif; font-size: 11px; font-weight: 700;" dy="15" text-anchor="start">Reputação</text></g></g><g class="arc"><path d="M52.800732238412145,28.497064324023A60,60,0,0,1,-22.66247791223786,55.555486631631L-9.064991164895144,22.2221946526524A24,24,0,0,0,21.12029289536486,11.3988257296092Z" fill="#7F2D6E"></path><g class="arc-label" transform="translate(23.289080071993844,64.95089490838643)" dy="0.35em" style="position: relative; z-index: 999;"><text style="font-family: Raleway, sans-serif; font-size: 11px; font-weight: 700;" dy="0" text-anchor="start">23%</text><text style="font-family: Raleway, sans-serif; font-size: 11px; font-weight: 700;" dy="15" text-anchor="start">Alteração do</text><text style="font-family: Raleway, sans-serif; font-size: 11px; font-weight: 700;" dy="30" text-anchor="start">comportamento do</text><text style="font-family: Raleway, sans-serif; font-size: 11px; font-weight: 700;" dy="45" text-anchor="start">consumidor</text></g></g><g class="arc"><path d="M-22.66247791223786,55.555486631631A60,60,0,0,1,-56.0302337293755,21.461894329987544L-22.412093491750202,8.584757731995017A24,24,0,0,0,-9.064991164895144,22.2221946526524Z" fill="#965084"></path><g class="arc-label" transform="translate(-49.31246363696428,48.26262456656367)" dy="0.35em" style="position: relative; z-index: 999;"><text style="font-family: Raleway, sans-serif; font-size: 11px; font-weight: 700;" dy="0" text-anchor="end">13%</text><text style="font-family: Raleway, sans-serif; font-size: 11px; font-weight: 700;" dy="15" text-anchor="end">Condições socioeconômicas</text><text style="font-family: Raleway, sans-serif; font-size: 11px; font-weight: 700;" dy="30" text-anchor="end">flutuantes</text></g></g><g class="arc"><path d="M-50.42721035643795,19.31570489698879A54,54,0,0,1,-9.91963907309356e-15,-54L-4.408728476930472e-15,-24A24,24,0,0,0,-22.412093491750202,8.584757731995017Z" fill="#A0A0A0"></path><g class="arc-label" transform="translate(-56.85068739727125,-39.1024211840871)" dy="0.35em" style="position: relative; z-index: 999;"><text style="font-family: Raleway, sans-serif; font-size: 11px; font-weight: 700;" dy="0" text-anchor="end">Outros</text></g></g></g></svg>