<svg xmlns="http://www.w3.org/2000/svg" width="400" height="300"><defs><style type="text/css"><![CDATA[ @import url("https://fonts.googleapis.com/css?family=Raleway:700"); ]]></style></defs><g transform="translate(200,150)"><g class="arc"><path d="M3.67394039744206e-15,-60A60,60,0,0,1,53.172214753872886,-27.797762107191705L21.268885901549154,-11.11910484287668A24,24,0,0,0,1.4695761589768238e-15,-24Z" fill="#501D3C"></path><g class="arc-label" transform="translate(35.74386364674598,-59.02013395107496)" dy="0.35em" style="position: relative; z-index: 999;"><text style="font-family: Raleway, sans-serif; font-size: 11px; font-weight: 700;" dy="0" text-anchor="start">17%</text><text style="font-family: Raleway, sans-serif; font-size: 11px; font-weight: 700;" dy="15" text-anchor="start">Regulamentação sobre</text><text style="font-family: Raleway, sans-serif; font-size: 11px; font-weight: 700;" dy="30" text-anchor="start">energia renovável</text></g></g><g class="arc"><path d="M53.172214753872886,-27.797762107191705A60,60,0,0,1,56.79895560694178,19.335941713830664L22.719582242776713,7.734376685532266A24,24,0,0,0,21.268885901549154,-11.11910484287668Z" fill="#7F2D6E"></path><g class="arc-label" transform="translate(68.79663990365749,-5.293612940750493)" dy="0.35em" style="position: relative; z-index: 999;"><text style="font-family: Raleway, sans-serif; font-size: 11px; font-weight: 700;" dy="0" text-anchor="start">13%</text><text style="font-family: Raleway, sans-serif; font-size: 11px; font-weight: 700;" dy="15" text-anchor="start">Regimes de Cap</text><text style="font-family: Raleway, sans-serif; font-size: 11px; font-weight: 700;" dy="30" text-anchor="start">and Trade</text></g></g><g class="arc"><path d="M56.79895560694178,19.335941713830664A60,60,0,0,1,25.167124946770613,54.46664871197453L10.066849978708245,21.786659484789812A24,24,0,0,0,22.719582242776713,7.734376685532266Z" fill="#965084"></path><g class="arc-label" transform="translate(51.276992957940195,46.17001183876122)" dy="0.35em" style="position: relative; z-index: 999;"><text style="font-family: Raleway, sans-serif; font-size: 11px; font-weight: 700;" dy="0" text-anchor="start">13%</text><text style="font-family: Raleway, sans-serif; font-size: 11px; font-weight: 700;" dy="15" text-anchor="start">Regulamentos ambientais</text><text style="font-family: Raleway, sans-serif; font-size: 11px; font-weight: 700;" dy="30" text-anchor="start">gerais, incluindo planejamento</text></g></g><g class="arc"><path d="M22.65041245209355,49.01998384077707A54,54,0,1,1,-9.91963907309356e-15,-54L-4.408728476930472e-15,-24A24,24,0,1,0,10.066849978708245,21.786659484789812Z" fill="#A0A0A0"></path><g class="arc-label" transform="translate(-67.39038720505759,14.816737574527359)" dy="0.35em" style="position: relative; z-index: 999;"><text style="font-family: Raleway, sans-serif; font-size: 11px; font-weight: 700;" dy="0" text-anchor="end">Outros</text></g></g></g></svg>