<svg xmlns="http://www.w3.org/2000/svg" width="400" height="300"><defs><style type="text/css"><![CDATA[ @import url("https://fonts.googleapis.com/css?family=Raleway:700"); ]]></style></defs><g transform="translate(200,150)"><g class="arc"><path d="M3.67394039744206e-15,-60A60,60,0,0,1,55.43277195067721,-22.961005941905388L22.17310878027088,-9.184402376762154A24,24,0,0,0,1.4695761589768238e-15,-24Z" fill="#501D3C"></path><g class="arc-label" transform="translate(38.33434607835256,-57.37140324887562)" dy="0.35em" style="position: relative; z-index: 999;"><text style="font-family: Raleway, sans-serif; font-size: 11px; font-weight: 700;" dy="0" text-anchor="start">19%</text><text style="font-family: Raleway, sans-serif; font-size: 11px; font-weight: 700;" dy="15" text-anchor="start">Regulamentos ambientais</text><text style="font-family: Raleway, sans-serif; font-size: 11px; font-weight: 700;" dy="30" text-anchor="start">gerais, incluindo planejamento</text></g></g><g class="arc"><path d="M55.43277195067721,-22.961005941905388A60,60,0,0,1,57.3148798679448,17.748367410076213L22.92595194717792,7.099346964030485A24,24,0,0,0,22.17310878027088,-9.184402376762154Z" fill="#7F2D6E"></path><g class="arc-label" transform="translate(68.9263752613637,-3.186658646556038)" dy="0.35em" style="position: relative; z-index: 999;"><text style="font-family: Raleway, sans-serif; font-size: 11px; font-weight: 700;" dy="0" text-anchor="start">11%</text><text style="font-family: Raleway, sans-serif; font-size: 11px; font-weight: 700;" dy="15" text-anchor="start">Impostos de carbono</text></g></g><g class="arc"><path d="M57.3148798679448,17.748367410076213A60,60,0,0,1,33.90818486535552,49.49984847589813L13.563273946142207,19.799939390359253A24,24,0,0,0,22.92595194717792,7.099346964030485Z" fill="#965084"></path><g class="arc-label" transform="translate(55.53977382916475,40.943052194544876)" dy="0.35em" style="position: relative; z-index: 999;"><text style="font-family: Raleway, sans-serif; font-size: 11px; font-weight: 700;" dy="0" text-anchor="start">11%</text><text style="font-family: Raleway, sans-serif; font-size: 11px; font-weight: 700;" dy="15" text-anchor="start">Incertezas dos</text><text style="font-family: Raleway, sans-serif; font-size: 11px; font-weight: 700;" dy="30" text-anchor="start">Regulamentos novos</text></g></g><g class="arc"><path d="M33.90818486535552,49.49984847589813A60,60,0,0,1,-2.771007518744364,59.93597848814235L-1.1084030074977456,23.974391395256937A24,24,0,0,0,13.563273946142207,19.799939390359253Z" fill="#B26F9D"></path><g class="arc-label" transform="translate(18.882746314973726,66.36596937892452)" dy="0.35em" style="position: relative; z-index: 999;"><text style="font-family: Raleway, sans-serif; font-size: 11px; font-weight: 700;" dy="0" text-anchor="start">10%</text><text style="font-family: Raleway, sans-serif; font-size: 11px; font-weight: 700;" dy="15" text-anchor="start">Impostos e regulamentos</text><text style="font-family: Raleway, sans-serif; font-size: 11px; font-weight: 700;" dy="30" text-anchor="start">sobre combustível / energia</text></g></g><g class="arc"><path d="M-2.4939067668699275,53.942380639328114A54,54,0,0,1,-9.91963907309356e-15,-54L-4.408728476930472e-15,-24A24,24,0,0,0,-1.1084030074977456,23.974391395256937Z" fill="#A0A0A0"></path><g class="arc-label" transform="translate(-68.98159135970297,-1.5937545240570474)" dy="0.35em" style="position: relative; z-index: 999;"><text style="font-family: Raleway, sans-serif; font-size: 11px; font-weight: 700;" dy="0" text-anchor="end">Outros</text></g></g></g></svg>