<svg xmlns="http://www.w3.org/2000/svg" width="400" height="300"><defs><style type="text/css"><![CDATA[ @import url("https://fonts.googleapis.com/css?family=Raleway:700"); ]]></style></defs><g transform="translate(200,150)"><g class="arc"><path d="M3.67394039744206e-15,-60A60,60,0,0,1,58.16401595635982,-14.72912922844795L23.26560638254393,-5.89165169137918A24,24,0,0,0,1.4695761589768238e-15,-24Z" fill="#501D3C"></path><g class="arc-label" transform="translate(42.38067717558708,-54.45069514835116)" dy="0.35em" style="position: relative; z-index: 999;"><text style="font-family: Raleway, sans-serif; font-size: 11px; font-weight: 700;" dy="0" text-anchor="start">21%</text><text style="font-family: Raleway, sans-serif; font-size: 11px; font-weight: 700;" dy="15" text-anchor="start">Alteração entre</text><text style="font-family: Raleway, sans-serif; font-size: 11px; font-weight: 700;" dy="30" text-anchor="start">os extremos de</text><text style="font-family: Raleway, sans-serif; font-size: 11px; font-weight: 700;" dy="45" text-anchor="start">precipitação e das secas</text></g></g><g class="arc"><path d="M58.16401595635982,-14.72912922844795A60,60,0,0,1,36.85276276138008,47.34843056378361L14.74110510455203,18.939372225513445A24,24,0,0,0,23.26560638254393,-5.89165169137918Z" fill="#7F2D6E"></path><g class="arc-label" transform="translate(65.26138967734379,22.40426337512316)" dy="0.35em" style="position: relative; z-index: 999;"><text style="font-family: Raleway, sans-serif; font-size: 11px; font-weight: 700;" dy="0" text-anchor="start">18%</text><text style="font-family: Raleway, sans-serif; font-size: 11px; font-weight: 700;" dy="15" text-anchor="start">Alteração na</text><text style="font-family: Raleway, sans-serif; font-size: 11px; font-weight: 700;" dy="30" text-anchor="start">temperatura média</text></g></g><g class="arc"><path d="M36.85276276138008,47.34843056378361A60,60,0,0,1,-22.5785623168701,55.58964403288812L-9.031424926748041,22.235857613155247A24,24,0,0,0,14.74110510455203,18.939372225513445Z" fill="#965084"></path><g class="arc-label" transform="translate(9.477395489470185,68.34602383998772)" dy="0.35em" style="position: relative; z-index: 999;"><text style="font-family: Raleway, sans-serif; font-size: 11px; font-weight: 700;" dy="0" text-anchor="start">17%</text><text style="font-family: Raleway, sans-serif; font-size: 11px; font-weight: 700;" dy="15" text-anchor="start">Alteração do padrão</text><text style="font-family: Raleway, sans-serif; font-size: 11px; font-weight: 700;" dy="30" text-anchor="start">de precipitação</text></g></g><g class="arc"><path d="M-20.32070608518309,50.030679629599305A54,54,0,0,1,-9.91963907309356e-15,-54L-4.408728476930472e-15,-24A24,24,0,0,0,-9.031424926748041,22.235857613155247Z" fill="#A0A0A0"></path><g class="arc-label" transform="translate(-67.72015303441684,-13.22803360273796)" dy="0.35em" style="position: relative; z-index: 999;"><text style="font-family: Raleway, sans-serif; font-size: 11px; font-weight: 700;" dy="0" text-anchor="end">Outros</text></g></g></g></svg>