<svg xmlns="http://www.w3.org/2000/svg" width="400" height="300"><defs><style type="text/css"><![CDATA[ @import url("https://fonts.googleapis.com/css?family=Raleway:700"); ]]></style></defs><g transform="translate(200,150)"><g class="arc"><path d="M3.67394039744206e-15,-60A60,60,0,0,1,48.94807608265032,34.699940170079195L19.579230433060125,13.879976068031679A24,24,0,0,0,1.4695761589768238e-15,-24Z" fill="#501D3C"></path><g class="arc-label" transform="translate(61.29616730471729,-31.682485283703798)" dy="0.35em" style="position: relative; z-index: 999;"><text style="font-family: Raleway, sans-serif; font-size: 11px; font-weight: 700;" dy="0" text-anchor="start">35%</text><text style="font-family: Raleway, sans-serif; font-size: 11px; font-weight: 700;" dy="15" text-anchor="start">Reputação</text></g></g><g class="arc"><path d="M48.94807608265032,34.699940170079195A60,60,0,0,1,-47.280645216403336,36.93968851953949L-18.912258086561334,14.775875407815793A24,24,0,0,0,19.579230433060125,13.879976068031679Z" fill="#7F2D6E"></path><g class="arc-label" transform="translate(1.6055579898098722,68.98131764138286)" dy="0.35em" style="position: relative; z-index: 999;"><text style="font-family: Raleway, sans-serif; font-size: 11px; font-weight: 700;" dy="0" text-anchor="start">30%</text><text style="font-family: Raleway, sans-serif; font-size: 11px; font-weight: 700;" dy="15" text-anchor="start">Alteração do comportamento</text><text style="font-family: Raleway, sans-serif; font-size: 11px; font-weight: 700;" dy="30" text-anchor="start">do consumidor</text></g></g><g class="arc"><path d="M-47.280645216403336,36.93968851953949A60,60,0,0,1,-55.09296641281642,-23.76478596234944L-22.03718656512657,-9.505914384939777A24,24,0,0,0,-18.912258086561334,14.775875407815793Z" fill="#965084"></path><g class="arc-label" transform="translate(-68.43560425634706,8.807273702380996)" dy="0.35em" style="position: relative; z-index: 999;"><text style="font-family: Raleway, sans-serif; font-size: 11px; font-weight: 700;" dy="0" text-anchor="end">17%</text><text style="font-family: Raleway, sans-serif; font-size: 11px; font-weight: 700;" dy="15" text-anchor="end">Outros geradores</text><text style="font-family: Raleway, sans-serif; font-size: 11px; font-weight: 700;" dy="30" text-anchor="end">de oportunidades</text></g></g><g class="arc"><path d="M-49.58366977153479,-21.388307366114496A54,54,0,0,1,3.8041995590713197e-14,-54L1.6907553595872534e-14,-24A24,24,0,0,0,-22.03718656512657,-9.505914384939777Z" fill="#A0A0A0"></path><g class="arc-label" transform="translate(-37.916119486885556,-57.64865898749266)" dy="0.35em" style="position: relative; z-index: 999;"><text style="font-family: Raleway, sans-serif; font-size: 11px; font-weight: 700;" dy="0" text-anchor="end">Outros</text></g></g></g></svg>