<svg xmlns="http://www.w3.org/2000/svg" width="1500" height="1500"><g transform="translate(750,750)"><g class="arc"><path d="M1.1021821192326179e-14,-180A180,180,0,0,1,158.40219671523644,85.491192972069L63.36087868609457,34.1964771888276A72,72,0,0,0,4.408728476930472e-15,-72Z" fill="#501D3C"></path><g class="arc-label" transform="translate(185.49301498757342,-110.6722250197395)" dy="0.35em"><text style="font-family: Raleway, sans-serif; font-size: 33px; font-weight: bold;" dy="-35" text-anchor="start">33%</text><text style="font-family: Raleway, sans-serif; font-size: 33px; font-weight: bold;" dy="0" text-anchor="start">Reputación</text></g></g><g class="arc"><path d="M158.40219671523644,85.491192972069A180,180,0,0,1,-67.98743373671358,166.666459894893L-27.19497349468543,66.6665839579572A72,72,0,0,0,63.36087868609457,34.1964771888276Z" fill="#7F2D6E"></path><g class="arc-label" transform="translate(72.90494631232856,203.32454058277492)" dy="0.35em"><text style="font-family: Raleway, sans-serif; font-size: 33px; font-weight: bold;" dy="0" text-anchor="start">23%</text><text style="font-family: Raleway, sans-serif; font-size: 33px; font-weight: bold;" dy="35" text-anchor="start">Alteración del</text><text style="font-family: Raleway, sans-serif; font-size: 33px; font-weight: bold;" dy="70" text-anchor="start">comportamiento del</text><text style="font-family: Raleway, sans-serif; font-size: 33px; font-weight: bold;" dy="105" text-anchor="start">consumidor</text></g></g><g class="arc"><path d="M-67.98743373671358,166.666459894893A180,180,0,0,1,-168.0907011881265,64.38568298996263L-67.23628047525061,25.754273195985053A72,72,0,0,0,-27.19497349468543,66.6665839579572Z" fill="#965084"></path><g class="arc-label" transform="translate(-154.3694513852795,151.08299864315586)" dy="0.35em"><text style="font-family: Raleway, sans-serif; font-size: 33px; font-weight: bold;" dy="0" text-anchor="end">13%</text><text style="font-family: Raleway, sans-serif; font-size: 33px; font-weight: bold;" dy="35" text-anchor="end">Condiciones</text><text style="font-family: Raleway, sans-serif; font-size: 33px; font-weight: bold;" dy="70" text-anchor="end">socioeconómicas</text><text style="font-family: Raleway, sans-serif; font-size: 33px; font-weight: bold;" dy="105" text-anchor="end">fluctuantes</text></g></g><g class="arc"><path d="M-151.28163106931387,57.947114690966366A162,162,0,0,1,-2.975891721928068e-14,-162L-1.3226185430791413e-14,-72A72,72,0,0,0,-67.23628047525061,25.754273195985053Z" fill="#A0A0A0"></path><g class="arc-label" transform="translate(-177.96736924363174,-122.40757935888136)" dy="0.35em"><text style="font-family: Raleway, sans-serif; font-size: 33px; font-weight: bold;" dy="0" text-anchor="end">Otros</text></g></g></g></svg>