<svg xmlns="http://www.w3.org/2000/svg" width="1500" height="1500"><g transform="translate(750,750)"><g class="arc"><path d="M1.1021821192326179e-14,-180A180,180,0,0,1,179.70996398921122,-10.214149156753324L71.88398559568449,-4.08565966270133A72,72,0,0,0,4.408728476930472e-15,-72Z" fill="#501D3C"></path><g class="arc-label" transform="translate(148.33828322211625,-157.00876959811904)" dy="0.35em"><text style="font-family: Raleway, sans-serif; font-size: 33px; font-weight: bold;" dy="-105" text-anchor="start">24%</text><text style="font-family: Raleway, sans-serif; font-size: 33px; font-weight: bold;" dy="-70" text-anchor="start">Cambio en los extremos</text><text style="font-family: Raleway, sans-serif; font-size: 33px; font-weight: bold;" dy="-35" text-anchor="start">de las precipitaciones</text><text style="font-family: Raleway, sans-serif; font-size: 33px; font-weight: bold;" dy="0" text-anchor="start">y de sequías</text></g></g><g class="arc"><path d="M179.70996398921122,-10.214149156753324A180,180,0,0,1,125.25614870254581,129.27063553725466L50.10245948101832,51.708254214901864A72,72,0,0,0,71.88398559568449,-4.08565966270133Z" fill="#7F2D6E"></path><g class="arc-label" transform="translate(201.2106374387892,78.55112590839241)" dy="0.35em"><text style="font-family: Raleway, sans-serif; font-size: 33px; font-weight: bold;" dy="0" text-anchor="start">14%</text><text style="font-family: Raleway, sans-serif; font-size: 33px; font-weight: bold;" dy="35" text-anchor="start">Cambio en la</text><text style="font-family: Raleway, sans-serif; font-size: 33px; font-weight: bold;" dy="70" text-anchor="start">precipitación promedio</text></g></g><g class="arc"><path d="M125.25614870254581,129.27063553725466A180,180,0,0,1,6.811465809180666,179.87107586693966L2.7245863236722663,71.94843034677587A72,72,0,0,0,50.10245948101832,51.708254214901864Z" fill="#965084"></path><g class="arc-label" transform="translate(84.85760644264809,198.63329687850586)" dy="0.35em"><text style="font-family: Raleway, sans-serif; font-size: 33px; font-weight: bold;" dy="0" text-anchor="start">12%</text><text style="font-family: Raleway, sans-serif; font-size: 33px; font-weight: bold;" dy="35" text-anchor="start">Alteración de la</text><text style="font-family: Raleway, sans-serif; font-size: 33px; font-weight: bold;" dy="70" text-anchor="start">temperatura promedio</text></g></g><g class="arc"><path d="M6.130319228262599,161.8839682802457A162,162,0,1,1,-2.975891721928068e-14,-162L-1.3226185430791413e-14,-72A72,72,0,1,0,2.7245863236722663,71.94843034677587Z" fill="#A0A0A0"></path><g class="arc-label" transform="translate(-215.96131929666336,4.087611484060086)" dy="0.35em"><text style="font-family: Raleway, sans-serif; font-size: 33px; font-weight: bold;" dy="0" text-anchor="end">Otros</text></g></g></g></svg>