<svg xmlns="http://www.w3.org/2000/svg" width="400" height="300"><defs><style type="text/css"><![CDATA[ @import url("https://fonts.googleapis.com/css?family=Raleway:700"); ]]></style></defs><g transform="translate(200,150)"><g class="arc"><path d="M3.67394039744206e-15,-60A60,60,0,0,1,59.52143557647626,-7.562982673217361L23.808574230590505,-3.0251930692869444A24,24,0,0,0,1.4695761589768238e-15,-24Z" fill="#006B85"></path><g class="arc-label" transform="translate(47.59494877103042,-54.02518719526097)" dy="0.35em"><text style="font-family: Raleway, sans-serif; font-size: 11px; font-weight: 700;" dy="-45" text-anchor="start">23%</text><text style="font-family: Raleway, sans-serif; font-size: 11px; font-weight: 700;" dy="-30" text-anchor="start">Regulamentação da</text><text style="font-family: Raleway, sans-serif; font-size: 11px; font-weight: 700;" dy="-15" text-anchor="start">qualidade/volume de</text><text style="font-family: Raleway, sans-serif; font-size: 11px; font-weight: 700;" dy="0" text-anchor="start">lançamentos, levando ao aumento dos custos de conformidade</text></g></g><g class="arc"><path d="M59.52143557647626,-7.562982673217361A60,60,0,0,1,27.142862205445617,53.509485432922936L10.857144882178247,21.403794173169175A24,24,0,0,0,23.808574230590505,-3.0251930692869444Z" fill="#13889B"></path><g class="arc-label" transform="translate(63.612867200113655,33.72540773038489)" dy="0.35em"><text style="font-family: Raleway, sans-serif; font-size: 11px; font-weight: 700;" dy="0" text-anchor="start">20%</text><text style="font-family: Raleway, sans-serif; font-size: 11px; font-weight: 700;" dy="15" text-anchor="start">Aumento no</text><text style="font-family: Raleway, sans-serif; font-size: 11px; font-weight: 700;" dy="30" text-anchor="start">preço da água</text></g></g><g class="arc"><path d="M27.142862205445617,53.509485432922936A60,60,0,0,1,-19.158091808158805,56.85919027096815L-7.6632367232635215,22.74367610838726A24,24,0,0,0,10.857144882178247,21.403794173169175Z" fill="#289DA3"></path><g class="arc-label" transform="translate(5.195358417644343,71.81231266929238)" dy="0.35em"><text style="font-family: Raleway, sans-serif; font-size: 11px; font-weight: 700;" dy="0" text-anchor="start">13%</text><text style="font-family: Raleway, sans-serif; font-size: 11px; font-weight: 700;" dy="15" text-anchor="start">Maior dificuldade</text><text style="font-family: Raleway, sans-serif; font-size: 11px; font-weight: 700;" dy="30" text-anchor="start">na obtenção de</text><text style="font-family: Raleway, sans-serif; font-size: 11px; font-weight: 700;" dy="45" text-anchor="start">licenças de captação</text><text style="font-family: Raleway, sans-serif; font-size: 11px; font-weight: 700;" dy="60" text-anchor="start">e operação</text></g></g><g class="arc"><path d="M-17.242282627342924,51.17327124387133A54,54,0,0,1,-9.91963907309356e-15,-54L-4.408728476930472e-15,-24A24,24,0,0,0,-7.6632367232635215,22.74367610838726Z" fill="#A0A0A0"></path><g class="arc-label" transform="translate(-71.0515096229899,-11.648303751799041)" dy="0.35em"><text style="font-family: Raleway, sans-serif; font-size: 11px; font-weight: 700;" dy="0" text-anchor="end">Outros</text></g></g></g></svg>