<svg xmlns="http://www.w3.org/2000/svg" width="400" height="300"><defs><style type="text/css"><![CDATA[ @import url("https://fonts.googleapis.com/css?family=Raleway:700"); ]]></style></defs><g transform="translate(200,150)"><g class="arc"><path d="M3.67394039744206e-15,-60A60,60,0,0,1,23.210982664850345,55.32856661555599L9.284393065940138,22.131426646222394A24,24,0,0,0,1.4695761589768238e-15,-24Z" fill="#006B85"></path><g class="arc-label" transform="translate(70.58465894082097,-14.205841129900799)" dy="0.35em"><text style="font-family: Raleway, sans-serif; font-size: 11px; font-weight: 700;" dy="0" text-anchor="start">44%</text><text style="font-family: Raleway, sans-serif; font-size: 11px; font-weight: 700;" dy="15" text-anchor="start">Custos operacionais</text><text style="font-family: Raleway, sans-serif; font-size: 11px; font-weight: 700;" dy="30" text-anchor="start">mais elevados</text></g></g><g class="arc"><path d="M23.210982664850345,55.32856661555599A60,60,0,0,1,-49.661339889413426,33.67122392174295L-19.86453595576537,13.46848956869718A24,24,0,0,0,9.284393065940138,22.131426646222394Z" fill="#13889B"></path><g class="arc-label" transform="translate(-20.51141829204238,69.01653221981577)" dy="0.35em"><text style="font-family: Raleway, sans-serif; font-size: 11px; font-weight: 700;" dy="0" text-anchor="end">22%</text><text style="font-family: Raleway, sans-serif; font-size: 11px; font-weight: 700;" dy="15" text-anchor="end">Interrupção da produção</text><text style="font-family: Raleway, sans-serif; font-size: 11px; font-weight: 700;" dy="30" text-anchor="end">das fábricas levando à</text><text style="font-family: Raleway, sans-serif; font-size: 11px; font-weight: 700;" dy="45" text-anchor="end">redução nas quantidades</text><text style="font-family: Raleway, sans-serif; font-size: 11px; font-weight: 700;" dy="60" text-anchor="end">produzidas</text></g></g><g class="arc"><path d="M-49.661339889413426,33.67122392174295A60,60,0,0,1,-54.90049409844074,-24.20610971938849L-21.960197639376297,-9.682443887755396A24,24,0,0,0,-19.86453595576537,13.46848956869718Z" fill="#289DA3"></path><g class="arc-label" transform="translate(-71.70681024471631,6.491021840068713)" dy="0.35em"><text style="font-family: Raleway, sans-serif; font-size: 11px; font-weight: 700;" dy="0" text-anchor="end">16%</text><text style="font-family: Raleway, sans-serif; font-size: 11px; font-weight: 700;" dy="15" text-anchor="end">Restrição ao</text><text style="font-family: Raleway, sans-serif; font-size: 11px; font-weight: 700;" dy="30" text-anchor="end">crescimento</text></g></g><g class="arc"><path d="M-49.41044468859666,-21.78549874744964A54,54,0,0,1,-9.91963907309356e-15,-54L-4.408728476930472e-15,-24A24,24,0,0,0,-21.960197639376297,-9.682443887755396Z" fill="#A0A0A0"></path><g class="arc-label" transform="translate(-39.32297115074617,-60.31338110135747)" dy="0.35em"><text style="font-family: Raleway, sans-serif; font-size: 11px; font-weight: 700;" dy="0" text-anchor="end">Outros</text></g></g></g></svg>