<svg xmlns="http://www.w3.org/2000/svg" width="400" height="300"><defs><style type="text/css"><![CDATA[ @import url("https://fonts.googleapis.com/css?family=Raleway:700"); ]]></style></defs><g transform="translate(200,150)"><g class="arc"><path d="M3.67394039744206e-15,-60A60,60,0,0,1,59.998053342991675,0.48331671968339285L23.999221337196673,0.19332668787335716A24,24,0,0,0,1.4695761589768238e-15,-24Z" fill="#006B85"></path><g class="arc-label" transform="translate(51.11633087664178,-50.70621971424884)" dy="0.35em"><text style="font-family: Raleway, sans-serif; font-size: 11px; font-weight: 700;" dy="-30" text-anchor="start">25%</text><text style="font-family: Raleway, sans-serif; font-size: 11px; font-weight: 700;" dy="-15" text-anchor="start">Maior escassez</text><text style="font-family: Raleway, sans-serif; font-size: 11px; font-weight: 700;" dy="0" text-anchor="start">de água</text></g></g><g class="arc"><path d="M59.998053342991675,0.48331671968339285A60,60,0,0,1,43.93611999586641,40.860951527207824L17.574447998346564,16.344380610883128A24,24,0,0,0,23.999221337196673,0.19332668787335716Z" fill="#13889B"></path><g class="arc-label" transform="translate(66.90111868198751,26.612784880553576)" dy="0.35em"><text style="font-family: Raleway, sans-serif; font-size: 11px; font-weight: 700;" dy="0" text-anchor="start">12%</text><text style="font-family: Raleway, sans-serif; font-size: 11px; font-weight: 700;" dy="15" text-anchor="start">Maior estresse</text><text style="font-family: Raleway, sans-serif; font-size: 11px; font-weight: 700;" dy="30" text-anchor="start">hídrico</text></g></g><g class="arc"><path d="M43.93611999586641,40.860951527207824A60,60,0,0,1,8.669342974153281,59.37038396706307L3.467737189661312,23.748153586825225A24,24,0,0,0,17.574447998346564,16.344380610883128Z" fill="#289DA3"></path><g class="arc-label" transform="translate(33.46006838715134,63.752833847031106)" dy="0.35em"><text style="font-family: Raleway, sans-serif; font-size: 11px; font-weight: 700;" dy="0" text-anchor="start">11%</text><text style="font-family: Raleway, sans-serif; font-size: 11px; font-weight: 700;" dy="15" text-anchor="start">Qualidade da água</text><text style="font-family: Raleway, sans-serif; font-size: 11px; font-weight: 700;" dy="30" text-anchor="start">em declínio</text></g></g><g class="arc"><path d="M8.669342974153281,59.37038396706307A60,60,0,0,1,-30.417591228815425,51.71818001280295L-12.16703649152617,20.68727200512118A24,24,0,0,0,3.467737189661312,23.748153586825225Z" fill="#58A4A8"></path><g class="arc-label" transform="translate(-13.833123649467005,70.65864908203777)" dy="0.35em"><text style="font-family: Raleway, sans-serif; font-size: 11px; font-weight: 700;" dy="0" text-anchor="end">11%</text><text style="font-family: Raleway, sans-serif; font-size: 11px; font-weight: 700;" dy="15" text-anchor="end">Mudanças</text><text style="font-family: Raleway, sans-serif; font-size: 11px; font-weight: 700;" dy="30" text-anchor="end">climáticas</text></g></g><g class="arc"><path d="M-27.375832105933885,46.54636201152265A54,54,0,0,1,-9.91963907309356e-15,-54L-4.408728476930472e-15,-24A24,24,0,0,0,-12.16703649152617,20.68727200512118Z" fill="#A0A0A0"></path><g class="arc-label" transform="translate(-69.47103984073571,-18.914931230298237)" dy="0.35em"><text style="font-family: Raleway, sans-serif; font-size: 11px; font-weight: 700;" dy="0" text-anchor="end">Outros</text></g></g></g></svg>