<svg xmlns="http://www.w3.org/2000/svg" width="1500" height="1500"><g transform="translate(750,750)"><g class="arc"><path d="M1.1021821192326179e-14,-180A180,180,0,1,1,-8.696408314591206,179.7898008298188L-3.478563325836482,71.91592033192752A72,72,0,1,0,4.408728476930472e-15,-72Z" fill="#006B85"></path><g class="arc-label" transform="translate(215.93693104132169,5.219368971004541)" dy="0.35em"><text style="font-family: Raleway, sans-serif; font-size: 33px; font-weight: bold;" dy="0" text-anchor="start">51%</text><text style="font-family: Raleway, sans-serif; font-size: 33px; font-weight: bold;" dy="35" text-anchor="start">Costos operativos</text><text style="font-family: Raleway, sans-serif; font-size: 33px; font-weight: bold;" dy="70" text-anchor="start">más elevados</text></g></g><g class="arc"><path d="M-8.696408314591206,179.7898008298188A180,180,0,0,1,-179.71391568622803,-10.144383112014623L-71.88556627449121,-4.057753244805849A72,72,0,0,0,-3.478563325836482,71.91592033192752Z" fill="#13889B"></path><g class="arc-label" transform="translate(-160.51928230311705,144.5322109735135)" dy="0.35em"><text style="font-family: Raleway, sans-serif; font-size: 33px; font-weight: bold;" dy="0" text-anchor="end">25%</text><text style="font-family: Raleway, sans-serif; font-size: 33px; font-weight: bold;" dy="35" text-anchor="end">Interrupción de la</text><text style="font-family: Raleway, sans-serif; font-size: 33px; font-weight: bold;" dy="70" text-anchor="end">producción/fábrica</text><text style="font-family: Raleway, sans-serif; font-size: 33px; font-weight: bold;" dy="105" text-anchor="end">conduciendo a la reducción</text><text style="font-family: Raleway, sans-serif; font-size: 33px; font-weight: bold;" dy="140" text-anchor="end">de las cantidades producidas</text></g></g><g class="arc"><path d="M-179.71391568622803,-10.144383112014623A180,180,0,0,1,-169.30936762830314,-61.10923034455678L-67.72374705132125,-24.443692137822712A72,72,0,0,0,-71.88556627449121,-4.057753244805849Z" fill="#289DA3"></path><g class="arc-label" transform="translate(-211.63478084112987,-43.20554985562538)" dy="0.35em"><text style="font-family: Raleway, sans-serif; font-size: 33px; font-weight: bold;" dy="0" text-anchor="end">5%</text><text style="font-family: Raleway, sans-serif; font-size: 33px; font-weight: bold;" dy="35" text-anchor="end">Interrupción en el</text><text style="font-family: Raleway, sans-serif; font-size: 33px; font-weight: bold;" dy="70" text-anchor="end">suministro de agua</text></g></g><g class="arc"><path d="M-152.3784308654728,-54.9983073101011A162,162,0,0,1,-2.975891721928068e-14,-162L-1.3226185430791413e-14,-72A72,72,0,0,0,-67.72374705132125,-24.443692137822712Z" fill="#A0A0A0"></path><g class="arc-label" transform="translate(-124.12994702063416,-176.77034890686434)" dy="0.35em"><text style="font-family: Raleway, sans-serif; font-size: 33px; font-weight: bold;" dy="0" text-anchor="end">Otros</text></g></g></g></svg>