<svg xmlns="http://www.w3.org/2000/svg" width="400" height="300"><defs><style type="text/css"><![CDATA[ @import url("https://fonts.googleapis.com/css?family=Raleway:700"); ]]></style></defs><g transform="translate(200,150)"><g class="arc"><path d="M3.67394039744206e-15,-60A60,60,0,0,1,42.42640687119285,-42.426406871192846L16.970562748477143,-16.97056274847714A24,24,0,0,0,1.4695761589768238e-15,-24Z" fill="#006B85"></path><g class="arc-label" transform="translate(26.4051568331912,-63.74768774327878)" dy="0.35em" style="position: relative; z-index: 999;"><text style="font-family: Raleway, sans-serif; font-size: 11px; font-weight: 700;" dy="0" text-anchor="start">13%</text><text style="font-family: Raleway, sans-serif; font-size: 11px; font-weight: 700;" dy="15" text-anchor="start">Redução de custos</text></g></g><g class="arc"><path d="M42.42640687119285,-42.426406871192846A60,60,0,0,1,59.95374217444338,-2.355588945544117L23.98149686977735,-0.9422355782176466A24,24,0,0,0,16.970562748477143,-16.97056274847714Z" fill="#13889B"></path><g class="arc-label" transform="translate(63.21696904108237,-27.65166948411673)" dy="0.35em" style="position: relative; z-index: 999;"><text style="font-family: Raleway, sans-serif; font-size: 11px; font-weight: 700;" dy="0" text-anchor="start">12%</text><text style="font-family: Raleway, sans-serif; font-size: 11px; font-weight: 700;" dy="15" text-anchor="start">Melhor eficiência</text><text style="font-family: Raleway, sans-serif; font-size: 11px; font-weight: 700;" dy="30" text-anchor="start">hídrica</text></g></g><g class="arc"><path d="M59.95374217444338,-2.355588945544117A60,60,0,0,1,51.15840986124554,31.349913882956926L20.463363944498216,12.539965553182771A24,24,0,0,0,23.98149686977735,-0.9422355782176466Z" fill="#289DA3"></path><g class="arc-label" transform="translate(66.76433737285792,17.421918814045906)" dy="0.35em" style="position: relative; z-index: 999;"><text style="font-family: Raleway, sans-serif; font-size: 11px; font-weight: 700;" dy="0" text-anchor="start">9%</text><text style="font-family: Raleway, sans-serif; font-size: 11px; font-weight: 700;" dy="15" text-anchor="start">Aumento no</text><text style="font-family: Raleway, sans-serif; font-size: 11px; font-weight: 700;" dy="30" text-anchor="start">valor da marca</text></g></g><g class="arc"><path d="M51.15840986124554,31.349913882956926A60,60,0,0,1,31.349913882956933,51.15840986124553L12.539965553182775,20.463363944498212A24,24,0,0,0,20.463363944498216,12.539965553182771Z" fill="#58A4A8"></path><g class="arc-label" transform="translate(48.79036790187178,48.790367901871775)" dy="0.35em" style="position: relative; z-index: 999;"><text style="font-family: Raleway, sans-serif; font-size: 11px; font-weight: 700;" dy="0" text-anchor="start">8%</text><text style="font-family: Raleway, sans-serif; font-size: 11px; font-weight: 700;" dy="15" text-anchor="start">Inovação</text></g></g><g class="arc"><path d="M31.349913882956933,51.15840986124553A60,60,0,0,1,9.386067902413856,59.261300435708264L3.754427160965542,23.704520174283306A24,24,0,0,0,12.539965553182775,20.463363944498212Z" fill="#6AB6BA"></path><g class="arc-label" transform="translate(23.882076938347033,64.7352021786514)" dy="0.35em" style="position: relative; z-index: 999;"><text style="font-family: Raleway, sans-serif; font-size: 11px; font-weight: 700;" dy="0" text-anchor="start">6%</text><text style="font-family: Raleway, sans-serif; font-size: 11px; font-weight: 700;" dy="15" text-anchor="start">Adaptação às</text><text style="font-family: Raleway, sans-serif; font-size: 11px; font-weight: 700;" dy="30" text-anchor="start">Mudanças Climáticas</text></g></g><g class="arc"><path d="M9.386067902413856,59.261300435708264A60,60,0,0,1,-14.00672183135432,58.3421952238606L-5.602688732541728,23.33687808954424A24,24,0,0,0,3.754427160965542,23.704520174283306Z" fill="#7FCAD1"></path><g class="arc-label" transform="translate(-2.708927287375745,68.94680350060987)" dy="0.35em" style="position: relative; z-index: 999;"><text style="font-family: Raleway, sans-serif; font-size: 11px; font-weight: 700;" dy="0" text-anchor="end">6%</text><text style="font-family: Raleway, sans-serif; font-size: 11px; font-weight: 700;" dy="15" text-anchor="end">Melhoria na relação</text><text style="font-family: Raleway, sans-serif; font-size: 11px; font-weight: 700;" dy="30" text-anchor="end">com a comunidade</text></g></g><g class="arc"><path d="M-12.606049648218889,52.50797570147454A54,54,0,0,1,-9.91963907309356e-15,-54L-4.408728476930472e-15,-24A24,24,0,0,0,-5.602688732541728,23.33687808954424Z" fill="#A0A0A0"></path><g class="arc-label" transform="translate(-68.52172352988991,-8.110080424590773)" dy="0.35em" style="position: relative; z-index: 999;"><text style="font-family: Raleway, sans-serif; font-size: 11px; font-weight: 700;" dy="0" text-anchor="end">Outros</text></g></g></g></svg>