<svg xmlns="http://www.w3.org/2000/svg" width="1200" height="900"><defs><style type="text/css"><![CDATA[ @import url("https://fonts.googleapis.com/css?family=Raleway:700"); ]]></style></defs><g transform="translate(600,450)"><g class="arc"><path d="M1.1021821192326179e-14,-180A180,180,0,0,1,179.99416002897505,1.4499501590501787L71.99766401159002,0.5799800636200715A72,72,0,0,0,4.408728476930472e-15,-72Z" fill="#006B85"></path><g class="arc-label" transform="translate(153.34899262992536,-152.1186591427465)" dy="0.35em"><text style="font-family: Raleway, sans-serif; font-size: 33px; font-weight: 700;" dy="-70" text-anchor="start">25%</text><text style="font-family: Raleway, sans-serif; font-size: 33px; font-weight: 700;" dy="-35" text-anchor="start">Maior escassez</text><text style="font-family: Raleway, sans-serif; font-size: 33px; font-weight: 700;" dy="0" text-anchor="start">de água</text></g></g><g class="arc"><path d="M179.99416002897505,1.4499501590501787A180,180,0,0,1,131.80835998759923,122.58285458162347L52.7233439950397,49.033141832649385A72,72,0,0,0,71.99766401159002,0.5799800636200715Z" fill="#13889B"></path><g class="arc-label" transform="translate(200.70335604596255,79.83835464166073)" dy="0.35em"><text style="font-family: Raleway, sans-serif; font-size: 33px; font-weight: 700;" dy="0" text-anchor="start">12%</text><text style="font-family: Raleway, sans-serif; font-size: 33px; font-weight: 700;" dy="35" text-anchor="start">Maior estresse</text><text style="font-family: Raleway, sans-serif; font-size: 33px; font-weight: 700;" dy="70" text-anchor="start">hídrico</text></g></g><g class="arc"><path d="M131.80835998759923,122.58285458162347A180,180,0,0,1,26.008028922459843,178.1111519011892L10.403211568983936,71.24446076047568A72,72,0,0,0,52.7233439950397,49.033141832649385Z" fill="#289DA3"></path><g class="arc-label" transform="translate(100.38020516145401,191.25850154109332)" dy="0.35em"><text style="font-family: Raleway, sans-serif; font-size: 33px; font-weight: 700;" dy="0" text-anchor="start">11%</text><text style="font-family: Raleway, sans-serif; font-size: 33px; font-weight: 700;" dy="35" text-anchor="start">Qualidade da água</text><text style="font-family: Raleway, sans-serif; font-size: 33px; font-weight: 700;" dy="70" text-anchor="start">em declínio</text></g></g><g class="arc"><path d="M26.008028922459843,178.1111519011892A180,180,0,0,1,-91.25277368644628,155.15454003840884L-36.50110947457851,62.06181601536354A72,72,0,0,0,10.403211568983936,71.24446076047568Z" fill="#58A4A8"></path><g class="arc-label" transform="translate(-41.499370948401015,211.9759472461133)" dy="0.35em"><text style="font-family: Raleway, sans-serif; font-size: 33px; font-weight: 700;" dy="0" text-anchor="end">11%</text><text style="font-family: Raleway, sans-serif; font-size: 33px; font-weight: 700;" dy="35" text-anchor="end">Mudanças</text><text style="font-family: Raleway, sans-serif; font-size: 33px; font-weight: 700;" dy="70" text-anchor="end">climáticas</text></g></g><g class="arc"><path d="M-82.12749631780164,139.63908603456795A162,162,0,0,1,-2.975891721928068e-14,-162L-1.3226185430791413e-14,-72A72,72,0,0,0,-36.50110947457851,62.06181601536354Z" fill="#A0A0A0"></path><g class="arc-label" transform="translate(-208.41311952220713,-56.74479369089472)" dy="0.35em"><text style="font-family: Raleway, sans-serif; font-size: 33px; font-weight: 700;" dy="0" text-anchor="end">Outros</text></g></g></g></svg>