<svg xmlns="http://www.w3.org/2000/svg" width="1500" height="1500"><g transform="translate(750,750)"><g class="arc"><path d="M1.1021821192326179e-14,-180A180,180,0,0,1,37.42410434719666,176.06656813208502L14.969641738878664,70.42662725283401A72,72,0,0,0,4.408728476930472e-15,-72Z" fill="#006B85"></path><g class="arc-label" transform="translate(214.81672939954703,-22.57814806581313)" dy="0.35em"><text style="font-family: Raleway, sans-serif; font-size: 33px; font-weight: bold;" dy="0" text-anchor="start">47%</text><text style="font-family: Raleway, sans-serif; font-size: 33px; font-weight: bold;" dy="35" text-anchor="start">Cobertura negativa</text><text style="font-family: Raleway, sans-serif; font-size: 33px; font-weight: bold;" dy="70" text-anchor="start">de los medios</text></g></g><g class="arc"><path d="M37.42410434719666,176.06656813208502A180,180,0,0,1,-171.19017293312766,-55.62305898749051L-68.47606917325106,-22.249223594996206A72,72,0,0,0,14.969641738878664,70.42662725283401Z" fill="#13889B"></path><g class="arc-label" transform="translate(-160.5192823031172,144.53221097351334)" dy="0.35em"><text style="font-family: Raleway, sans-serif; font-size: 33px; font-weight: bold;" dy="0" text-anchor="end">33%</text><text style="font-family: Raleway, sans-serif; font-size: 33px; font-weight: bold;" dy="35" text-anchor="end">Oposición de</text><text style="font-family: Raleway, sans-serif; font-size: 33px; font-weight: bold;" dy="70" text-anchor="end">la comunidad</text></g></g><g class="arc"><path d="M-171.19017293312766,-55.62305898749051A180,180,0,0,1,-73.21259575364402,-164.43818237566816L-29.285038301457607,-65.77527295026727A72,72,0,0,0,-68.47606917325106,-22.249223594996206Z" fill="#289DA3"></path><g class="arc-label" transform="translate(-160.51928230311708,-144.53221097351346)" dy="0.35em"><text style="font-family: Raleway, sans-serif; font-size: 33px; font-weight: bold;" dy="0" text-anchor="end">13%</text><text style="font-family: Raleway, sans-serif; font-size: 33px; font-weight: bold;" dy="35" text-anchor="end">Acceso inadecuado</text><text style="font-family: Raleway, sans-serif; font-size: 33px; font-weight: bold;" dy="70" text-anchor="end">al agua, saneamiento</text><text style="font-family: Raleway, sans-serif; font-size: 33px; font-weight: bold;" dy="105" text-anchor="end">e higiene</text></g></g><g class="arc"><path d="M-73.21259575364402,-164.43818237566816A180,180,0,0,1,-3.3065463576978534e-14,-180L-1.3226185430791413e-14,-72A72,72,0,0,0,-29.285038301457607,-65.77527295026727Z" fill="#58A4A8"></path><g class="arc-label" transform="translate(-44.90892521663593,-211.27988175850203)" dy="0.35em"><text style="font-family: Raleway, sans-serif; font-size: 33px; font-weight: bold;" dy="-70" text-anchor="end">7%</text><text style="font-family: Raleway, sans-serif; font-size: 33px; font-weight: bold;" dy="-35" text-anchor="end">Valores culturales</text><text style="font-family: Raleway, sans-serif; font-size: 33px; font-weight: bold;" dy="0" text-anchor="end">y religiosos</text></g></g></g></svg>