<svg xmlns="http://www.w3.org/2000/svg" width="400" height="300"><defs><style type="text/css"><![CDATA[ @import url("https://fonts.googleapis.com/css?family=Raleway:700"); ]]></style></defs><g transform="translate(200,150)"><g class="arc"><path d="M3.67394039744206e-15,-60A60,60,0,1,1,-2.8988027715304017,59.929933609939596L-1.1595211086121608,23.97197344397584A24,24,0,1,0,1.4695761589768238e-15,-24Z" fill="#006B85"></path><g class="arc-label" transform="translate(71.97897701377389,1.7397896570015137)" dy="0.35em"><text style="font-family: Raleway, sans-serif; font-size: 11px; font-weight: 700;" dy="0" text-anchor="start">51%</text><text style="font-family: Raleway, sans-serif; font-size: 11px; font-weight: 700;" dy="15" text-anchor="start">Custos operacionais</text><text style="font-family: Raleway, sans-serif; font-size: 11px; font-weight: 700;" dy="30" text-anchor="start">mais elevados</text></g></g><g class="arc"><path d="M-2.8988027715304017,59.929933609939596A60,60,0,0,1,-59.90463856207601,-3.381461037338208L-23.961855424830404,-1.3525844149352833A24,24,0,0,0,-1.1595211086121608,23.97197344397584Z" fill="#13889B"></path><g class="arc-label" transform="translate(-53.506427434372355,48.17740365783783)" dy="0.35em"><text style="font-family: Raleway, sans-serif; font-size: 11px; font-weight: 700;" dy="0" text-anchor="end">25%</text><text style="font-family: Raleway, sans-serif; font-size: 11px; font-weight: 700;" dy="15" text-anchor="end">Interrupção da produção</text><text style="font-family: Raleway, sans-serif; font-size: 11px; font-weight: 700;" dy="30" text-anchor="end">das fábricas levando à</text><text style="font-family: Raleway, sans-serif; font-size: 11px; font-weight: 700;" dy="45" text-anchor="end">redução nas quantidades</text><text style="font-family: Raleway, sans-serif; font-size: 11px; font-weight: 700;" dy="60" text-anchor="end">produzidas</text></g></g><g class="arc"><path d="M-59.90463856207601,-3.381461037338208A60,60,0,0,1,-56.43645587610104,-20.36974344818559L-22.574582350440416,-8.147897379274237A24,24,0,0,0,-23.961855424830404,-1.3525844149352833Z" fill="#289DA3"></path><g class="arc-label" transform="translate(-70.5449269470433,-14.401849951875125)" dy="0.35em"><text style="font-family: Raleway, sans-serif; font-size: 11px; font-weight: 700;" dy="0" text-anchor="end">5%</text><text style="font-family: Raleway, sans-serif; font-size: 11px; font-weight: 700;" dy="15" text-anchor="end">Interrupção no</text><text style="font-family: Raleway, sans-serif; font-size: 11px; font-weight: 700;" dy="30" text-anchor="end">abastecimento de água</text></g></g><g class="arc"><path d="M-50.79281028849094,-18.33276910336703A54,54,0,0,1,-9.91963907309356e-15,-54L-4.408728476930472e-15,-24A24,24,0,0,0,-22.574582350440416,-8.147897379274237Z" fill="#A0A0A0"></path><g class="arc-label" transform="translate(-41.376649006878054,-58.923449635621445)" dy="0.35em"><text style="font-family: Raleway, sans-serif; font-size: 11px; font-weight: 700;" dy="0" text-anchor="end">Outros</text></g></g></g></svg>