<svg xmlns="http://www.w3.org/2000/svg" width="1500" height="1500"><g transform="translate(750,750)"><g class="arc"><path d="M1.1021821192326179e-14,-180A180,180,0,0,1,159.51664426161867,-83.3932863215751L63.80665770464746,-33.35731452863004A72,72,0,0,0,4.408728476930472e-15,-72Z" fill="#501D3C"></path><g class="arc-label" transform="translate(111.89383402459612,-184.75868019466944)" dy="0.35em"><text style="font-family: Raleway, sans-serif; font-size: 33px; font-weight: bold;" dy="-70" text-anchor="start">17%</text><text style="font-family: Raleway, sans-serif; font-size: 33px; font-weight: bold;" dy="-35" text-anchor="start">Reglamentación sobre</text><text style="font-family: Raleway, sans-serif; font-size: 33px; font-weight: bold;" dy="0" text-anchor="start">energía renovable</text></g></g><g class="arc"><path d="M159.51664426161867,-83.3932863215751A180,180,0,0,1,170.39686682082535,58.00782514149199L68.15874672833014,23.203130056596798A72,72,0,0,0,63.80665770464746,-33.35731452863004Z" fill="#7F2D6E"></path><g class="arc-label" transform="translate(215.36339448101478,-16.571310075392848)" dy="0.35em"><text style="font-family: Raleway, sans-serif; font-size: 33px; font-weight: bold;" dy="-70" text-anchor="start">13%</text><text style="font-family: Raleway, sans-serif; font-size: 33px; font-weight: bold;" dy="-35" text-anchor="start">Reglamentos ambientales</text><text style="font-family: Raleway, sans-serif; font-size: 33px; font-weight: bold;" dy="0" text-anchor="start">generales, incluyendo planificación</text></g></g><g class="arc"><path d="M170.39686682082535,58.00782514149199A180,180,0,0,1,75.50137484031184,163.39994613592359L30.200549936124734,65.35997845436944A72,72,0,0,0,68.15874672833014,23.203130056596798Z" fill="#965084"></path><g class="arc-label" transform="translate(160.51928230311714,144.53221097351337)" dy="0.35em"><text style="font-family: Raleway, sans-serif; font-size: 33px; font-weight: bold;" dy="0" text-anchor="start">13%</text><text style="font-family: Raleway, sans-serif; font-size: 33px; font-weight: bold;" dy="35" text-anchor="start">Regímenes de Cap</text><text style="font-family: Raleway, sans-serif; font-size: 33px; font-weight: bold;" dy="70" text-anchor="start">and Trade</text></g></g><g class="arc"><path d="M67.95123735628066,147.05995152233123A162,162,0,1,1,-2.975891721928068e-14,-162L-1.3226185430791413e-14,-72A72,72,0,1,0,30.200549936124734,65.35997845436944Z" fill="#A0A0A0"></path><g class="arc-label" transform="translate(-210.96121212018028,46.382830668085646)" dy="0.35em"><text style="font-family: Raleway, sans-serif; font-size: 33px; font-weight: bold;" dy="0" text-anchor="end">Otros</text></g></g></g></svg>