<svg xmlns="http://www.w3.org/2000/svg" width="1500" height="1500"><g transform="translate(750,750)"><g class="arc"><path d="M1.1021821192326179e-14,-180A180,180,0,0,1,178.56430672942878,-22.688948019652084L71.42572269177151,-9.075579207860834A72,72,0,0,0,4.408728476930472e-15,-72Z" fill="#006B85"></path><g class="arc-label" transform="translate(142.78484631309126,-162.0755615857829)" dy="0.35em"><text style="font-family: Raleway, sans-serif; font-size: 33px; font-weight: bold;" dy="-175" text-anchor="start">23%</text><text style="font-family: Raleway, sans-serif; font-size: 33px; font-weight: bold;" dy="-140" text-anchor="start">Reglamentaci贸n de la</text><text style="font-family: Raleway, sans-serif; font-size: 33px; font-weight: bold;" dy="-105" text-anchor="start">calidad/volumen de</text><text style="font-family: Raleway, sans-serif; font-size: 33px; font-weight: bold;" dy="-70" text-anchor="start">lanzamientos, conduciendo</text><text style="font-family: Raleway, sans-serif; font-size: 33px; font-weight: bold;" dy="-35" text-anchor="start">al aumento de los costos</text><text style="font-family: Raleway, sans-serif; font-size: 33px; font-weight: bold;" dy="0" text-anchor="start">de conformidad</text></g></g><g class="arc"><path d="M178.56430672942878,-22.688948019652084A180,180,0,0,1,81.42858661633686,160.52845629876882L32.57143464653474,64.21138251950752A72,72,0,0,0,71.42572269177151,-9.075579207860834Z" fill="#13889B"></path><g class="arc-label" transform="translate(190.83860160034095,101.17622319115466)" dy="0.35em"><text style="font-family: Raleway, sans-serif; font-size: 33px; font-weight: bold;" dy="0" text-anchor="start">20%</text><text style="font-family: Raleway, sans-serif; font-size: 33px; font-weight: bold;" dy="35" text-anchor="start">Aumento en el</text><text style="font-family: Raleway, sans-serif; font-size: 33px; font-weight: bold;" dy="70" text-anchor="start">precio del agua</text></g></g><g class="arc"><path d="M81.42858661633686,160.52845629876882A180,180,0,0,1,-57.47427542447641,170.57757081290444L-22.989710169790563,68.23102832516177A72,72,0,0,0,32.57143464653474,64.21138251950752Z" fill="#289DA3"></path><g class="arc-label" transform="translate(15.586075252933028,215.43693800787716)" dy="0.35em"><text style="font-family: Raleway, sans-serif; font-size: 33px; font-weight: bold;" dy="0" text-anchor="start">13%</text><text style="font-family: Raleway, sans-serif; font-size: 33px; font-weight: bold;" dy="35" text-anchor="start">Mayor dificultad</text><text style="font-family: Raleway, sans-serif; font-size: 33px; font-weight: bold;" dy="70" text-anchor="start">en la obtenci贸n de</text><text style="font-family: Raleway, sans-serif; font-size: 33px; font-weight: bold;" dy="105" text-anchor="start">licencias para la captaci贸n</text><text style="font-family: Raleway, sans-serif; font-size: 33px; font-weight: bold;" dy="140" text-anchor="start">y operaci贸n</text></g></g><g class="arc"><path d="M-51.72684788202877,153.519813731614A162,162,0,0,1,-2.975891721928068e-14,-162L-1.3226185430791413e-14,-72A72,72,0,0,0,-22.989710169790563,68.23102832516177Z" fill="#A0A0A0"></path><g class="arc-label" transform="translate(-213.15452886896966,-34.94491125539712)" dy="0.35em"><text style="font-family: Raleway, sans-serif; font-size: 33px; font-weight: bold;" dy="0" text-anchor="end">Otros</text></g></g></g></svg>