<?xml version="1.0" encoding="utf-8"?>
<!-- Generator: Adobe Illustrator 16.0.0, SVG Export Plug-In . SVG Version: 6.00 Build 0)  -->
<!DOCTYPE svg PUBLIC "-//W3C//DTD SVG 1.1//EN" "http://www.w3.org/Graphics/SVG/1.1/DTD/svg11.dtd">
<svg version="1.1" xmlns="http://www.w3.org/2000/svg" xmlns:xlink="http://www.w3.org/1999/xlink" x="0px" y="0px" width="82px"
	 height="34px" viewBox="0 0 82 34" enable-background="new 0 0 82 34" xml:space="preserve">
<g id="cidade_boa">
</g>
<g id="cidade_ruim">
</g>
<g id="Layer_1">
	<g>
		<g>
			<path fill="#FFFFFF" d="M71.312,18.402v-5.022h2.794c1.807,0,2.933,0.867,2.933,2.486v0.047c0,1.408-1.055,2.489-2.863,2.489
				H71.312z M67.7,26.545h3.612v-4.929h2.747c3.684,0,6.642-1.972,6.642-5.772v-0.049c0-3.354-2.37-5.679-6.291-5.679h-7.882v3.272
				l1.172-0.022V26.545z M53.663,23.284v-9.904h2.794c2.957,0,4.952,2.041,4.952,4.951v0.047c0,2.91-1.995,4.906-4.952,4.906H53.663
				z M50.048,26.545h6.408c5.163,0,8.731-3.591,8.731-8.215v-0.047c0-4.623-3.568-8.167-8.731-8.167h-7.6v3.292l1.191-0.02V26.545z
				 M41.131,26.827c3.168,0,5.046-1.126,6.736-2.934l-2.3-2.322c-1.292,1.174-2.441,1.924-4.318,1.924
				c-2.816,0-4.765-2.349-4.765-5.164v-0.047c0-2.816,1.996-5.115,4.765-5.115c1.643,0,2.934,0.703,4.2,1.853l2.302-2.651
				c-1.526-1.502-3.38-2.534-6.479-2.534c-5.045,0-8.566,3.825-8.566,8.495v0.047C32.706,23.095,36.296,26.827,41.131,26.827"/>
		</g>
		<g>
			<polyline fill="#FFFFFF" points="11.81,0.15 25.188,0.15 25.188,13.694 			"/>
		</g>
		<g>
			<polyline fill="#FFFFFF" points="11.797,13.698 25.194,13.698 25.194,27.153 			"/>
		</g>
		<g>
			<polyline fill="#FFFFFF" points="3.729,5.682 11.81,5.682 11.81,13.711 			"/>
		</g>
		<g>
			<polyline fill="#FFFFFF" points="25.182,13.698 30.84,13.698 30.84,19.357 			"/>
		</g>
		<g>
			<polyline fill="#FFFFFF" points="0.49,13.706 11.81,13.706 11.81,25.024 			"/>
		</g>
		<g>
			<polygon fill="#FFFFFF" points="79.824,10.163 79.468,10.163 79.468,10.043 80.324,10.043 80.324,10.163 79.966,10.163 
				79.966,11.112 79.824,11.112 			"/>
		</g>
		<g>
			<polygon fill="#FFFFFF" points="80.444,10.043 80.638,10.043 80.976,10.942 81.315,10.043 81.51,10.043 81.51,11.112 
				81.375,11.112 81.375,10.222 81.372,10.222 81.038,11.112 80.916,11.112 80.583,10.222 80.579,10.222 80.579,11.112 
				80.444,11.112 			"/>
		</g>
		<g>
			<path fill="#FFFFFF" d="M4.863,30.627h1.224c1.124,0,1.779,0.65,1.779,1.562v0.009c0,0.912-0.663,1.589-1.796,1.589H4.863V30.627
				z M5.739,31.399v1.611h0.357c0.529,0,0.876-0.289,0.876-0.799v-0.01c0-0.506-0.347-0.803-0.876-0.803H5.739z"/>
			<path fill="#FFFFFF" d="M8.382,30.627h0.876v3.159H8.382V30.627z"/>
			<path fill="#FFFFFF" d="M9.66,33.317l0.488-0.582c0.316,0.248,0.659,0.379,1.025,0.379c0.239,0,0.365-0.081,0.365-0.217v-0.008
				c0-0.137-0.104-0.204-0.537-0.308c-0.673-0.153-1.192-0.343-1.192-0.989v-0.008c0-0.588,0.465-1.012,1.223-1.012
				c0.537,0,0.957,0.145,1.301,0.42l-0.438,0.619c-0.289-0.209-0.605-0.312-0.885-0.312c-0.212,0-0.315,0.086-0.315,0.203v0.009
				c0,0.146,0.107,0.208,0.55,0.308c0.722,0.158,1.174,0.393,1.174,0.984v0.008c0,0.646-0.511,1.031-1.278,1.031
				C10.581,33.842,10.052,33.665,9.66,33.317z"/>
			<path fill="#FFFFFF" d="M12.737,32.215v-0.009c0-0.921,0.704-1.644,1.661-1.644c0.646,0,1.062,0.271,1.342,0.655l-0.659,0.51
				c-0.181-0.222-0.389-0.37-0.691-0.37c-0.442,0-0.754,0.379-0.754,0.84v0.009c0,0.475,0.312,0.845,0.754,0.845
				c0.329,0,0.524-0.154,0.713-0.385l0.659,0.471c-0.298,0.41-0.7,0.713-1.395,0.713C13.464,33.85,12.737,33.161,12.737,32.215z"/>
			<path fill="#FFFFFF" d="M16.139,30.627h0.876v2.393h1.531v0.767h-2.407V30.627z"/>
			<path fill="#FFFFFF" d="M18.703,32.215v-0.009c0-0.907,0.731-1.644,1.706-1.644c0.975,0,1.698,0.729,1.698,1.635v0.009
				c0,0.907-0.731,1.644-1.707,1.644C19.425,33.85,18.703,33.124,18.703,32.215z M21.208,32.215v-0.009
				c0-0.46-0.325-0.853-0.807-0.853c-0.484,0-0.804,0.389-0.804,0.844v0.009c0,0.456,0.33,0.854,0.812,0.854
				C20.887,33.061,21.208,32.671,21.208,32.215z"/>
			<path fill="#FFFFFF" d="M22.299,33.317l0.488-0.582c0.315,0.248,0.659,0.379,1.024,0.379c0.239,0,0.366-0.081,0.366-0.217v-0.008
				c0-0.137-0.104-0.204-0.538-0.308c-0.672-0.153-1.191-0.343-1.191-0.989v-0.008c0-0.588,0.465-1.012,1.224-1.012
				c0.537,0,0.957,0.145,1.3,0.42l-0.438,0.619c-0.289-0.209-0.605-0.312-0.885-0.312c-0.212,0-0.316,0.086-0.316,0.203v0.009
				c0,0.146,0.108,0.208,0.55,0.308c0.723,0.158,1.174,0.393,1.174,0.984v0.008c0,0.646-0.51,1.031-1.278,1.031
				C23.22,33.842,22.691,33.665,22.299,33.317z"/>
			<path fill="#FFFFFF" d="M25.511,32.401v-1.773h0.886v1.756c0,0.455,0.229,0.672,0.582,0.672c0.356,0,0.587-0.207,0.587-0.649
				v-1.778h0.885v1.751c0,1.017-0.582,1.468-1.481,1.468C26.076,33.846,25.511,33.389,25.511,32.401z"/>
			<path fill="#FFFFFF" d="M29.031,30.627h1.495c0.482,0,0.816,0.125,1.029,0.338c0.185,0.186,0.28,0.424,0.28,0.736v0.01
				c0,0.486-0.257,0.807-0.65,0.974l0.754,1.102h-1.007l-0.636-0.956h-0.389v0.956h-0.876V30.627z M30.489,32.143
				c0.293,0,0.47-0.145,0.47-0.374V31.76c0-0.254-0.186-0.379-0.475-0.379h-0.578v0.762H30.489z"/>
			<path fill="#FFFFFF" d="M32.343,30.627h2.542v0.739H33.21v0.483h1.517v0.691H33.21v0.5h1.698v0.745h-2.564V30.627z"/>
			<path fill="#FFFFFF" d="M37.55,30.627h0.875v3.159H37.55V30.627z"/>
			<path fill="#FFFFFF" d="M39.071,30.627h0.817l1.301,1.67v-1.67h0.867v3.159h-0.763l-1.354-1.733v1.733h-0.867V30.627z"/>
			<path fill="#FFFFFF" d="M42.442,33.317l0.487-0.582c0.316,0.248,0.659,0.379,1.025,0.379c0.239,0,0.366-0.081,0.366-0.217v-0.008
				c0-0.137-0.104-0.204-0.538-0.308c-0.672-0.153-1.192-0.343-1.192-0.989v-0.008c0-0.588,0.466-1.012,1.224-1.012
				c0.537,0,0.957,0.145,1.3,0.42l-0.438,0.619c-0.289-0.209-0.605-0.312-0.885-0.312c-0.212,0-0.315,0.086-0.315,0.203v0.009
				c0,0.146,0.107,0.208,0.55,0.308c0.723,0.158,1.174,0.393,1.174,0.984v0.008c0,0.646-0.51,1.031-1.278,1.031
				C43.363,33.842,42.834,33.665,42.442,33.317z"/>
			<path fill="#FFFFFF" d="M45.708,30.627h0.876v3.159h-0.876V30.627z"/>
			<path fill="#FFFFFF" d="M47.058,32.215v-0.009c0-0.921,0.723-1.644,1.697-1.644c0.556,0,0.948,0.167,1.282,0.457l-0.515,0.623
				c-0.226-0.19-0.447-0.299-0.763-0.299c-0.456,0-0.808,0.379-0.808,0.862v0.009c0,0.516,0.356,0.881,0.858,0.881
				c0.217,0,0.379-0.045,0.506-0.131v-0.384h-0.619v-0.64h1.449v1.416c-0.334,0.28-0.795,0.492-1.373,0.492
				C47.79,33.85,47.058,33.173,47.058,32.215z"/>
			<path fill="#FFFFFF" d="M50.695,30.627h0.876v1.182h1.124v-1.182h0.876v3.159h-0.876v-1.2h-1.124v1.2h-0.876V30.627z"/>
			<path fill="#FFFFFF" d="M54.959,31.395h-0.944v-0.768h2.768v0.768h-0.949v2.392h-0.875V31.395z"/>
			<path fill="#FFFFFF" d="M59.846,30.604h0.844l1.346,3.183h-0.939l-0.226-0.568h-1.223l-0.227,0.568h-0.916L59.846,30.604z
				 M60.614,32.537l-0.353-0.894l-0.356,0.894H60.614z"/>
			<path fill="#FFFFFF" d="M62.048,32.215v-0.009c0-0.921,0.704-1.644,1.661-1.644c0.646,0,1.061,0.271,1.341,0.655l-0.659,0.51
				c-0.181-0.222-0.389-0.37-0.69-0.37c-0.443,0-0.754,0.379-0.754,0.84v0.009c0,0.475,0.312,0.845,0.754,0.845
				c0.329,0,0.523-0.154,0.713-0.385l0.659,0.471c-0.298,0.41-0.7,0.713-1.396,0.713C62.774,33.85,62.048,33.161,62.048,32.215z"/>
			<path fill="#FFFFFF" d="M66.186,31.395h-0.943v-0.768h2.767v0.768h-0.948v2.392h-0.875V31.395z"/>
			<path fill="#FFFFFF" d="M68.482,30.627h0.876v3.159h-0.876V30.627z"/>
			<path fill="#FFFFFF" d="M69.832,32.215v-0.009c0-0.907,0.731-1.644,1.706-1.644c0.976,0,1.698,0.729,1.698,1.635v0.009
				c0,0.907-0.731,1.644-1.706,1.644C70.554,33.85,69.832,33.124,69.832,32.215z M72.337,32.215v-0.009
				c0-0.46-0.325-0.853-0.808-0.853c-0.484,0-0.805,0.389-0.805,0.844v0.009c0,0.456,0.33,0.854,0.812,0.854
				C72.016,33.061,72.337,32.671,72.337,32.215z"/>
			<path fill="#FFFFFF" d="M73.649,30.627h0.817l1.3,1.67v-1.67h0.867v3.159H75.87l-1.354-1.733v1.733h-0.866V30.627z"/>
		</g>
	</g>
</g>
<g id="hover">
</g>
<g id="modal">
</g>
<g id="guides">
</g>
</svg>
