<svg xmlns="http://www.w3.org/2000/svg" width="300" height="300"><defs><style type="text/css"><![CDATA[ @import url("https://fonts.googleapis.com/css?family=Raleway:700"); ]]></style></defs><g transform="translate(150,150)"><g class="arc"><path d="M9.184850993605149e-15,-150A150,150,0,0,1,47.79586943559775,-142.1814153287809L19.118347774239098,-56.87256613151236A60,60,0,0,0,3.67394039744206e-15,-60Z" fill="#EC8413"></path></g><g class="arc"><path d="M47.79586943559775,-142.1814153287809A150,150,0,0,1,149.93068189552218,-4.55967392954139L59.97227275820887,-1.823869571816556A60,60,0,0,0,19.118347774239098,-56.87256613151236Z" fill="#F4BD37"></path></g><g class="arc"><path d="M134.93761370596997,-4.103706536587251A135,135,0,1,1,9.5104988976783e-14,-135L4.226888398968133e-14,-60A60,60,0,1,0,59.97227275820887,-1.823869571816556Z" fill="#FFFFFF"></path></g></g></svg>