<svg xmlns="http://www.w3.org/2000/svg" width="1500" height="1500"><g transform="translate(750,750)"><g class="arc"><path d="M1.1021821192326179e-14,-180A180,180,0,0,1,69.63294799455103,165.98569984666796L27.853179197820417,66.39427993866718A72,72,0,0,0,4.408728476930472e-15,-72Z" fill="#006B85"></path><g class="arc-label" transform="translate(211.75397682246293,-42.6175233897024)" dy="0.35em"><text style="font-family: Raleway, sans-serif; font-size: 33px; font-weight: bold;" dy="0" text-anchor="start">44%</text><text style="font-family: Raleway, sans-serif; font-size: 33px; font-weight: bold;" dy="35" text-anchor="start">Custos operacionais</text><text style="font-family: Raleway, sans-serif; font-size: 33px; font-weight: bold;" dy="70" text-anchor="start">mais elevados</text></g></g><g class="arc"><path d="M69.63294799455103,165.98569984666796A180,180,0,0,1,-148.98401966824028,101.01367176522885L-59.593607867296114,40.40546870609154A72,72,0,0,0,27.853179197820417,66.39427993866718Z" fill="#13889B"></path><g class="arc-label" transform="translate(-61.534254876127136,207.04959665944733)" dy="0.35em"><text style="font-family: Raleway, sans-serif; font-size: 33px; font-weight: bold;" dy="0" text-anchor="end">22%</text><text style="font-family: Raleway, sans-serif; font-size: 33px; font-weight: bold;" dy="35" text-anchor="end">Interrupção da produção</text><text style="font-family: Raleway, sans-serif; font-size: 33px; font-weight: bold;" dy="70" text-anchor="end">das fábricas levando à</text><text style="font-family: Raleway, sans-serif; font-size: 33px; font-weight: bold;" dy="105" text-anchor="end">redução nas quantidades</text><text style="font-family: Raleway, sans-serif; font-size: 33px; font-weight: bold;" dy="140" text-anchor="end">produzidas</text></g></g><g class="arc"><path d="M-148.98401966824028,101.01367176522885A180,180,0,0,1,-164.70148229532222,-72.61832915816547L-65.88059291812888,-29.04733166326619A72,72,0,0,0,-59.593607867296114,40.40546870609154Z" fill="#289DA3"></path><g class="arc-label" transform="translate(-215.12043073414893,19.47306552020614)" dy="0.35em"><text style="font-family: Raleway, sans-serif; font-size: 33px; font-weight: bold;" dy="0" text-anchor="end">16%</text><text style="font-family: Raleway, sans-serif; font-size: 33px; font-weight: bold;" dy="35" text-anchor="end">Restrição ao</text><text style="font-family: Raleway, sans-serif; font-size: 33px; font-weight: bold;" dy="70" text-anchor="end">crescimento</text></g></g><g class="arc"><path d="M-148.23133406578998,-65.35649624234892A162,162,0,0,1,-2.975891721928068e-14,-162L-1.3226185430791413e-14,-72A72,72,0,0,0,-65.88059291812888,-29.04733166326619Z" fill="#A0A0A0"></path><g class="arc-label" transform="translate(-117.96891345223851,-180.94014330407242)" dy="0.35em"><text style="font-family: Raleway, sans-serif; font-size: 33px; font-weight: bold;" dy="0" text-anchor="end">Outros</text></g></g></g></svg>