<svg xmlns="http://www.w3.org/2000/svg" width="1200" height="900"><defs><style type="text/css"><![CDATA[ @import url("https://fonts.googleapis.com/css?family=Raleway:700"); ]]></style></defs><g transform="translate(600,450)"><g class="arc"><path d="M1.1021821192326179e-14,-180A180,180,0,0,1,174.49204786907947,-44.18738768534385L69.7968191476318,-17.67495507413754A72,72,0,0,0,4.408728476930472e-15,-72Z" fill="#501D3C"></path><g class="arc-label" transform="translate(132.66994594096826,-170.45435002962103)" dy="0.35em"><text style="font-family: Raleway, sans-serif; font-size: 33px; font-weight: 700;" dy="-105" text-anchor="start">21%</text><text style="font-family: Raleway, sans-serif; font-size: 33px; font-weight: 700;" dy="-70" text-anchor="start">Alteração entre</text><text style="font-family: Raleway, sans-serif; font-size: 33px; font-weight: 700;" dy="-35" text-anchor="start">os extremos de</text><text style="font-family: Raleway, sans-serif; font-size: 33px; font-weight: 700;" dy="0" text-anchor="start">precipitação e das secas</text></g></g><g class="arc"><path d="M174.49204786907947,-44.18738768534385A180,180,0,0,1,110.55828828414023,142.04529169135083L44.22331531365609,56.81811667654033A72,72,0,0,0,69.7968191476318,-17.67495507413754Z" fill="#7F2D6E"></path><g class="arc-label" transform="translate(204.2965242073371,70.13508534821163)" dy="0.35em"><text style="font-family: Raleway, sans-serif; font-size: 33px; font-weight: 700;" dy="0" text-anchor="start">18%</text><text style="font-family: Raleway, sans-serif; font-size: 33px; font-weight: 700;" dy="35" text-anchor="start">Alteração na</text><text style="font-family: Raleway, sans-serif; font-size: 33px; font-weight: 700;" dy="70" text-anchor="start">temperatura média</text></g></g><g class="arc"><path d="M110.55828828414023,142.04529169135083A180,180,0,0,1,-67.7356869506103,166.76893209866435L-27.094274780244124,66.70757283946574A72,72,0,0,0,44.22331531365609,56.81811667654033Z" fill="#965084"></path><g class="arc-label" transform="translate(29.668368488776228,213.9527702817007)" dy="0.35em"><text style="font-family: Raleway, sans-serif; font-size: 33px; font-weight: 700;" dy="0" text-anchor="start">17%</text><text style="font-family: Raleway, sans-serif; font-size: 33px; font-weight: 700;" dy="35" text-anchor="start">Alteração do padrão</text><text style="font-family: Raleway, sans-serif; font-size: 33px; font-weight: 700;" dy="70" text-anchor="start">de precipitação</text></g></g><g class="arc"><path d="M-60.96211825554928,150.09203888879793A162,162,0,0,1,-2.975891721928068e-14,-162L-1.3226185430791413e-14,-72A72,72,0,0,0,-27.094274780244124,66.70757283946574Z" fill="#A0A0A0"></path><g class="arc-label" transform="translate(-211.99352254252227,-41.40949649552753)" dy="0.35em"><text style="font-family: Raleway, sans-serif; font-size: 33px; font-weight: 700;" dy="0" text-anchor="end">Outros</text></g></g></g></svg>