<svg xmlns="http://www.w3.org/2000/svg" width="1200" height="900"><defs><style type="text/css"><![CDATA[ @import url("https://fonts.googleapis.com/css?family=Raleway:700"); ]]></style></defs><g transform="translate(600,450)"><g class="arc"><path d="M1.1021821192326179e-14,-180A180,180,0,0,1,166.2983158520316,-68.88301782571617L66.51932634081264,-27.553207130286463A72,72,0,0,0,4.408728476930472e-15,-72Z" fill="#501D3C"></path><g class="arc-label" transform="translate(120.00317033223409,-179.59743625734978)" dy="0.35em"><text style="font-family: Raleway, sans-serif; font-size: 33px; font-weight: 700;" dy="-70" text-anchor="start">19%</text><text style="font-family: Raleway, sans-serif; font-size: 33px; font-weight: 700;" dy="-35" text-anchor="start">Regulamentos ambientais</text><text style="font-family: Raleway, sans-serif; font-size: 33px; font-weight: 700;" dy="0" text-anchor="start">gerais, incluindo planejamento</text></g></g><g class="arc"><path d="M166.2983158520316,-68.88301782571617A180,180,0,0,1,171.94463960383442,53.24510223022864L68.77785584153376,21.298040892091457A72,72,0,0,0,66.51932634081264,-27.553207130286463Z" fill="#7F2D6E"></path><g class="arc-label" transform="translate(215.76952255731246,-9.97562706747977)" dy="0.35em"><text style="font-family: Raleway, sans-serif; font-size: 33px; font-weight: 700;" dy="-35" text-anchor="start">11%</text><text style="font-family: Raleway, sans-serif; font-size: 33px; font-weight: 700;" dy="0" text-anchor="start">Impostos de carbono</text></g></g><g class="arc"><path d="M171.94463960383442,53.24510223022864A180,180,0,0,1,101.72455459606655,148.4995454276944L40.689821838426624,59.399818171077754A72,72,0,0,0,68.77785584153376,21.298040892091457Z" fill="#965084"></path><g class="arc-label" transform="translate(173.86363981303748,128.16955469596655)" dy="0.35em"><text style="font-family: Raleway, sans-serif; font-size: 33px; font-weight: 700;" dy="0" text-anchor="start">11%</text><text style="font-family: Raleway, sans-serif; font-size: 33px; font-weight: 700;" dy="35" text-anchor="start">Incertezas dos</text><text style="font-family: Raleway, sans-serif; font-size: 33px; font-weight: 700;" dy="70" text-anchor="start">Regulamentos novos</text></g></g><g class="arc"><path d="M101.72455459606655,148.4995454276944A180,180,0,0,1,-8.313022556233092,179.80793546442703L-3.3252090224932367,71.92317418577082A72,72,0,0,0,40.689821838426624,59.399818171077754Z" fill="#B26F9D"></path><g class="arc-label" transform="translate(59.11120585556993,207.7543389253289)" dy="0.35em"><text style="font-family: Raleway, sans-serif; font-size: 33px; font-weight: 700;" dy="0" text-anchor="start">10%</text><text style="font-family: Raleway, sans-serif; font-size: 33px; font-weight: 700;" dy="35" text-anchor="start">Impostos e regulamentos</text><text style="font-family: Raleway, sans-serif; font-size: 33px; font-weight: 700;" dy="70" text-anchor="start">sobre combustível / energia</text></g></g><g class="arc"><path d="M-7.4817203006097825,161.82714191798433A162,162,0,0,1,-2.975891721928068e-14,-162L-1.3226185430791413e-14,-72A72,72,0,0,0,-3.3252090224932367,71.92317418577082Z" fill="#A0A0A0"></path><g class="arc-label" transform="translate(-215.94237295211366,-4.989144597048148)" dy="0.35em"><text style="font-family: Raleway, sans-serif; font-size: 33px; font-weight: 700;" dy="0" text-anchor="end">Outros</text></g></g></g></svg>