<svg xmlns="http://www.w3.org/2000/svg" viewBox="0 0 191.34 123.18"><defs><style>.cls-1{fill:#57993d;}.cls-2{fill:none;stroke:#063e2e;stroke-miterlimit:10;stroke-width:2px;}</style></defs><title>Asset 10</title><g id="Layer_2" data-name="Layer 2"><g id="_2-cidade" data-name="2-cidade"><path class="cls-1" d="M19.45,92.91C27.57,93.5,34.59,88,37.32,82.1c6.07-13.12-7-32.93-17.87-32.52h0C8.53,49.17-4.53,69,1.55,82.1,4.27,88,11.29,93.5,19.42,92.91Z"/><line class="cls-2" x1="19.43" y1="64.37" x2="19.43" y2="121.94"/><line class="cls-2" x1="19.43" y1="74.18" x2="27.23" y2="66.38"/><line class="cls-2" x1="19.43" y1="84.44" x2="13.83" y2="78.83"/><line class="cls-2" x1="11" y1="64.37" x2="8.95" y2="62.31"/><line class="cls-2" x1="26.68" y1="77.7" x2="28.44" y2="79.45"/><line class="cls-2" x1="26.68" y1="58.94" x2="27.92" y2="57.7"/><line class="cls-2" x1="8.81" y1="74.92" x2="6.61" y2="77.12"/><path class="cls-1" d="M139.33,73.61,143,67.07c-3.1-9.37-11-17.56-18.08-17.29h0C114,49.37,101,69.18,107.06,82.3c2.72,5.88,9.75,11.39,17.87,10.81h0c8.13.58,15.15-4.93,17.87-10.81a18,18,0,0,0,1.5-8.69Z"/><line class="cls-2" x1="124.94" y1="64.56" x2="124.94" y2="122.13"/><line class="cls-2" x1="124.94" y1="74.38" x2="132.74" y2="66.58"/><line class="cls-2" x1="124.94" y1="84.63" x2="119.34" y2="79.02"/><line class="cls-2" x1="116.51" y1="64.56" x2="114.46" y2="62.51"/><line class="cls-2" x1="132.19" y1="77.89" x2="133.95" y2="79.65"/><line class="cls-2" x1="132.19" y1="59.14" x2="133.43" y2="57.9"/><line class="cls-2" x1="114.32" y1="75.12" x2="112.12" y2="77.31"/><path class="cls-1" d="M171.93,93.11c8.13.58,15.15-4.93,17.87-10.81,6.07-13.12-7-32.93-17.87-32.52h0C161,49.37,148,69.18,154,82.3c2.72,5.88,9.75,11.39,17.87,10.81Z"/><line class="cls-2" x1="171.91" y1="64.56" x2="171.91" y2="122.13"/><line class="cls-2" x1="171.91" y1="74.38" x2="179.71" y2="66.58"/><line class="cls-2" x1="171.91" y1="84.63" x2="166.3" y2="79.02"/><line class="cls-2" x1="163.48" y1="64.56" x2="161.43" y2="62.51"/><line class="cls-2" x1="179.16" y1="77.89" x2="180.92" y2="79.65"/><line class="cls-2" x1="179.16" y1="59.14" x2="180.4" y2="57.9"/><line class="cls-2" x1="161.29" y1="75.12" x2="159.09" y2="77.31"/><ellipse class="cls-1" cx="58.66" cy="58.14" rx="16.4" ry="24.32"/><line class="cls-2" x1="58.81" y1="52.18" x2="58.81" y2="123.18"/><line class="cls-2" x1="58.81" y1="62" x2="66.61" y2="54.2"/><line class="cls-2" x1="58.81" y1="72.25" x2="53.21" y2="66.65"/><line class="cls-2" x1="50.38" y1="52.18" x2="48.33" y2="50.13"/><line class="cls-2" x1="66.06" y1="65.51" x2="67.82" y2="67.27"/><line class="cls-2" x1="66.06" y1="46.76" x2="67.3" y2="45.52"/><line class="cls-2" x1="48.19" y1="62.74" x2="46" y2="64.94"/><path class="cls-1" d="M99.1,21.66l5-5A59.68,59.68,0,0,0,93.53,0S79.3,14.76,79.3,33.72,93.53,64.64,93.53,64.64s14.23-12,14.23-30.93a41.86,41.86,0,0,0-1.85-12.06Z"/><line class="cls-2" x1="93.53" y1="20.67" x2="93.53" y2="122.13"/><line class="cls-2" x1="93.53" y1="27.3" x2="86.77" y2="20.54"/><line class="cls-2" x1="93.53" y1="39.57" x2="102.33" y2="30.78"/><line class="cls-2" x1="93.53" y1="52.35" x2="89.57" y2="48.39"/><line class="cls-2" x1="96.3" y1="11.63" x2="98.73" y2="14.05"/><line class="cls-2" x1="84.43" y1="35.28" x2="87.32" y2="32.39"/><line class="cls-2" x1="97.93" y1="42.63" x2="100.81" y2="45.51"/></g></g></svg>