<svg xmlns="http://www.w3.org/2000/svg" viewBox="0 0 111.06 123.18"><defs><style>.cls-1{fill:#57993d;}.cls-2{fill:none;stroke:#063e2e;stroke-miterlimit:10;stroke-width:2px;}</style></defs><title>Asset 16</title><g id="Layer_2" data-name="Layer 2"><g id="_2-cidade" data-name="2-cidade"><path class="cls-1" d="M26.33,93.11c8.13.58,15.15-4.93,17.87-10.81,6.07-13.12-7-32.93-17.87-32.52h0C15.41,49.37,2.35,69.18,8.43,82.3c2.72,5.88,9.75,11.39,17.87,10.81Z"/><line class="cls-2" x1="26.31" y1="64.56" x2="26.31" y2="122.13"/><line class="cls-2" x1="26.31" y1="74.38" x2="34.11" y2="66.58"/><line class="cls-2" x1="26.31" y1="84.63" x2="20.71" y2="79.02"/><line class="cls-2" x1="17.88" y1="64.56" x2="15.83" y2="62.51"/><line class="cls-2" x1="33.56" y1="77.89" x2="35.32" y2="79.65"/><line class="cls-2" x1="33.56" y1="59.14" x2="34.81" y2="57.9"/><line class="cls-2" x1="15.69" y1="75.12" x2="13.5" y2="77.31"/><path class="cls-1" d="M89.77,33.82a13.22,13.22,0,0,0-9.69,4.7l6.7,6.7H75.88a33.28,33.28,0,0,0-2.51,12.92c0,13.43,7.34,24.32,16.4,24.32s16.4-10.89,16.4-24.32S98.83,33.82,89.77,33.82Z"/><line class="cls-2" x1="89.92" y1="52.18" x2="89.92" y2="123.18"/><line class="cls-2" x1="89.92" y1="62" x2="97.72" y2="54.2"/><line class="cls-2" x1="89.92" y1="72.25" x2="84.31" y2="66.65"/><line class="cls-2" x1="81.49" y1="52.18" x2="79.44" y2="50.13"/><line class="cls-2" x1="97.16" y1="65.51" x2="98.92" y2="67.27"/><line class="cls-2" x1="97.16" y1="46.76" x2="98.41" y2="45.52"/><line class="cls-2" x1="79.3" y1="62.74" x2="77.1" y2="64.94"/><path class="cls-1" d="M60.78,21.66l5-5A59.68,59.68,0,0,0,55.22,0S41,14.76,41,33.72,55.22,64.64,55.22,64.64s14.23-12,14.23-30.93A41.86,41.86,0,0,0,67.6,21.66Z"/><line class="cls-2" x1="55.22" y1="20.67" x2="55.22" y2="122.13"/><line class="cls-2" x1="55.22" y1="27.3" x2="48.45" y2="20.54"/><line class="cls-2" x1="55.22" y1="39.57" x2="64.01" y2="30.78"/><line class="cls-2" x1="55.22" y1="52.35" x2="51.25" y2="48.39"/><line class="cls-2" x1="57.99" y1="11.63" x2="60.41" y2="14.05"/><line class="cls-2" x1="46.12" y1="35.28" x2="49.01" y2="32.39"/><line class="cls-2" x1="59.61" y1="42.63" x2="62.49" y2="45.51"/><path class="cls-1" d="M109.94,103.56a5.24,5.24,0,0,0-5.24,5.24,5.24,5.24,0,0,0-10.47,0,5.24,5.24,0,0,0-10.47,0,5.24,5.24,0,0,0-10.47,0,5.24,5.24,0,0,0-10.47,0,5.24,5.24,0,0,0-10.47,0,5.24,5.24,0,0,0-10.47,0,5.24,5.24,0,0,0-10.47,0,5.24,5.24,0,0,0-10.47,0,5.24,5.24,0,0,0-10.47,0A5.24,5.24,0,0,0,0,108.8V122.5H111.06V103.69A5.25,5.25,0,0,0,109.94,103.56Z"/></g></g></svg>