<svg xmlns="http://www.w3.org/2000/svg" xmlns:xlink="http://www.w3.org/1999/xlink" viewBox="0 0 1291.78 231.28"><defs><style>.cls-1{fill:none;}.cls-2{clip-path:url(#clip-path);}.cls-3{fill:url(#linear-gradient);}.cls-4{clip-path:url(#clip-path-2);}.cls-5{fill:url(#linear-gradient-2);}.cls-6{fill:url(#linear-gradient-3);}</style><clipPath id="clip-path" transform="translate(0 -83.88)"><path class="cls-1" d="M20.3,313.55s257.45-103.76,326.61-88c58.75,13.43,127.93,35.09,205.62,23.07,37-5.73,77-15.6,122-30.28,31.11-10.15,64-22,98.27-33.73,67.25-23,149.22-44.74,219.94-52.81,96.91-11.06,137.46,55.31,169.56,97.42,39.88,52.32,129.49,84.29,129.49,84.29V0H21.12Z"/></clipPath><linearGradient id="linear-gradient" x1="693.37" y1="83.88" x2="693.37" y2="275.6" gradientUnits="userSpaceOnUse"><stop offset="0.06" stop-color="#ebff55"/><stop offset="0.2" stop-color="#cff44e" stop-opacity="0.9"/><stop offset="0.5" stop-color="#87d73d" stop-opacity="0.66"/><stop offset="0.93" stop-color="#14a922" stop-opacity="0.27"/><stop offset="1" stop-color="#00a11d" stop-opacity="0.2"/></linearGradient><clipPath id="clip-path-2" transform="translate(0 -83.88)"><path class="cls-1" d="M20.3,313.55s257.45-103.76,326.61-88V123.4H0V312.94Z"/></clipPath><linearGradient id="linear-gradient-2" x1="219.19" y1="166.78" x2="100.14" y2="372.98" gradientUnits="userSpaceOnUse"><stop offset="0.07" stop-color="#ebff55"/><stop offset="0.08" stop-color="#e6fd54" stop-opacity="0.98"/><stop offset="0.18" stop-color="#b0e847" stop-opacity="0.8"/><stop offset="0.28" stop-color="#81d53c" stop-opacity="0.64"/><stop offset="0.39" stop-color="#59c532" stop-opacity="0.5"/><stop offset="0.5" stop-color="#39b82b" stop-opacity="0.39"/><stop offset="0.61" stop-color="#20ae25" stop-opacity="0.31"/><stop offset="0.73" stop-color="#0ea720" stop-opacity="0.25"/><stop offset="0.86" stop-color="#03a21e" stop-opacity="0.21"/><stop offset="1" stop-color="#00a11d" stop-opacity="0.2"/></linearGradient><linearGradient id="linear-gradient-3" x1="656.04" y1="130.62" x2="656.04" y2="313.55" xlink:href="#linear-gradient"/></defs><title>Asset 18</title><g id="Layer_2" data-name="Layer 2"><g id="BG"><g class="cls-2"><path class="cls-3" d="M931,141.74c-30.74-24.5-59.89-51.9-98.88-56.94C806.69,81.51,780.76,87.4,757,97s-42.88,24.19-63.26,39.82c-66.7,51.14-74,98.28-238,118.24l55.41,20.5Z" transform="translate(0 -83.88)"/></g><g class="cls-4"><path class="cls-5" d="M319.33,224.6c-28.87.9-49.12-11.41-56.55-17.35-28.46-22.75-56.69-50.56-90-61.23-24.72-7.92-46-.36-61.18,15.7C78.7,196.57,30.65,271.31,0,315.16l22.23-1.67,198-34.58Z" transform="translate(0 -83.88)"/></g><path class="cls-6" d="M20.3,313.55s257.45-103.76,326.61-88c58.75,13.43,127.93,35.09,205.62,23.07,37-5.73,77-15.6,122-30.28,31.11-10.15,64-22,98.27-33.73,67.25-23,149.22-44.74,219.94-52.81,96.91-11.06,137.46,55.31,169.56,97.42,14,18.33,34,34.16,54.23,47a423.52,423.52,0,0,0,75.25,37.29" transform="translate(0 -83.88)"/></g></g></svg>