<svg xmlns="http://www.w3.org/2000/svg" viewBox="0 0 31 59"><defs><style>.cls-1{fill:#007695;stroke:#007695;}.cls-1,.cls-2{stroke-linecap:round;stroke-linejoin:round;stroke-width:2px;}.cls-2{fill:#00aac8;stroke:#00aac8;}</style></defs><title>Asset 13</title><g id="Layer_2" data-name="Layer 2"><g id="_2-cidade" data-name="2-cidade"><polygon class="cls-1" points="9.81 58 10.55 18.08 12.65 18.08 13.37 56.76 9.81 58"/><path class="cls-2" d="M9.46,8.48c2.12,4.57,1.77,5.88.8,6.34S8.08,14.74,6,10.16,2.9,1.51,3.87,1,7.34,3.91,9.46,8.48Z"/><path class="cls-2" d="M20.87,20.67c-5-.42-5.89-1.38-5.8-2.47s1.17-1.88,6.12-1.46,8.9,1.64,8.81,2.72S25.82,21.09,20.87,20.67Z"/><path class="cls-2" d="M4.78,24.62c2.83-4.15,4.12-4.5,5-3.88s1,2-1.82,6.12-5.84,7-6.72,6.4S1.95,28.77,4.78,24.62Z"/><path class="cls-2" d="M9.42,16.31a2.75,2.75,0,0,1,3.87-.71,2.86,2.86,0,0,1,.7,3.93,2.75,2.75,0,0,1-3.87.71A2.86,2.86,0,0,1,9.42,16.31Z"/><path class="cls-1" d="M10.9,17.35a1,1,0,0,1,1.37-.25,1,1,0,0,1,.25,1.39,1,1,0,0,1-1.37.25A1,1,0,0,1,10.9,17.35Z"/></g></g></svg>