<svg xmlns="http://www.w3.org/2000/svg" viewBox="0 0 46 86"><defs><style>.cls-1{fill:#007695;stroke:#007695;}.cls-1,.cls-2{stroke-linecap:round;stroke-linejoin:round;stroke-width:2px;}.cls-2{fill:#00aac8;stroke:#00aac8;}</style></defs><title>Asset 15</title><g id="Layer_2" data-name="Layer 2"><g id="_2-cidade" data-name="2-cidade"><polygon class="cls-1" points="25.59 85 27.27 24.94 30.51 24.94 31.72 83.29 25.59 85"/><path class="cls-2" d="M15,21.28c7.64.4,9.13,1.83,9,3.49s-1.71,2.92-9.35,2.52S.91,25.22,1,23.56,7.35,20.88,15,21.28Z"/><path class="cls-2" d="M39.55,14.5C35.38,21,33.41,21.56,32,20.66s-1.65-3,2.52-9.44,8.66-11,10-10.1S43.72,8,39.55,14.5Z"/><path class="cls-2" d="M33.09,39.37c-3.48-6.89-3-8.9-1.53-9.66s3.36,0,6.84,6.92S43.51,49.72,42,50.48,36.57,46.26,33.09,39.37Z"/><path class="cls-2" d="M25.4,27a4.34,4.34,0,0,1,1.87-5.81A4.26,4.26,0,0,1,33,23.09a4.34,4.34,0,0,1-1.87,5.81A4.26,4.26,0,0,1,25.4,27Z"/><path class="cls-1" d="M27.86,25.74a1.53,1.53,0,0,1,.66-2.05,1.5,1.5,0,0,1,2,.67,1.53,1.53,0,0,1-.66,2.05A1.5,1.5,0,0,1,27.86,25.74Z"/></g></g></svg>