<svg xmlns="http://www.w3.org/2000/svg" viewBox="0 0 94 99.5"><defs><style>.cls-1{fill:#be77aa;}.cls-2,.cls-3{fill:#fff;}.cls-3,.cls-4{stroke:#621a49;stroke-width:2px;}.cls-3,.cls-4,.cls-6{stroke-linejoin:round;}.cls-4,.cls-6{fill:none;}.cls-5{fill:#621a49;}.cls-6{stroke:#fff;}</style></defs><title>Asset 38</title><g id="Layer_2" data-name="Layer 2"><g id="_0-veículos" data-name="0-veículos"><polygon class="cls-1" points="16 88.55 94 88.55 86.5 96.02 16 96.02 16 88.55"/><polygon class="cls-2" points="44 88.55 50 82.58 73 82.58 79 88.55 44 88.55"/><polygon class="cls-3" points="62.3 78.05 62.3 1 38 78.05 62.3 78.05"/><polygon class="cls-3" points="62.3 72.76 62.3 1 82.04 72.76 62.3 72.76"/><line class="cls-4" x1="62.3" y1="78.05" x2="62.3" y2="82.58"/><polygon class="cls-5" points="61.54 46.32 48.63 46.32 50.91 39.53 61.54 39.53 61.54 46.32"/><polygon class="cls-5" points="61.54 72.76 40.28 72.76 42.56 65.97 61.54 65.97 61.54 72.76"/><line class="cls-6" x1="16" y1="95.52" y2="95.52"/><line class="cls-6" x1="23" y1="99" x2="7" y2="99"/></g></g></svg>