<svg xmlns="http://www.w3.org/2000/svg" viewBox="0 0 645.76 95.3"><defs><style>.cls-1{fill:#621a49;}.cls-1,.cls-2,.cls-3{stroke:#621a49;stroke-miterlimit:10;stroke-width:2px;}.cls-2{fill:#fff;}.cls-3{fill:#be77aa;}</style></defs><title>Asset 9</title><g id="Layer_2" data-name="Layer 2"><g id="_3-camada3" data-name="3-camada3"><rect class="cls-1" x="13.64" y="20.35" width="12.64" height="5.62"/><rect class="cls-2" x="13.64" y="25.96" width="12.64" height="68.34"/><rect class="cls-1" x="102.15" y="20.35" width="12.64" height="5.62"/><rect class="cls-2" x="102.15" y="25.96" width="12.64" height="68.34"/><rect class="cls-1" x="190.66" y="20.35" width="12.64" height="5.62"/><rect class="cls-2" x="190.66" y="25.96" width="12.64" height="68.34"/><rect class="cls-1" x="279.17" y="20.35" width="12.64" height="5.62"/><rect class="cls-2" x="279.17" y="25.96" width="12.64" height="68.34"/><rect class="cls-1" x="379.69" y="20.35" width="12.64" height="5.62"/><rect class="cls-2" x="379.69" y="25.96" width="12.64" height="68.34"/><rect class="cls-1" x="480.21" y="20.35" width="12.64" height="5.62"/><rect class="cls-2" x="480.21" y="25.96" width="12.64" height="68.34"/><rect class="cls-1" x="587.21" y="20.35" width="12.64" height="5.62"/><rect class="cls-2" x="587.21" y="25.96" width="12.64" height="68.34"/><rect class="cls-2" x="1" y="1" width="643.76" height="12.48"/><rect class="cls-3" x="1" y="13.48" width="643.76" height="6.86"/></g></g></svg>