<svg xmlns="http://www.w3.org/2000/svg" viewBox="0 0 196 145"><defs><style>.cls-1,.cls-7{fill:#fff;}.cls-1,.cls-2,.cls-3,.cls-5,.cls-7,.cls-8{stroke:#621a49;}.cls-1,.cls-2,.cls-4,.cls-5{stroke-miterlimit:10;}.cls-1,.cls-2,.cls-3,.cls-4,.cls-5,.cls-6,.cls-7,.cls-8{stroke-width:2px;}.cls-2{fill:#621a49;}.cls-3,.cls-6,.cls-8{fill:none;}.cls-3,.cls-6{stroke-linecap:round;}.cls-3,.cls-6,.cls-7,.cls-8{stroke-linejoin:round;}.cls-4,.cls-5{fill:#be77aa;}.cls-4{stroke:#be77aa;}.cls-6{stroke:#fff;}</style></defs><title>Asset 23</title><g id="Layer_2" data-name="Layer 2"><g id="_2-cidade" data-name="2-cidade"><rect class="cls-1" x="71.95" y="30.01" width="28.11" height="18.76"/><rect class="cls-2" x="100.3" y="30.01" width="6.7" height="18.76"/><rect class="cls-1" x="13.95" y="66.03" width="21.7" height="15.5"/><rect class="cls-2" x="35.83" y="66.03" width="5.17" height="15.5"/><line class="cls-3" x1="86" y1="30.01" x2="86" y2="1"/><rect class="cls-1" x="57.95" y="49.02" width="50.57" height="18.76"/><rect class="cls-2" x="108.95" y="49.02" width="12.05" height="18.76"/><polygon class="cls-1" points="1.05 79.85 46 79.85 46 144 1 144 1.05 79.85"/><polygon class="cls-4" points="46.09 64.84 121 64.84 121 144 46 144 46.09 64.84"/><polygon class="cls-1" points="136.05 79.85 181 79.85 181 144 136 144 136.05 79.85"/><polygon class="cls-2" points="181.02 79.85 195 79.85 195 144 181 144 181.02 79.85"/><polygon class="cls-2" points="121.02 64.84 136 64.84 136 144 121 144 121.02 64.84"/><path class="cls-5" d="M49,145V107a6,6,0,1,1,12,0V145"/><path class="cls-5" d="M67,145V107a6,6,0,1,1,12,0V145"/><path class="cls-5" d="M85,145V107a6,6,0,1,1,12,0V145"/><path class="cls-5" d="M103,145V107a6,6,0,1,1,12,0V145"/><line class="cls-6" x1="55" y1="74.03" x2="109" y2="74.03"/><line class="cls-6" x1="55" y1="83.04" x2="109" y2="83.04"/><path class="cls-7" d="M86,19.42a8,8,0,0,1,4.92-2c2.52,0,5.59,2.45,8.12,2.92a7.2,7.2,0,0,0,5-.92v-12a7.2,7.2,0,0,1-5,.92c-2.53-.47-5.6-2.92-8.12-2.92a8,8,0,0,0-4.92,2Z"/><line class="cls-8" x1="6" y1="97.68" x2="38" y2="97.68"/><line class="cls-8" x1="6" y1="106.91" x2="38" y2="106.91"/><line class="cls-8" x1="143" y1="97.68" x2="175" y2="97.68"/><line class="cls-8" x1="143" y1="106.91" x2="175" y2="106.91"/></g></g></svg>