<svg xmlns="http://www.w3.org/2000/svg" viewBox="0 0 167.16 42"><defs><style>.cls-1{fill:#57993d;}</style></defs><title>Asset 31</title><g id="Layer_2" data-name="Layer 2"><g id="_2-cidade" data-name="2-cidade"><path class="cls-1" d="M167.16,5.78a5.51,5.51,0,0,0-11,0,5.51,5.51,0,0,0-11,0,5.51,5.51,0,0,0-11,0,5.51,5.51,0,0,0-11,0,5.51,5.51,0,0,0-11,0,5.51,5.51,0,0,0-11,0,5.51,5.51,0,0,0-11-.68,5.63,5.63,0,0,0-11.24.44,5.63,5.63,0,0,0-11.26,0,5.63,5.63,0,0,0-11.26,0A5.63,5.63,0,0,0,45,5.54a5.63,5.63,0,0,0-11.26,0,5.63,5.63,0,0,0-11.26,0,5.63,5.63,0,0,0-11.26,0A5.58,5.58,0,0,0,5.63,0,5.58,5.58,0,0,0,0,5.54V42H167.16Z"/></g></g></svg>