<svg xmlns="http://www.w3.org/2000/svg" viewBox="0 0 82 55"><defs><style>.cls-1{fill:#be77aa;}.cls-2{fill:#621a49;}.cls-2,.cls-3{stroke:#621a49;stroke-miterlimit:10;stroke-width:2px;}.cls-3,.cls-4{fill:#fff;}.cls-5{fill:#7d0547;}</style></defs><title>Asset 27</title><g id="Layer_2" data-name="Layer 2"><g id="_2-cidade" data-name="2-cidade"><polyline class="cls-1" points="77.36 10.32 4.76 10.32 4.76 55 77.36 55"/><path class="cls-2" d="M8.27,15.23a3.66,3.66,0,0,1-3.64,3.69A3.66,3.66,0,0,1,1,15.23V1H8.27Z"/><path class="cls-3" d="M15.55,15.23a3.64,3.64,0,1,1-7.27,0V1h7.27Z"/><path class="cls-2" d="M22.82,15.23a3.64,3.64,0,1,1-7.27,0V1h7.27Z"/><path class="cls-3" d="M30.09,15.23a3.64,3.64,0,1,1-7.27,0V1h7.27Z"/><path class="cls-2" d="M37.36,15.23a3.64,3.64,0,1,1-7.27,0V1h7.27Z"/><path class="cls-3" d="M44.64,15.23a3.64,3.64,0,1,1-7.27,0V1h7.27Z"/><path class="cls-2" d="M51.91,15.23a3.64,3.64,0,1,1-7.27,0V1h7.27Z"/><path class="cls-3" d="M59.18,15.23a3.64,3.64,0,1,1-7.27,0V1h7.27Z"/><path class="cls-2" d="M66.45,15.23a3.64,3.64,0,1,1-7.27,0V1h7.27Z"/><path class="cls-3" d="M73.73,15.23a3.64,3.64,0,1,1-7.27,0V1h7.27Z"/><path class="cls-2" d="M81,15.23a3.64,3.64,0,1,1-7.27,0V1H81Z"/><rect class="cls-4" x="9.72" y="21.65" width="46.21" height="33.35"/><rect class="cls-5" x="53.67" y="21.65" width="2.26" height="33.35"/></g></g></svg>