<svg xmlns="http://www.w3.org/2000/svg" viewBox="0 0 117.87 34.42"><defs><style>.cls-1{fill:#be77aa;}.cls-2,.cls-4{fill:#fff;}.cls-2,.cls-3{stroke:#621a49;stroke-miterlimit:10;stroke-width:2px;}.cls-3{fill:#621a49;}.cls-5{fill:#7d0547;}</style></defs><title>Asset 8</title><g id="Layer_2" data-name="Layer 2"><g id="_2-cidade" data-name="2-cidade"><polyline class="cls-1" points="113.25 12.12 3.43 12.12 3.43 34.42 113.25 34.42"/><path class="cls-2" d="M8.24,15A3.62,3.62,0,0,1,1,15V1H8.24Z"/><path class="cls-3" d="M15.48,15a3.62,3.62,0,0,1-7.24,0V1h7.24Z"/><path class="cls-2" d="M22.73,15a3.62,3.62,0,0,1-7.24,0V1h7.24Z"/><path class="cls-3" d="M30,15a3.62,3.62,0,0,1-7.24,0V1H30Z"/><path class="cls-2" d="M37.21,15A3.62,3.62,0,0,1,30,15V1h7.24Z"/><path class="cls-3" d="M44.45,15a3.62,3.62,0,0,1-7.24,0V1h7.24Z"/><path class="cls-2" d="M51.69,15a3.62,3.62,0,0,1-7.24,0V1h7.24Z"/><path class="cls-3" d="M58.94,15a3.62,3.62,0,0,1-7.24,0V1h7.24Z"/><path class="cls-2" d="M66.18,15a3.62,3.62,0,0,1-7.24,0V1h7.24Z"/><path class="cls-3" d="M73.42,15a3.62,3.62,0,0,1-7.24,0V1h7.24Z"/><path class="cls-2" d="M80.66,15a3.62,3.62,0,1,1-7.24,0V1h7.24Z"/><path class="cls-3" d="M87.9,15a3.62,3.62,0,1,1-7.24,0V1H87.9Z"/><path class="cls-2" d="M95.15,15a3.62,3.62,0,0,1-7.24,0V1h7.24Z"/><path class="cls-3" d="M102.39,15a3.62,3.62,0,0,1-7.24,0V1h7.24Z"/><path class="cls-2" d="M109.63,15a3.62,3.62,0,1,1-7.24,0V1h7.24Z"/><path class="cls-3" d="M116.87,15a3.62,3.62,0,0,1-7.24,0V1h7.24Z"/><rect class="cls-4" x="10.94" y="23.23" width="69.89" height="11.18"/><rect class="cls-5" x="77.42" y="23.23" width="3.41" height="11.18"/></g></g></svg>