<svg xmlns="http://www.w3.org/2000/svg" xmlns:xlink="http://www.w3.org/1999/xlink" viewBox="0 0 1240.32 216.42"><defs><style>.cls-1,.cls-3,.cls-6{fill:none;}.cls-2{fill:#7dd1df;}.cls-3{stroke:#007695;stroke-width:9px;}.cls-3,.cls-6{stroke-miterlimit:10;}.cls-4{clip-path:url(#clip-path);}.cls-5{fill:#57993d;}.cls-6{stroke:#063e2e;stroke-width:2px;}</style><clipPath id="clip-path" transform="translate(0 -4.48)"><rect class="cls-1" x="34.09" width="1200" height="70"/></clipPath></defs><title>Asset 17</title><g id="Layer_2" data-name="Layer 2"><g id="_1-plano-piso" data-name="1-plano-piso"><polygon class="cls-2" points="1232.84 27.9 33.03 27.9 34.01 65.3 1233.82 65.3 1232.84 27.9"/><line class="cls-3" x1="33.11" y1="29.63" x2="1233.67" y2="29.63"/><rect class="cls-2" x="33.11" y="29.08" width="2.51" height="13.6" rx="1.25" ry="1.25"/><rect class="cls-2" x="38.08" y="29.08" width="2.51" height="13.6" rx="1.25" ry="1.25"/><rect class="cls-2" x="43.05" y="29.08" width="2.51" height="13.6" rx="1.25" ry="1.25"/><rect class="cls-2" x="48.01" y="29.08" width="2.51" height="13.6" rx="1.25" ry="1.25"/><rect class="cls-2" x="52.98" y="29.08" width="2.51" height="13.6" rx="1.25" ry="1.25"/><rect class="cls-2" x="57.94" y="29.08" width="2.51" height="13.6" rx="1.25" ry="1.25"/><rect class="cls-2" x="62.91" y="29.08" width="2.51" height="13.6" rx="1.25" ry="1.25"/><rect class="cls-2" x="67.87" y="29.08" width="2.51" height="13.6" rx="1.25" ry="1.25"/><rect class="cls-2" x="72.84" y="29.08" width="2.51" height="13.6" rx="1.25" ry="1.25"/><rect class="cls-2" x="77.81" y="29.08" width="2.51" height="13.6" rx="1.25" ry="1.25"/><rect class="cls-2" x="82.77" y="29.08" width="2.51" height="13.6" rx="1.25" ry="1.25"/><rect class="cls-2" x="87.74" y="29.08" width="2.51" height="13.6" rx="1.25" ry="1.25"/><rect class="cls-2" x="92.7" y="29.08" width="2.51" height="13.6" rx="1.25" ry="1.25"/><rect class="cls-2" x="97.67" y="29.08" width="2.51" height="13.6" rx="1.25" ry="1.25"/><rect class="cls-2" x="102.63" y="29.08" width="2.51" height="13.6" rx="1.25" ry="1.25"/><rect class="cls-2" x="107.6" y="29.08" width="2.51" height="13.6" rx="1.25" ry="1.25"/><rect class="cls-2" x="112.57" y="29.08" width="2.51" height="13.6" rx="1.25" ry="1.25"/><rect class="cls-2" x="117.53" y="29.08" width="2.51" height="13.6" rx="1.25" ry="1.25"/><rect class="cls-2" x="122.5" y="29.08" width="2.51" height="13.6" rx="1.25" ry="1.25"/><rect class="cls-2" x="127.46" y="29.08" width="2.51" height="13.6" rx="1.25" ry="1.25"/><rect class="cls-2" x="132.43" y="29.08" width="2.51" height="13.6" rx="1.25" ry="1.25"/><rect class="cls-2" x="137.39" y="29.08" width="2.51" height="13.6" rx="1.25" ry="1.25"/><rect class="cls-2" x="142.36" y="29.08" width="2.51" height="13.6" rx="1.25" ry="1.25"/><rect class="cls-2" x="147.33" y="29.08" width="2.51" height="13.6" rx="1.25" ry="1.25"/><rect class="cls-2" x="152.29" y="29.08" width="2.51" height="13.6" rx="1.25" ry="1.25"/><rect class="cls-2" x="157.26" y="29.08" width="2.51" height="13.6" rx="1.25" ry="1.25"/><rect class="cls-2" x="162.22" y="29.08" width="2.51" height="13.6" rx="1.25" ry="1.25"/><rect class="cls-2" x="167.19" y="29.08" width="2.51" height="13.6" rx="1.25" ry="1.25"/><rect class="cls-2" x="172.16" y="29.08" width="2.51" height="13.6" rx="1.25" ry="1.25"/><rect class="cls-2" x="177.12" y="29.08" width="2.51" height="13.6" rx="1.25" ry="1.25"/><rect class="cls-2" x="182.09" y="29.08" width="2.51" height="13.6" rx="1.25" ry="1.25"/><rect class="cls-2" x="187.05" y="29.08" width="2.51" height="13.6" rx="1.25" ry="1.25"/><rect class="cls-2" x="192.02" y="29.08" width="2.51" height="13.6" rx="1.25" ry="1.25"/><rect class="cls-2" x="196.98" y="29.08" width="2.51" height="13.6" rx="1.25" ry="1.25"/><rect class="cls-2" x="201.95" y="29.08" width="2.51" height="13.6" rx="1.25" ry="1.25"/><rect class="cls-2" x="206.92" y="29.08" width="2.51" height="13.6" rx="1.25" ry="1.25"/><rect class="cls-2" x="211.88" y="29.08" width="2.51" height="13.6" rx="1.25" ry="1.25"/><rect class="cls-2" x="216.85" y="29.08" width="2.51" height="13.6" rx="1.25" ry="1.25"/><rect class="cls-2" x="221.81" y="29.08" width="2.51" height="13.6" rx="1.25" ry="1.25"/><rect class="cls-2" x="226.78" y="29.08" width="2.51" height="13.6" rx="1.25" ry="1.25"/><rect class="cls-2" x="231.74" y="29.08" width="2.51" height="13.6" rx="1.25" ry="1.25"/><rect class="cls-2" x="236.71" y="29.08" width="2.51" height="13.6" rx="1.25" ry="1.25"/><rect class="cls-2" x="241.68" y="29.08" width="2.51" height="13.6" rx="1.25" ry="1.25"/><rect class="cls-2" x="246.64" y="29.08" width="2.51" height="13.6" rx="1.25" ry="1.25"/><rect class="cls-2" x="251.61" y="29.08" width="2.51" height="13.6" rx="1.25" ry="1.25"/><rect class="cls-2" x="256.57" y="29.08" width="2.51" height="13.6" rx="1.25" ry="1.25"/><rect class="cls-2" x="261.54" y="29.08" width="2.51" height="13.6" rx="1.25" ry="1.25"/><rect class="cls-2" x="266.5" y="29.08" width="2.51" height="13.6" rx="1.25" ry="1.25"/><rect class="cls-2" x="271.47" y="29.08" width="2.51" height="13.6" rx="1.25" ry="1.25"/><rect class="cls-2" x="276.44" y="29.08" width="2.51" height="13.6" rx="1.25" ry="1.25"/><rect class="cls-2" x="281.4" y="29.08" width="2.51" height="13.6" rx="1.25" ry="1.25"/><rect class="cls-2" x="286.37" y="29.08" width="2.51" height="13.6" rx="1.25" ry="1.25"/><rect class="cls-2" x="291.33" y="29.08" width="2.51" height="13.6" rx="1.25" ry="1.25"/><rect class="cls-2" x="296.3" y="29.08" width="2.51" height="13.6" rx="1.25" ry="1.25"/><rect class="cls-2" x="301.27" y="29.08" width="2.51" height="13.6" rx="1.25" ry="1.25"/><rect class="cls-2" x="306.23" y="29.08" width="2.51" height="13.6" rx="1.25" ry="1.25"/><rect class="cls-2" x="311.2" y="29.08" width="2.51" height="13.6" rx="1.25" ry="1.25"/><rect class="cls-2" x="316.16" y="29.08" width="2.51" height="13.6" rx="1.25" ry="1.25"/><rect class="cls-2" x="321.13" y="29.08" width="2.51" height="13.6" rx="1.25" ry="1.25"/><rect class="cls-2" x="326.09" y="29.08" width="2.51" height="13.6" rx="1.25" ry="1.25"/><rect class="cls-2" x="331.06" y="29.08" width="2.51" height="13.6" rx="1.25" ry="1.25"/><rect class="cls-2" x="336.03" y="29.08" width="2.51" height="13.6" rx="1.25" ry="1.25"/><rect class="cls-2" x="340.99" y="29.08" width="2.51" height="13.6" rx="1.25" ry="1.25"/><rect class="cls-2" x="345.96" y="29.08" width="2.51" height="13.6" rx="1.25" ry="1.25"/><rect class="cls-2" x="350.92" y="29.08" width="2.51" height="13.6" rx="1.25" ry="1.25"/><rect class="cls-2" x="355.89" y="29.08" width="2.51" height="13.6" rx="1.25" ry="1.25"/><rect class="cls-2" x="360.85" y="29.08" width="2.51" height="13.6" rx="1.25" ry="1.25"/><rect class="cls-2" x="365.82" y="29.08" width="2.51" height="13.6" rx="1.25" ry="1.25"/><rect class="cls-2" x="370.79" y="29.08" width="2.51" height="13.6" rx="1.25" ry="1.25"/><rect class="cls-2" x="375.75" y="29.08" width="2.51" height="13.6" rx="1.25" ry="1.25"/><rect class="cls-2" x="380.72" y="29.08" width="2.51" height="13.6" rx="1.25" ry="1.25"/><rect class="cls-2" x="385.68" y="29.08" width="2.51" height="13.6" rx="1.25" ry="1.25"/><rect class="cls-2" x="390.65" y="29.08" width="2.51" height="13.6" rx="1.25" ry="1.25"/><rect class="cls-2" x="395.61" y="29.08" width="2.51" height="13.6" rx="1.25" ry="1.25"/><rect class="cls-2" x="400.58" y="29.08" width="2.51" height="13.6" rx="1.25" ry="1.25"/><rect class="cls-2" x="405.55" y="29.08" width="2.51" height="13.6" rx="1.25" ry="1.25"/><rect class="cls-2" x="410.51" y="29.08" width="2.51" height="13.6" rx="1.25" ry="1.25"/><rect class="cls-2" x="415.48" y="29.08" width="2.51" height="13.6" rx="1.25" ry="1.25"/><rect class="cls-2" x="420.44" y="29.08" width="2.51" height="13.6" rx="1.25" ry="1.25"/><rect class="cls-2" x="425.41" y="29.08" width="2.51" height="13.6" rx="1.25" ry="1.25"/><rect class="cls-2" x="430.38" y="29.08" width="2.51" height="13.6" rx="1.25" ry="1.25"/><rect class="cls-2" x="435.34" y="29.08" width="2.51" height="13.6" rx="1.25" ry="1.25"/><rect class="cls-2" x="440.31" y="29.08" width="2.51" height="13.6" rx="1.25" ry="1.25"/><rect class="cls-2" x="445.27" y="29.08" width="2.51" height="13.6" rx="1.25" ry="1.25"/><rect class="cls-2" x="450.24" y="29.08" width="2.51" height="13.6" rx="1.25" ry="1.25"/><rect class="cls-2" x="455.2" y="29.08" width="2.51" height="13.6" rx="1.25" ry="1.25"/><rect class="cls-2" x="460.17" y="29.08" width="2.51" height="13.6" rx="1.25" ry="1.25"/><rect class="cls-2" x="465.14" y="29.08" width="2.51" height="13.6" rx="1.25" ry="1.25"/><rect class="cls-2" x="470.1" y="29.08" width="2.51" height="13.6" rx="1.25" ry="1.25"/><rect class="cls-2" x="475.07" y="29.08" width="2.51" height="13.6" rx="1.25" ry="1.25"/><rect class="cls-2" x="480.03" y="29.08" width="2.51" height="13.6" rx="1.25" ry="1.25"/><rect class="cls-2" x="485" y="29.08" width="2.51" height="13.6" rx="1.25" ry="1.25"/><rect class="cls-2" x="489.96" y="29.08" width="2.51" height="13.6" rx="1.25" ry="1.25"/><rect class="cls-2" x="494.93" y="29.08" width="2.51" height="13.6" rx="1.25" ry="1.25"/><rect class="cls-2" x="499.9" y="29.08" width="2.51" height="13.6" rx="1.25" ry="1.25"/><rect class="cls-2" x="504.86" y="29.08" width="2.51" height="13.6" rx="1.25" ry="1.25"/><rect class="cls-2" x="509.83" y="29.08" width="2.51" height="13.6" rx="1.25" ry="1.25"/><rect class="cls-2" x="514.79" y="29.08" width="2.51" height="13.6" rx="1.25" ry="1.25"/><rect class="cls-2" x="519.76" y="29.08" width="2.51" height="13.6" rx="1.25" ry="1.25"/><rect class="cls-2" x="524.73" y="29.08" width="2.51" height="13.6" rx="1.25" ry="1.25"/><rect class="cls-2" x="529.69" y="29.08" width="2.51" height="13.6" rx="1.25" ry="1.25"/><rect class="cls-2" x="534.66" y="29.08" width="2.51" height="13.6" rx="1.25" ry="1.25"/><rect class="cls-2" x="539.62" y="29.08" width="2.51" height="13.6" rx="1.25" ry="1.25"/><rect class="cls-2" x="544.59" y="29.08" width="2.51" height="13.6" rx="1.25" ry="1.25"/><rect class="cls-2" x="549.55" y="29.08" width="2.51" height="13.6" rx="1.25" ry="1.25"/><rect class="cls-2" x="554.52" y="29.08" width="2.51" height="13.6" rx="1.25" ry="1.25"/><rect class="cls-2" x="559.49" y="29.08" width="2.51" height="13.6" rx="1.25" ry="1.25"/><rect class="cls-2" x="564.45" y="29.08" width="2.51" height="13.6" rx="1.25" ry="1.25"/><rect class="cls-2" x="569.42" y="29.08" width="2.51" height="13.6" rx="1.25" ry="1.25"/><rect class="cls-2" x="574.38" y="29.08" width="2.51" height="13.6" rx="1.25" ry="1.25"/><rect class="cls-2" x="579.35" y="29.08" width="2.51" height="13.6" rx="1.25" ry="1.25"/><rect class="cls-2" x="584.31" y="29.08" width="2.51" height="13.6" rx="1.25" ry="1.25"/><rect class="cls-2" x="589.28" y="29.08" width="2.51" height="13.6" rx="1.25" ry="1.25"/><rect class="cls-2" x="594.25" y="29.08" width="2.51" height="13.6" rx="1.25" ry="1.25"/><rect class="cls-2" x="599.21" y="29.08" width="2.51" height="13.6" rx="1.25" ry="1.25"/><rect class="cls-2" x="604.18" y="29.08" width="2.51" height="13.6" rx="1.25" ry="1.25"/><rect class="cls-2" x="609.14" y="29.08" width="2.51" height="13.6" rx="1.25" ry="1.25"/><rect class="cls-2" x="614.11" y="29.08" width="2.51" height="13.6" rx="1.25" ry="1.25"/><rect class="cls-2" x="619.07" y="29.08" width="2.51" height="13.6" rx="1.25" ry="1.25"/><rect class="cls-2" x="624.04" y="29.08" width="2.51" height="13.6" rx="1.25" ry="1.25"/><rect class="cls-2" x="629.01" y="29.08" width="2.51" height="13.6" rx="1.25" ry="1.25"/><rect class="cls-2" x="633.97" y="29.08" width="2.51" height="13.6" rx="1.25" ry="1.25"/><rect class="cls-2" x="638.94" y="29.08" width="2.51" height="13.6" rx="1.25" ry="1.25"/><rect class="cls-2" x="643.9" y="29.08" width="2.51" height="13.6" rx="1.25" ry="1.25"/><rect class="cls-2" x="648.87" y="29.08" width="2.51" height="13.6" rx="1.25" ry="1.25"/><rect class="cls-2" x="653.84" y="29.08" width="2.51" height="13.6" rx="1.25" ry="1.25"/><rect class="cls-2" x="658.8" y="29.08" width="2.51" height="13.6" rx="1.25" ry="1.25"/><rect class="cls-2" x="663.77" y="29.08" width="2.51" height="13.6" rx="1.25" ry="1.25"/><rect class="cls-2" x="668.73" y="29.08" width="2.51" height="13.6" rx="1.25" ry="1.25"/><rect class="cls-2" x="673.7" y="29.08" width="2.51" height="13.6" rx="1.25" ry="1.25"/><rect class="cls-2" x="678.66" y="29.08" width="2.51" height="13.6" rx="1.25" ry="1.25"/><rect class="cls-2" x="683.63" y="29.08" width="2.51" height="13.6" rx="1.25" ry="1.25"/><rect class="cls-2" x="688.6" y="29.08" width="2.51" height="13.6" rx="1.25" ry="1.25"/><rect class="cls-2" x="693.56" y="29.08" width="2.51" height="13.6" rx="1.25" ry="1.25"/><rect class="cls-2" x="698.53" y="29.08" width="2.51" height="13.6" rx="1.25" ry="1.25"/><rect class="cls-2" x="703.49" y="29.08" width="2.51" height="13.6" rx="1.25" ry="1.25"/><rect class="cls-2" x="708.46" y="29.08" width="2.51" height="13.6" rx="1.25" ry="1.25"/><rect class="cls-2" x="713.42" y="29.08" width="2.51" height="13.6" rx="1.25" ry="1.25"/><rect class="cls-2" x="718.39" y="29.08" width="2.51" height="13.6" rx="1.25" ry="1.25"/><rect class="cls-2" x="723.36" y="29.08" width="2.51" height="13.6" rx="1.25" ry="1.25"/><rect class="cls-2" x="728.32" y="29.08" width="2.51" height="13.6" rx="1.25" ry="1.25"/><rect class="cls-2" x="733.29" y="29.08" width="2.51" height="13.6" rx="1.25" ry="1.25"/><rect class="cls-2" x="738.25" y="29.08" width="2.51" height="13.6" rx="1.25" ry="1.25"/><rect class="cls-2" x="743.22" y="29.08" width="2.51" height="13.6" rx="1.25" ry="1.25"/><rect class="cls-2" x="748.18" y="29.08" width="2.51" height="13.6" rx="1.25" ry="1.25"/><rect class="cls-2" x="753.15" y="29.08" width="2.51" height="13.6" rx="1.25" ry="1.25"/><rect class="cls-2" x="758.12" y="29.08" width="2.51" height="13.6" rx="1.25" ry="1.25"/><rect class="cls-2" x="763.08" y="29.08" width="2.51" height="13.6" rx="1.25" ry="1.25"/><rect class="cls-2" x="768.05" y="29.08" width="2.51" height="13.6" rx="1.25" ry="1.25"/><rect class="cls-2" x="773.01" y="29.08" width="2.51" height="13.6" rx="1.25" ry="1.25"/><rect class="cls-2" x="777.98" y="29.08" width="2.51" height="13.6" rx="1.25" ry="1.25"/><rect class="cls-2" x="782.95" y="29.08" width="2.51" height="13.6" rx="1.25" ry="1.25"/><rect class="cls-2" x="787.91" y="29.08" width="2.51" height="13.6" rx="1.25" ry="1.25"/><rect class="cls-2" x="792.88" y="29.08" width="2.51" height="13.6" rx="1.25" ry="1.25"/><rect class="cls-2" x="797.84" y="29.08" width="2.51" height="13.6" rx="1.25" ry="1.25"/><rect class="cls-2" x="802.81" y="29.08" width="2.51" height="13.6" rx="1.25" ry="1.25"/><rect class="cls-2" x="807.77" y="29.08" width="2.51" height="13.6" rx="1.25" ry="1.25"/><rect class="cls-2" x="812.74" y="29.08" width="2.51" height="13.6" rx="1.25" ry="1.25"/><rect class="cls-2" x="817.71" y="29.08" width="2.51" height="13.6" rx="1.25" ry="1.25"/><rect class="cls-2" x="822.67" y="29.08" width="2.51" height="13.6" rx="1.25" ry="1.25"/><rect class="cls-2" x="827.64" y="29.08" width="2.51" height="13.6" rx="1.25" ry="1.25"/><rect class="cls-2" x="832.6" y="29.08" width="2.51" height="13.6" rx="1.25" ry="1.25"/><rect class="cls-2" x="837.57" y="29.08" width="2.51" height="13.6" rx="1.25" ry="1.25"/><rect class="cls-2" x="842.53" y="29.08" width="2.51" height="13.6" rx="1.25" ry="1.25"/><rect class="cls-2" x="847.5" y="29.08" width="2.51" height="13.6" rx="1.25" ry="1.25"/><rect class="cls-2" x="852.47" y="29.08" width="2.51" height="13.6" rx="1.25" ry="1.25"/><rect class="cls-2" x="857.43" y="29.08" width="2.51" height="13.6" rx="1.25" ry="1.25"/><rect class="cls-2" x="862.4" y="29.08" width="2.51" height="13.6" rx="1.25" ry="1.25"/><rect class="cls-2" x="867.36" y="29.08" width="2.51" height="13.6" rx="1.25" ry="1.25"/><rect class="cls-2" x="872.33" y="29.08" width="2.51" height="13.6" rx="1.25" ry="1.25"/><rect class="cls-2" x="877.29" y="29.08" width="2.51" height="13.6" rx="1.25" ry="1.25"/><rect class="cls-2" x="882.26" y="29.08" width="2.51" height="13.6" rx="1.25" ry="1.25"/><rect class="cls-2" x="887.23" y="29.08" width="2.51" height="13.6" rx="1.25" ry="1.25"/><rect class="cls-2" x="892.19" y="29.08" width="2.51" height="13.6" rx="1.25" ry="1.25"/><rect class="cls-2" x="897.16" y="29.08" width="2.51" height="13.6" rx="1.25" ry="1.25"/><rect class="cls-2" x="902.12" y="29.08" width="2.51" height="13.6" rx="1.25" ry="1.25"/><rect class="cls-2" x="907.09" y="29.08" width="2.51" height="13.6" rx="1.25" ry="1.25"/><rect class="cls-2" x="912.06" y="29.08" width="2.51" height="13.6" rx="1.25" ry="1.25"/><rect class="cls-2" x="917.02" y="29.08" width="2.51" height="13.6" rx="1.25" ry="1.25"/><rect class="cls-2" x="921.99" y="29.08" width="2.51" height="13.6" rx="1.25" ry="1.25"/><rect class="cls-2" x="926.95" y="29.08" width="2.51" height="13.6" rx="1.25" ry="1.25"/><rect class="cls-2" x="931.92" y="29.08" width="2.51" height="13.6" rx="1.25" ry="1.25"/><rect class="cls-2" x="936.88" y="29.08" width="2.51" height="13.6" rx="1.25" ry="1.25"/><rect class="cls-2" x="941.85" y="29.08" width="2.51" height="13.6" rx="1.25" ry="1.25"/><rect class="cls-2" x="946.82" y="29.08" width="2.51" height="13.6" rx="1.25" ry="1.25"/><rect class="cls-2" x="951.78" y="29.08" width="2.51" height="13.6" rx="1.25" ry="1.25"/><rect class="cls-2" x="956.75" y="29.08" width="2.51" height="13.6" rx="1.25" ry="1.25"/><rect class="cls-2" x="961.71" y="29.08" width="2.51" height="13.6" rx="1.25" ry="1.25"/><rect class="cls-2" x="966.68" y="29.08" width="2.51" height="13.6" rx="1.25" ry="1.25"/><rect class="cls-2" x="971.64" y="29.08" width="2.51" height="13.6" rx="1.25" ry="1.25"/><rect class="cls-2" x="976.61" y="29.08" width="2.51" height="13.6" rx="1.25" ry="1.25"/><rect class="cls-2" x="981.58" y="29.08" width="2.51" height="13.6" rx="1.25" ry="1.25"/><rect class="cls-2" x="986.54" y="29.08" width="2.51" height="13.6" rx="1.25" ry="1.25"/><rect class="cls-2" x="991.51" y="29.08" width="2.51" height="13.6" rx="1.25" ry="1.25"/><rect class="cls-2" x="996.47" y="29.08" width="2.51" height="13.6" rx="1.25" ry="1.25"/><rect class="cls-2" x="1001.44" y="29.08" width="2.51" height="13.6" rx="1.25" ry="1.25"/><rect class="cls-2" x="1006.4" y="29.08" width="2.51" height="13.6" rx="1.25" ry="1.25"/><rect class="cls-2" x="1011.37" y="29.08" width="2.51" height="13.6" rx="1.25" ry="1.25"/><rect class="cls-2" x="1016.34" y="29.08" width="2.51" height="13.6" rx="1.25" ry="1.25"/><rect class="cls-2" x="1021.3" y="29.08" width="2.51" height="13.6" rx="1.25" ry="1.25"/><rect class="cls-2" x="1026.27" y="29.08" width="2.51" height="13.6" rx="1.25" ry="1.25"/><rect class="cls-2" x="1031.23" y="29.08" width="2.51" height="13.6" rx="1.25" ry="1.25"/><rect class="cls-2" x="1036.2" y="29.08" width="2.51" height="13.6" rx="1.25" ry="1.25"/><rect class="cls-2" x="1041.17" y="29.08" width="2.51" height="13.6" rx="1.25" ry="1.25"/><rect class="cls-2" x="1046.13" y="29.08" width="2.51" height="13.6" rx="1.25" ry="1.25"/><rect class="cls-2" x="1051.1" y="29.08" width="2.51" height="13.6" rx="1.25" ry="1.25"/><rect class="cls-2" x="1056.06" y="29.08" width="2.51" height="13.6" rx="1.25" ry="1.25"/><rect class="cls-2" x="1061.03" y="29.08" width="2.51" height="13.6" rx="1.25" ry="1.25"/><rect class="cls-2" x="1065.99" y="29.08" width="2.51" height="13.6" rx="1.25" ry="1.25"/><rect class="cls-2" x="1070.96" y="29.08" width="2.51" height="13.6" rx="1.25" ry="1.25"/><rect class="cls-2" x="1075.93" y="29.08" width="2.51" height="13.6" rx="1.25" ry="1.25"/><rect class="cls-2" x="1080.89" y="29.08" width="2.51" height="13.6" rx="1.25" ry="1.25"/><rect class="cls-2" x="1085.86" y="29.08" width="2.51" height="13.6" rx="1.25" ry="1.25"/><rect class="cls-2" x="1090.82" y="29.08" width="2.51" height="13.6" rx="1.25" ry="1.25"/><rect class="cls-2" x="1095.79" y="29.08" width="2.51" height="13.6" rx="1.25" ry="1.25"/><rect class="cls-2" x="1100.75" y="29.08" width="2.51" height="13.6" rx="1.25" ry="1.25"/><rect class="cls-2" x="1105.72" y="29.08" width="2.51" height="13.6" rx="1.25" ry="1.25"/><rect class="cls-2" x="1110.69" y="29.08" width="2.51" height="13.6" rx="1.25" ry="1.25"/><rect class="cls-2" x="1115.65" y="29.08" width="2.51" height="13.6" rx="1.25" ry="1.25"/><rect class="cls-2" x="1120.62" y="29.08" width="2.51" height="13.6" rx="1.25" ry="1.25"/><rect class="cls-2" x="1125.58" y="29.08" width="2.51" height="13.6" rx="1.25" ry="1.25"/><rect class="cls-2" x="1130.55" y="29.08" width="2.51" height="13.6" rx="1.25" ry="1.25"/><rect class="cls-2" x="1135.51" y="29.08" width="2.51" height="13.6" rx="1.25" ry="1.25"/><rect class="cls-2" x="1140.48" y="29.08" width="2.51" height="13.6" rx="1.25" ry="1.25"/><rect class="cls-2" x="1145.45" y="29.08" width="2.51" height="13.6" rx="1.25" ry="1.25"/><rect class="cls-2" x="1150.41" y="29.08" width="2.51" height="13.6" rx="1.25" ry="1.25"/><rect class="cls-2" x="1155.38" y="29.08" width="2.51" height="13.6" rx="1.25" ry="1.25"/><rect class="cls-2" x="1160.34" y="29.08" width="2.51" height="13.6" rx="1.25" ry="1.25"/><rect class="cls-2" x="1165.31" y="29.08" width="2.51" height="13.6" rx="1.25" ry="1.25"/><rect class="cls-2" x="1170.28" y="29.08" width="2.51" height="13.6" rx="1.25" ry="1.25"/><rect class="cls-2" x="1175.24" y="29.08" width="2.51" height="13.6" rx="1.25" ry="1.25"/><rect class="cls-2" x="1180.21" y="29.08" width="2.51" height="13.6" rx="1.25" ry="1.25"/><rect class="cls-2" x="1185.17" y="29.08" width="2.51" height="13.6" rx="1.25" ry="1.25"/><rect class="cls-2" x="1190.14" y="29.08" width="2.51" height="13.6" rx="1.25" ry="1.25"/><rect class="cls-2" x="1195.1" y="29.08" width="2.51" height="13.6" rx="1.25" ry="1.25"/><rect class="cls-2" x="1200.07" y="29.08" width="2.51" height="13.6" rx="1.25" ry="1.25"/><rect class="cls-2" x="1205.04" y="29.08" width="2.51" height="13.6" rx="1.25" ry="1.25"/><rect class="cls-2" x="1210" y="29.08" width="2.51" height="13.6" rx="1.25" ry="1.25"/><rect class="cls-2" x="1214.97" y="29.08" width="2.51" height="13.6" rx="1.25" ry="1.25"/><rect class="cls-2" x="1219.93" y="29.08" width="2.51" height="13.6" rx="1.25" ry="1.25"/><rect class="cls-2" x="1224.9" y="29.08" width="2.51" height="13.6" rx="1.25" ry="1.25"/><rect class="cls-2" x="1229.86" y="29.08" width="2.51" height="13.6" rx="1.25" ry="1.25"/><g class="cls-4"><path class="cls-5" d="M28.52,68.09c11.92.85,22.22-7.23,26.22-15.87C63.65,33,44.5,3.89,28.52,4.49h0C12.51,3.89-6.64,33,2.27,52.22c4,8.63,14.3,16.72,26.22,15.87Z" transform="translate(0 -4.48)"/><line class="cls-6" x1="28.5" y1="21.71" x2="28.5" y2="106.2"/><line class="cls-6" x1="28.5" y1="36.11" x2="39.94" y2="24.67"/><line class="cls-6" x1="28.5" y1="51.16" x2="20.28" y2="42.93"/><line class="cls-6" x1="16.14" y1="21.71" x2="13.13" y2="18.7"/><line class="cls-6" x1="39.13" y1="41.27" x2="41.71" y2="43.85"/><line class="cls-6" x1="39.13" y1="13.75" x2="40.96" y2="11.92"/><line class="cls-6" x1="12.93" y1="37.2" x2="9.7" y2="40.42"/><path class="cls-5" d="M58.57,104.16c11.92.85,22.22-7.23,26.22-15.87C93.7,69,74.54,40,58.57,40.56h0C42.55,40,23.4,69,32.31,88.29c4,8.63,14.3,16.72,26.22,15.87Z" transform="translate(0 -4.48)"/><line class="cls-6" x1="58.55" y1="57.78" x2="58.55" y2="142.27"/><line class="cls-6" x1="58.55" y1="72.18" x2="69.99" y2="60.74"/><line class="cls-6" x1="58.55" y1="87.23" x2="50.32" y2="79.01"/><line class="cls-6" x1="46.18" y1="57.78" x2="43.17" y2="54.77"/><line class="cls-6" x1="69.18" y1="77.34" x2="71.76" y2="79.92"/><line class="cls-6" x1="69.18" y1="49.82" x2="71" y2="48"/><line class="cls-6" x1="42.97" y1="73.27" x2="39.75" y2="76.49"/><path class="cls-5" d="M1148,151.82c19.33,1.39,36-11.73,42.52-25.73C1205,94.87,1173.91,47.71,1148,48.68h-.06c-25.91-1-57,46.19-42.52,77.41,6.48,14,23.19,27.12,42.52,25.73Z" transform="translate(0 -4.48)"/><line class="cls-6" x1="1147.96" y1="79.39" x2="1147.96" y2="216.42"/><line class="cls-6" x1="1147.96" y1="102.75" x2="1166.51" y2="84.19"/><line class="cls-6" x1="1147.96" y1="127.16" x2="1134.62" y2="113.82"/><line class="cls-6" x1="1127.91" y1="79.39" x2="1123.03" y2="74.51"/><line class="cls-6" x1="1165.2" y1="111.12" x2="1169.38" y2="115.31"/><line class="cls-6" x1="1165.2" y1="66.49" x2="1168.16" y2="63.53"/><line class="cls-6" x1="1122.7" y1="104.51" x2="1117.47" y2="109.74"/><path class="cls-5" d="M1208.75,43c-7,0-13.42,3.36-18.65,9l12.9,12.9h-21a64.13,64.13,0,0,0-4.83,24.89c0,25.87,14.14,46.84,31.57,46.84s31.57-21,31.57-46.84S1226.18,43,1208.75,43Z" transform="translate(0 -4.48)"/><line class="cls-6" x1="1209.03" y1="73.85" x2="1209.03" y2="210.6"/><line class="cls-6" x1="1209.03" y1="92.76" x2="1224.04" y2="77.74"/><line class="cls-6" x1="1209.03" y1="112.51" x2="1198.24" y2="101.71"/><line class="cls-6" x1="1192.81" y1="73.85" x2="1188.86" y2="69.9"/><line class="cls-6" x1="1222.98" y1="99.53" x2="1226.37" y2="102.92"/><line class="cls-6" x1="1222.98" y1="63.41" x2="1225.38" y2="61.02"/><line class="cls-6" x1="1188.59" y1="94.18" x2="1184.36" y2="98.42"/><ellipse class="cls-5" cx="468.55" cy="75.73" rx="33.05" ry="33.07"/><ellipse class="cls-5" cx="493.51" cy="82.66" rx="26.12" ry="26.13"/><ellipse class="cls-5" cx="432.49" cy="93.3" rx="26.12" ry="26.13"/></g></g></g></svg>