<svg xmlns="http://www.w3.org/2000/svg" viewBox="0 0 63.88 63.48"><defs><style>.cls-1,.cls-3{fill:#fff;}.cls-1,.cls-4,.cls-5{stroke:#621a49;stroke-miterlimit:10;}.cls-1,.cls-5{stroke-width:2px;}.cls-2{fill:#621a49;}.cls-4,.cls-5{fill:none;}</style></defs><title>Asset 4</title><g id="Layer_2" data-name="Layer 2"><g id="_2-cidade" data-name="2-cidade"><path class="cls-1" d="M61.59,30.67A29.67,29.67,0,0,0,31.92,1C15.54,1,2.71,14.28,2.71,30.67"/><rect class="cls-2" x="42.49" y="21.75" width="21.38" height="41.55"/><rect class="cls-3" x="1" y="22.75" width="40.49" height="39.41"/><path class="cls-2" d="M40.49,23.75V61.15H2V23.75H40.49m2-2H0V63.15H42.49V21.75Z"/><path class="cls-4" d="M10,32.77a2.66,2.66,0,1,1,5.32,0V43H10Z"/><line class="cls-4" x1="12.7" y1="30.11" x2="12.7" y2="43.03"/><line class="cls-4" x1="10.04" y1="36.86" x2="15.28" y2="36.86"/><line class="cls-4" x1="8.16" y1="43.17" x2="17.23" y2="43.17"/><path class="cls-4" d="M24,32.77a2.66,2.66,0,1,1,5.32,0V43H24Z"/><line class="cls-4" x1="26.63" y1="30.11" x2="26.63" y2="43.03"/><line class="cls-4" x1="23.97" y1="36.86" x2="29.21" y2="36.86"/><line class="cls-4" x1="22.1" y1="43.17" x2="31.16" y2="43.17"/><path class="cls-5" d="M13.26,54.29c0-1.71,3-3.1,6.73-3.1s6.73,1.39,6.73,3.1v8.18H13.26Z"/></g></g></svg>