<svg xmlns="http://www.w3.org/2000/svg" viewBox="0 0 126.57 117"><defs><style>.cls-1{fill:#007695;stroke:#007695;}.cls-1,.cls-2{stroke-linecap:round;stroke-linejoin:round;stroke-width:2px;}.cls-2{fill:#00aac8;stroke:#00aac8;}</style></defs><title>Asset 19</title><g id="Layer_2" data-name="Layer 2"><g id="BG"><polyline class="cls-1" points="52.65 101.92 53.6 49.23 56.36 49.23 57.29 100.48"/><path class="cls-2" d="M55.78,61.81c-1.69-6.3-.93-7.88.42-8.24s2.8.62,4.49,6.93,2,11.71.6,12.07S57.47,68.11,55.78,61.81Z"/><path class="cls-2" d="M43.87,43.67c6.3,1.69,7.29,3.13,6.93,4.49s-1.94,2.11-8.24.42S31.43,44.42,31.8,43.06,37.56,42,43.87,43.67Z"/><path class="cls-2" d="M65.54,42.42c-4.61,4.61-6.36,4.75-7.35,3.76s-.86-2.74,3.76-7.35,9.16-7.55,10.15-6.56S70.15,37.8,65.54,42.42Z"/><circle class="cls-2" cx="55.06" cy="49.3" r="3.65" transform="translate(-18.73 53.37) rotate(-45)"/><circle class="cls-1" cx="55.06" cy="49.3" r="1.29" transform="translate(-18.73 53.37) rotate(-45)"/><polyline class="cls-1" points="106.48 87.57 107.62 25 110.9 25 112 85.86"/><path class="cls-2" d="M95.19,21.33c7.74.4,9.24,1.84,9.16,3.5s-1.73,2.93-9.47,2.53S80.93,25.28,81,23.61,87.45,20.93,95.19,21.33Z"/><path class="cls-2" d="M120.05,14.53c-4.22,6.5-6.21,7.09-7.61,6.18s-1.67-3,2.55-9.47,8.77-11,10.17-10.12S124.27,8,120.05,14.53Z"/><path class="cls-2" d="M113.52,39.46c-3.52-6.9-3-8.92-1.55-9.68s3.4,0,6.92,6.94,5.17,13.11,3.68,13.87S117,46.37,113.52,39.46Z"/><circle class="cls-2" cx="109.59" cy="25.11" r="4.33" transform="translate(0.55 52.5) rotate(-27.01)"/><circle class="cls-1" cx="109.59" cy="25.11" r="1.53" transform="translate(0.55 52.5) rotate(-27.01)"/><polyline class="cls-1" points="9.96 116 10.71 74.68 12.85 74.68 13.57 114.75"/><path class="cls-2" d="M9.61,65.08c2.16,4.57,1.8,5.88.82,6.34S8.2,71.33,6,66.76s-3.11-8.66-2.13-9.12S7.45,60.51,9.61,65.08Z"/><path class="cls-2" d="M21.2,77.27c-5-.42-6-1.38-5.9-2.47s1.19-1.88,6.23-1.46,9.05,1.64,9,2.72S26.23,77.69,21.2,77.27Z"/><path class="cls-2" d="M4.85,81.21c2.88-4.15,4.19-4.5,5.09-3.88s1,2-1.85,6.12-5.94,7-6.83,6.4S2,85.37,4.85,81.21Z"/><circle class="cls-2" cx="11.88" cy="74.52" r="2.83" transform="translate(-56.13 41.82) rotate(-55.26)"/><circle class="cls-1" cx="11.88" cy="74.52" r="1" transform="translate(-56.13 41.82) rotate(-55.26)"/></g></g></svg>