<svg xmlns="http://www.w3.org/2000/svg" viewBox="0 0 75.79 71.6"><defs><style>.cls-1{fill:#fff;}.cls-1,.cls-2{stroke:#621a49;stroke-miterlimit:10;stroke-width:2px;}.cls-2{fill:none;}.cls-3{fill:#621a49;}</style></defs><title>Asset 7</title><g id="Layer_2" data-name="Layer 2"><g id="_2-cidade" data-name="2-cidade"><polygon class="cls-1" points="73.04 47.13 1.9 47.13 1.86 70.6 73 70.6 73.04 47.13"/><rect class="cls-1" x="1.87" y="2.21" width="71.14" height="22.23"/><path class="cls-2" d="M19.13,10.69c0-1,1.55-1.85,3.46-1.85S26,9.67,26,10.69v7.13H19.13Z"/><rect class="cls-3" x="6.76" y="17.48" width="35.51" height="2.81"/><rect class="cls-3" width="74.86" height="4.42"/><rect class="cls-3" x="62.18" y="9.51" width="2.69" height="4.96"/><rect class="cls-2" x="43.28" y="9.51" width="21.95" height="4.96"/><rect class="cls-1" x="1.87" y="24.44" width="71.14" height="22.23"/><path class="cls-2" d="M19.13,32.92c0-1,1.55-1.85,3.46-1.85S26,31.9,26,32.92V40H19.13Z"/><rect class="cls-3" x="6.76" y="39.71" width="35.51" height="2.81"/><rect class="cls-3" y="22.23" width="74.87" height="4.42"/><polyline class="cls-3" points="62.18 31.74 64.87 31.74 64.87 36.7 62.18 36.7"/><rect class="cls-2" x="43.28" y="31.74" width="21.95" height="4.96"/><polygon class="cls-2" points="49.77 58.25 26.09 58.25 26.05 70.6 49.73 70.6 49.77 58.25"/><polygon class="cls-3" points="49.77 58.25 46.22 58.25 46.17 70.6 49.73 70.6 49.77 58.25"/><rect class="cls-3" x="0.92" y="44.95" width="74.87" height="4.42"/></g></g></svg>