<svg xmlns="http://www.w3.org/2000/svg" viewBox="0 0 177.87 20.24"><defs><style>.cls-1{fill:#57993d;}</style></defs><title>Asset 9</title><g id="Layer_2" data-name="Layer 2"><g id="_2-cidade" data-name="2-cidade"><path class="cls-1" d="M84.3,0a5.61,5.61,0,0,0-5.62,5.6,5.62,5.62,0,0,0-11.24,0,5.62,5.62,0,0,0-11.24,0A5.62,5.62,0,0,0,45,5.6a5.62,5.62,0,0,0-11.24,0,5.62,5.62,0,0,0-11.24,0,5.62,5.62,0,0,0-11.24,0A5.62,5.62,0,0,0,0,5.6V20.24H89.92V5.6A5.61,5.61,0,0,0,84.3,0Z"/><path class="cls-1" d="M172.37,0a5.5,5.5,0,0,0-5.5,5.5,5.5,5.5,0,1,0-11,0,5.5,5.5,0,1,0-11,0,5.5,5.5,0,0,0-11,0,5.5,5.5,0,0,0-11,0,5.5,5.5,0,1,0-11,0,5.5,5.5,0,0,0-11,0,5.5,5.5,0,0,0-11,0V19.9h88V5.5A5.5,5.5,0,0,0,172.37,0Z"/></g></g></svg>