<svg xmlns="http://www.w3.org/2000/svg" viewBox="0 0 87.01 40.1"><defs><style>.cls-1{fill:#d10843;}.cls-2{fill:#fff;}.cls-3{fill:#621a49;}.cls-4{fill:#b42a36;}.cls-5{fill:none;stroke:#fff;stroke-miterlimit:10;}</style></defs><title>Asset 39</title><g id="Layer_2" data-name="Layer 2"><g id="_0-veículos" data-name="0-veículos"><polyline class="cls-1" points="87 29.42 87 33.39 52.6 33.34 42.59 17.92 40.03 0.21 57.36 0.16 62.7 18.5 62.78 18.5 87 29.42"/><polygon class="cls-2" points="54.67 4.16 44.77 4.15 48.01 15.08 48.06 15.08 57.91 15.09 54.67 4.16"/><ellipse class="cls-3" cx="29.31" cy="33.3" rx="6.76" ry="6.75" transform="translate(-4.03 62.57) rotate(-89.93)"/><ellipse class="cls-3" cx="60.62" cy="33.34" rx="6.76" ry="6.75" transform="translate(27.2 93.92) rotate(-89.93)"/><polygon class="cls-4" points="45.53 18.47 45.44 18.47 40.11 0.14 12.41 0.1 7.03 18.42 3.98 18.42 0.01 22.38 0 33.27 69.75 33.36 69.75 29.4 45.53 18.47"/><polygon class="cls-2" points="41.03 17.83 37.07 4.21 18.5 4.18 14.5 17.79 41.03 17.83"/><ellipse class="cls-3" cx="13.3" cy="33.28" rx="6.76" ry="6.75" transform="translate(-20 46.54) rotate(-89.93)"/><ellipse class="cls-2" cx="13.3" cy="33.28" rx="3.05" ry="3.04" transform="translate(-20 46.54) rotate(-89.93)"/><ellipse class="cls-3" cx="44.61" cy="33.32" rx="6.76" ry="6.75" transform="translate(11.24 77.89) rotate(-89.93)"/><ellipse class="cls-2" cx="44.61" cy="33.32" rx="3.05" ry="3.04" transform="translate(11.24 77.89) rotate(-89.93)"/><polyline class="cls-5" points="40.11 0.14 45.44 18.47 45.53 18.47 69.75 29.4 69.75 33.36"/></g></g></svg>