<svg xmlns="http://www.w3.org/2000/svg" viewBox="0 0 42 71"><defs><style>.cls-1{fill:#007695;stroke:#007695;}.cls-1,.cls-2{stroke-linecap:round;stroke-linejoin:round;stroke-width:2px;}.cls-2{fill:#00aac8;stroke:#00aac8;}</style></defs><title>Asset 14</title><g id="Layer_2" data-name="Layer 2"><g id="_2-cidade" data-name="2-cidade"><polygon class="cls-1" points="21.47 70 22.55 18.28 25.27 18.28 26.05 68.55 21.47 70"/><path class="cls-2" d="M24.7,30.94c-1.67-6.35-.92-7.93.42-8.3s2.76.63,4.43,7,1.93,11.79.6,12.15S26.37,37.29,24.7,30.94Z"/><path class="cls-2" d="M12.94,12.67c6.22,1.7,7.2,3.15,6.84,4.52s-1.92,2.13-8.14.43S.66,13.43,1,12.07,6.71,11,12.94,12.67Z"/><path class="cls-2" d="M34.34,11.42c-4.56,4.65-6.28,4.78-7.26,3.78s-.85-2.75,3.71-7.4,9-7.6,10-6.6S38.89,6.77,34.34,11.42Z"/><path class="cls-2" d="M26.54,20.94a3.55,3.55,0,0,1-5.09,0,3.72,3.72,0,0,1,0-5.19,3.55,3.55,0,0,1,5.09,0A3.72,3.72,0,0,1,26.54,20.94Z"/><path class="cls-1" d="M24.89,19.26a1.26,1.26,0,0,1-1.8,0,1.32,1.32,0,0,1,0-1.84,1.26,1.26,0,0,1,1.8,0A1.32,1.32,0,0,1,24.89,19.26Z"/></g></g></svg>