<svg xmlns="http://www.w3.org/2000/svg" viewBox="0 0 63.33 63.26"><defs><style>.cls-1{fill:#00aac8;stroke:#00aac8;}.cls-1,.cls-2{stroke-linecap:round;stroke-linejoin:round;stroke-width:2px;}.cls-2{fill:#007695;stroke:#007695;}.cls-3{fill:none;}</style></defs><title>Asset 84</title><g id="Layer_2" data-name="Layer 2"><g id="_2-cidade" data-name="2-cidade"><path class="cls-1" d="M17.44,27.91c7.64.4,9.13,1.81,9,3.45s-1.71,2.89-9.35,2.49S3.37,31.8,3.45,30.16,9.8,27.51,17.44,27.91Z"/><path class="cls-1" d="M42,21.19c-4.17,6.41-6.13,7-7.51,6.1S32.83,24.36,37,17.95,45.66,7.07,47,8,46.17,14.78,42,21.19Z"/><path class="cls-1" d="M35.54,45.79C32.07,39,32.55,37,34,36.24s3.36,0,6.84,6.84S46,56,44.49,56.77,39,52.6,35.54,45.79Z"/><circle class="cls-1" cx="31.66" cy="31.63" r="4.28" transform="translate(-10.9 17.81) rotate(-26.98)"/><circle class="cls-2" cx="31.66" cy="31.63" r="1.51" transform="translate(-10.9 17.81) rotate(-26.98)"/><path class="cls-3" d="M3.46,46A31.65,31.65,0,1,1,46,59.8,31.61,31.61,0,0,1,3.46,46Z"/></g></g></svg>