<svg xmlns="http://www.w3.org/2000/svg" viewBox="0 0 50 33.17"><defs><style>.cls-1{fill:#57993d;stroke:#57993d;stroke-miterlimit:10;}</style></defs><title>Asset 17</title><g id="Layer_2" data-name="Layer 2"><g id="_2-cidade" data-name="2-cidade"><path class="cls-1" d="M8.51,9.75c0,2.27-2.08,4.63-2.08,4.63S4.36,12,4.36,9.75A6.4,6.4,0,0,1,6.44,5.63,6.4,6.4,0,0,1,8.51,9.75Z"/><path class="cls-1" d="M10.9,15.32a6.53,6.53,0,0,1-4.41,1.46A6.37,6.37,0,0,1,8,12.41,6.53,6.53,0,0,1,12.37,11,6.37,6.37,0,0,1,10.9,15.32Z"/><path class="cls-1" d="M2,15.32A6.37,6.37,0,0,1,.5,11a6.53,6.53,0,0,1,4.41,1.46,6.37,6.37,0,0,1,1.47,4.37A6.53,6.53,0,0,1,2,15.32Z"/><path class="cls-1" d="M21.56,4.78c0,2.27-2.08,4.63-2.08,4.63S17.4,7.06,17.4,4.78A6.4,6.4,0,0,1,19.48.67,6.4,6.4,0,0,1,21.56,4.78Z"/><path class="cls-1" d="M23.94,10.36a6.53,6.53,0,0,1-4.41,1.46A6.37,6.37,0,0,1,21,7.45,6.53,6.53,0,0,1,25.41,6,6.37,6.37,0,0,1,23.94,10.36Z"/><path class="cls-1" d="M15,10.36A6.37,6.37,0,0,1,13.55,6,6.53,6.53,0,0,1,18,7.45a6.37,6.37,0,0,1,1.47,4.37A6.53,6.53,0,0,1,15,10.36Z"/><path class="cls-1" d="M20.56,17.69c0,2.27-2.08,4.63-2.08,4.63S16.4,20,16.4,17.69a6.4,6.4,0,0,1,2.08-4.12A6.4,6.4,0,0,1,20.56,17.69Z"/><path class="cls-1" d="M22.94,23.26a6.53,6.53,0,0,1-4.41,1.46A6.37,6.37,0,0,1,20,20.35a6.53,6.53,0,0,1,4.41-1.46A6.37,6.37,0,0,1,22.94,23.26Z"/><path class="cls-1" d="M14,23.26a6.37,6.37,0,0,1-1.47-4.37A6.53,6.53,0,0,1,17,20.35a6.37,6.37,0,0,1,1.47,4.37A6.53,6.53,0,0,1,14,23.26Z"/><path class="cls-1" d="M33.6,12.73c0,2.27-2.08,4.63-2.08,4.63S29.44,15,29.44,12.73a6.4,6.4,0,0,1,2.08-4.12A6.4,6.4,0,0,1,33.6,12.73Z"/><path class="cls-1" d="M36,18.3a6.53,6.53,0,0,1-4.41,1.46A6.37,6.37,0,0,1,33,15.39a6.53,6.53,0,0,1,4.41-1.46A6.37,6.37,0,0,1,36,18.3Z"/><path class="cls-1" d="M27.06,18.3a6.37,6.37,0,0,1-1.47-4.37A6.53,6.53,0,0,1,30,15.39a6.37,6.37,0,0,1,1.47,4.37A6.53,6.53,0,0,1,27.06,18.3Z"/><path class="cls-1" d="M32.6,25.64c0,2.27-2.08,4.63-2.08,4.63s-2.08-2.36-2.08-4.63a6.4,6.4,0,0,1,2.08-4.12A6.4,6.4,0,0,1,32.6,25.64Z"/><path class="cls-1" d="M35,31.21a6.53,6.53,0,0,1-4.41,1.46A6.37,6.37,0,0,1,32,28.3a6.53,6.53,0,0,1,4.41-1.46A6.37,6.37,0,0,1,35,31.21Z"/><path class="cls-1" d="M26.06,31.21a6.37,6.37,0,0,1-1.47-4.37A6.53,6.53,0,0,1,29,28.3a6.37,6.37,0,0,1,1.47,4.37A6.53,6.53,0,0,1,26.06,31.21Z"/><path class="cls-1" d="M45.64,20.67c0,2.27-2.08,4.63-2.08,4.63s-2.08-2.36-2.08-4.63a6.4,6.4,0,0,1,2.08-4.12A6.4,6.4,0,0,1,45.64,20.67Z"/><path class="cls-1" d="M48,26.24a6.53,6.53,0,0,1-4.41,1.46,6.37,6.37,0,0,1,1.47-4.37,6.53,6.53,0,0,1,4.41-1.46A6.37,6.37,0,0,1,48,26.24Z"/><path class="cls-1" d="M39.1,26.24a6.37,6.37,0,0,1-1.47-4.37A6.53,6.53,0,0,1,42,23.33a6.37,6.37,0,0,1,1.47,4.37A6.53,6.53,0,0,1,39.1,26.24Z"/></g></g></svg>