<svg xmlns="http://www.w3.org/2000/svg" viewBox="0 0 88.03 89.15"><defs><style>.cls-1{fill:#57993d;}.cls-2{fill:none;stroke:#063e2e;stroke-miterlimit:10;stroke-width:2px;}</style></defs><title>Asset 37</title><g id="Layer_2" data-name="Layer 2"><g id="_2-cidade" data-name="2-cidade"><path class="cls-1" d="M65,59.15c8.21.58,15.31-4.92,18.06-10.78C89.23,35.28,76,15.51,65,15.92h0c-11-.41-24.2,19.36-18.06,32.44C49.69,54.23,56.79,59.73,65,59.15Z"/><line class="cls-2" x1="65.02" y1="30.67" x2="65.02" y2="88.1"/><line class="cls-2" x1="65.02" y1="40.46" x2="72.9" y2="32.68"/><line class="cls-2" x1="65.02" y1="50.69" x2="59.35" y2="45.1"/><line class="cls-2" x1="56.5" y1="30.67" x2="54.42" y2="28.62"/><line class="cls-2" x1="72.34" y1="43.97" x2="74.12" y2="45.72"/><line class="cls-2" x1="72.34" y1="25.26" x2="73.6" y2="24.02"/><line class="cls-2" x1="54.28" y1="41.2" x2="52.06" y2="43.39"/><path class="cls-1" d="M25.31,0a13.42,13.42,0,0,0-9.79,4.69l6.77,6.68h-11A32.83,32.83,0,0,0,8.73,24.26c0,13.4,7.42,24.26,16.58,24.26S41.89,37.66,41.89,24.26,34.46,0,25.31,0Z"/><line class="cls-2" x1="25.46" y1="18.32" x2="25.46" y2="89.15"/><line class="cls-2" x1="25.46" y1="28.11" x2="33.34" y2="20.33"/><line class="cls-2" x1="25.46" y1="38.34" x2="19.79" y2="32.75"/><line class="cls-2" x1="16.94" y1="18.32" x2="14.87" y2="16.28"/><line class="cls-2" x1="32.78" y1="31.62" x2="34.56" y2="33.38"/><line class="cls-2" x1="32.78" y1="12.91" x2="34.04" y2="11.67"/><line class="cls-2" x1="14.73" y1="28.85" x2="12.51" y2="31.04"/><path class="cls-1" d="M82.53,67.7A5.52,5.52,0,0,0,77,73.24a5.5,5.5,0,1,0-11,0,5.5,5.5,0,1,0-11,0,5.5,5.5,0,1,0-11,0,5.5,5.5,0,1,0-11,0,5.5,5.5,0,1,0-11,0,5.5,5.5,0,1,0-11,0,5.5,5.5,0,1,0-11,0V87.76H88V73.24A5.52,5.52,0,0,0,82.53,67.7Z"/></g></g></svg>