<svg xmlns="http://www.w3.org/2000/svg" viewBox="0 0 191.66 66.28"><defs><style>.cls-1{fill:#c2d1d4;}.cls-1,.cls-2,.cls-3,.cls-5{stroke:#5f7175;}.cls-1,.cls-2,.cls-3,.cls-4,.cls-5{stroke-miterlimit:10;stroke-width:2px;}.cls-2{fill:#fff;}.cls-3{fill:#5f7175;}.cls-4{fill:none;stroke:#fff;}.cls-5{fill:#e4e9ec;}</style></defs><title>Asset 28</title><g id="Layer_2" data-name="Layer 2"><g id="_2-cidade" data-name="2-cidade"><rect class="cls-1" x="26.29" y="27.83" width="151.73" height="37.44"/><rect class="cls-2" x="152.73" y="53.42" width="12.64" height="11.86" transform="translate(318.1 118.7) rotate(180)"/><rect class="cls-1" x="1" y="53.42" width="151.73" height="11.86"/><rect class="cls-3" x="178.02" y="27.83" width="12.64" height="37.44" transform="translate(368.68 93.11) rotate(180)"/><line class="cls-4" x1="38.3" y1="40.31" x2="165.37" y2="40.31"/><line class="cls-4" x1="38.3" y1="47.18" x2="165.37" y2="47.18"/><rect class="cls-5" x="51.58" y="15.35" width="101.15" height="12.48"/><rect class="cls-3" x="152.73" y="15.35" width="12.64" height="12.48"/><path class="cls-2" d="M76.23,15.35H63.59V2.87A13.94,13.94,0,0,1,69.81,1a15,15,0,0,1,6.43,1.87Z"/><path class="cls-2" d="M101.52,15.35H88.88V2.87A13.94,13.94,0,0,1,95.09,1a15,15,0,0,1,6.43,1.87Z"/><path class="cls-2" d="M126.81,15.35H114.17V2.87A13.94,13.94,0,0,1,120.38,1a15,15,0,0,1,6.43,1.87Z"/><path class="cls-2" d="M152.1,15.35H139.45V2.87A13.94,13.94,0,0,1,145.67,1a15,15,0,0,1,6.43,1.87Z"/></g></g></svg>