<svg xmlns="http://www.w3.org/2000/svg" viewBox="0 0 229.6 101.85"><defs><style>.cls-1,.cls-4{fill:#fff;}.cls-1,.cls-2,.cls-3,.cls-5{stroke:#5f7175;stroke-miterlimit:10;stroke-width:2px;}.cls-2{fill:#99adb3;}.cls-3{fill:#5f7175;}.cls-5{fill:none;}</style></defs><title>Asset 26</title><g id="Layer_2" data-name="Layer 2"><g id="_2-cidade" data-name="2-cidade"><rect class="cls-1" x="203.31" y="75.89" width="25.29" height="24.96"/><rect class="cls-2" x="64.22" y="75.89" width="151.73" height="24.96"/><path class="cls-3" d="M26.29,38.44H13.64V26a13.94,13.94,0,0,1,6.22-1.87A15,15,0,0,1,26.29,26Z"/><path class="cls-3" d="M51.58,38.44H38.93V26a13.94,13.94,0,0,1,6.22-1.87A15,15,0,0,1,51.58,26Z"/><path class="cls-3" d="M76.87,38.44H64.22V26a13.94,13.94,0,0,1,6.22-1.87A15,15,0,0,1,76.87,26Z"/><path class="cls-3" d="M102.15,38.44H89.51V26a13.94,13.94,0,0,1,6.22-1.87A15,15,0,0,1,102.15,26Z"/><rect class="cls-3" x="140.09" y="1" width="50.58" height="99.85"/><rect class="cls-1" x="190.66" y="1" width="12.64" height="99.85" transform="translate(393.97 101.85) rotate(180)"/><rect class="cls-1" x="13.64" y="38.44" width="101.15" height="62.4"/><rect class="cls-4" x="148.3" y="9.11" width="8.85" height="8.74"/><rect class="cls-4" x="163.48" y="9.11" width="8.85" height="8.74"/><rect class="cls-4" x="148.3" y="24.71" width="8.85" height="8.74"/><rect class="cls-4" x="163.48" y="24.71" width="8.85" height="8.74"/><rect class="cls-4" x="148.3" y="40.31" width="8.85" height="8.74"/><rect class="cls-4" x="163.48" y="40.31" width="8.85" height="8.74"/><rect class="cls-4" x="148.3" y="55.92" width="8.85" height="8.74"/><rect class="cls-4" x="163.48" y="55.92" width="8.85" height="8.74"/><rect class="cls-2" x="13.64" y="38.44" width="88.51" height="62.4"/><rect class="cls-1" x="25.66" y="50.3" width="63.85" height="13.1"/><line class="cls-5" x1="26.29" y1="75.89" x2="26.29" y2="88.37"/><line class="cls-5" x1="38.93" y1="75.89" x2="38.93" y2="88.37"/><line class="cls-5" x1="51.58" y1="75.89" x2="51.58" y2="88.37"/><line class="cls-5" x1="64.22" y1="75.89" x2="64.22" y2="88.37"/><line class="cls-5" x1="76.87" y1="75.89" x2="76.87" y2="88.37"/><line class="cls-5" x1="89.51" y1="75.89" x2="89.51" y2="88.37"/><rect class="cls-1" x="1" y="87.74" width="63.22" height="13.1"/></g></g></svg>