<svg xmlns="http://www.w3.org/2000/svg" viewBox="0 0 90 73.34"><defs><style>.cls-1,.cls-5{fill:#5f7175;}.cls-1,.cls-2,.cls-3,.cls-4{stroke:#5f7175;stroke-miterlimit:10;stroke-width:2px;}.cls-2{fill:#c2d1d4;}.cls-3{fill:#99adb3;}.cls-4{fill:#fff;}</style></defs><title>Asset 23</title><g id="Layer_2" data-name="Layer 2"><g id="_2-cidade" data-name="2-cidade"><path class="cls-1" d="M35,4.74C35,1.3,32.19,1,28.7,1s-6.32.3-6.32,3.74v31.2H35Z"/><path class="cls-1" d="M60.31,4.74C60.31,1.3,57.48,1,54,1s-6.32.3-6.32,3.74v31.2H60.31Z"/><rect class="cls-1" x="63.31" y="22.95" width="25.29" height="12.48" transform="translate(151.91 58.37) rotate(180)"/><rect class="cls-2" x="13.1" y="22.95" width="51.21" height="12.48"/><rect class="cls-3" x="76.95" y="34.8" width="12.05" height="37.53" transform="translate(165.96 107.14) rotate(180)"/><polygon class="cls-4" points="1.09 34.8 76.95 34.8 76.95 72.33 1 72.33 1.09 34.8"/><rect class="cls-5" x="6.15" y="40.42" width="7.59" height="7.49"/><rect class="cls-5" x="18.79" y="40.42" width="7.59" height="7.49"/><rect class="cls-5" x="31.43" y="40.42" width="7.59" height="7.49"/><rect class="cls-5" x="44.08" y="40.42" width="7.59" height="7.49"/><rect class="cls-5" x="56.72" y="40.42" width="7.59" height="7.49"/><rect class="cls-5" x="6.15" y="52.28" width="7.59" height="7.49"/><rect class="cls-5" x="18.79" y="52.28" width="7.59" height="7.49"/><rect class="cls-5" x="31.43" y="52.28" width="7.59" height="7.49"/><rect class="cls-5" x="44.08" y="52.28" width="7.59" height="7.49"/><rect class="cls-5" x="56.72" y="52.28" width="7.59" height="7.49"/></g></g></svg>