<svg xmlns="http://www.w3.org/2000/svg" viewBox="0 0 89.6 51.92"><defs><style>.cls-1,.cls-5{fill:#5f7175;}.cls-1,.cls-2,.cls-3,.cls-4{stroke:#5f7175;stroke-miterlimit:10;stroke-width:2px;}.cls-2{fill:#c2d1d4;}.cls-3{fill:#99adb3;}.cls-4{fill:#fff;}</style></defs><title>Asset 2</title><g id="Layer_2" data-name="Layer 2"><g id="_2-cidade" data-name="2-cidade"><rect class="cls-1" x="63.31" y="1" width="25.29" height="12.48" transform="translate(151.91 14.48) rotate(180)"/><rect class="cls-2" x="13.1" y="1" width="51.21" height="12.48"/><rect class="cls-3" x="76.95" y="12.86" width="12.64" height="38.07"/><polygon class="cls-4" points="1.09 12.86 76.95 12.86 76.95 50.92 1 50.92 1.09 12.86"/><rect class="cls-5" x="6.15" y="18.47" width="7.59" height="7.49"/><rect class="cls-5" x="18.79" y="18.47" width="7.59" height="7.49"/><rect class="cls-5" x="31.43" y="18.47" width="7.59" height="7.49"/><rect class="cls-5" x="44.08" y="18.47" width="7.59" height="7.49"/><rect class="cls-5" x="56.72" y="18.47" width="7.59" height="7.49"/><rect class="cls-5" x="6.15" y="30.33" width="7.59" height="7.49"/><rect class="cls-5" x="18.79" y="30.33" width="7.59" height="7.49"/><rect class="cls-5" x="31.43" y="30.33" width="7.59" height="7.49"/><rect class="cls-5" x="44.08" y="30.33" width="7.59" height="7.49"/><rect class="cls-5" x="56.72" y="30.33" width="7.59" height="7.49"/></g></g></svg>