<svg xmlns="http://www.w3.org/2000/svg" viewBox="0 0 112.72 132.08"><defs><style>.cls-1{fill:none;}.cls-1,.cls-2,.cls-3{stroke:#fff;stroke-width:2px;}.cls-1,.cls-2{stroke-linejoin:round;}.cls-2,.cls-3{fill:#fff;}.cls-3{stroke-miterlimit:10;}</style></defs><title>Asset 36</title><g id="Layer_2" data-name="Layer 2"><g id="_3-camada" data-name="3-camada"><rect class="cls-1" x="1" y="23.65" width="88.83" height="107.43"/><line class="cls-1" x1="11.01" y1="33.36" x2="77.32" y2="33.36"/><line class="cls-1" x1="11.01" y1="40.48" x2="77.32" y2="40.48"/><line class="cls-1" x1="11.01" y1="47.6" x2="77.32" y2="47.6"/><line class="cls-1" x1="11.01" y1="54.71" x2="77.32" y2="54.71"/><line class="cls-1" x1="11.01" y1="61.83" x2="77.32" y2="61.83"/><line class="cls-1" x1="11.01" y1="68.95" x2="77.32" y2="68.95"/><line class="cls-1" x1="11.01" y1="76.07" x2="77.32" y2="76.07"/><line class="cls-1" x1="11.01" y1="83.19" x2="77.32" y2="83.19"/><line class="cls-1" x1="11.01" y1="90.31" x2="77.32" y2="90.31"/><rect class="cls-2" x="89.83" y="23.65" width="21.89" height="107.43" transform="translate(201.55 154.73) rotate(180)"/><path class="cls-3" d="M24.15,4.88c0-3.57-2.8-3.88-6.26-3.88s-6.26.31-6.26,3.88V23H24.15Z"/><path class="cls-3" d="M51,4.88C51,1.31,48.24,1,44.79,1s-6.26.31-6.26,3.88V23H51Z"/><path class="cls-3" d="M77.94,4.88c0-3.57-2.8-3.88-6.26-3.88s-6.26.31-6.26,3.88V23H77.94Z"/></g></g></svg>