<svg xmlns="http://www.w3.org/2000/svg" viewBox="0 0 115.27 100.56"><defs><style>.cls-1,.cls-3{fill:#5f7175;}.cls-1,.cls-5,.cls-6,.cls-7{stroke:#5f7175;}.cls-1,.cls-4,.cls-5,.cls-6,.cls-7{stroke-miterlimit:10;stroke-width:2px;}.cls-2{fill:#99adb3;}.cls-4,.cls-6{fill:none;}.cls-4{stroke:#fff;}.cls-5{fill:#e4e9ec;}.cls-7{fill:#fff;}</style></defs><title>Asset 22</title><g id="Layer_2" data-name="Layer 2"><g id="_2-cidade" data-name="2-cidade"><polyline class="cls-1" points="0.43 11.71 22.89 1.11 45.36 11.71"/><rect class="cls-2" x="0.43" y="11.72" width="44.93" height="87.2"/><rect class="cls-3" x="30.74" y="29.16" width="2.2" height="4.77"/><rect class="cls-3" x="17.14" y="43.18" width="2.2" height="4.77"/><rect class="cls-3" x="31.01" y="58.43" width="2.2" height="4.77"/><rect class="cls-3" x="8.7" y="70.11" width="2.2" height="4.77"/><rect class="cls-3" x="9.02" y="17.57" width="2.2" height="4.77"/><rect class="cls-4" x="14.5" y="89.52" width="5.29" height="10.04"/><rect class="cls-5" x="45.54" y="12.37" width="44.77" height="86.27"/><rect class="cls-3" x="52.47" y="39.59" width="2.03" height="5.08"/><rect class="cls-3" x="52.47" y="25.81" width="2.03" height="5.08"/><rect class="cls-3" x="62.69" y="49.07" width="2.03" height="5.08"/><rect class="cls-3" x="79.11" y="73.66" width="2.03" height="5.08"/><rect class="cls-3" x="83.11" y="27.91" width="2.03" height="5.08"/><rect class="cls-3" x="62.69" y="20.17" width="2.03" height="5.08"/><rect class="cls-3" x="73.35" y="42.13" width="2.03" height="5.08"/><rect class="cls-3" x="65.32" y="68.37" width="2.03" height="5.08"/><rect class="cls-3" x="82.98" y="53.9" width="2.03" height="5.08"/><rect class="cls-3" x="56.26" y="58.5" width="2.03" height="5.08"/><polyline class="cls-6" points="80.2 98.64 80.2 89.83 54.36 89.83 54.36 98.64"/><polygon class="cls-7" points="114.27 98.69 90.22 98.64 90.22 12.37 114.04 12.37 114.27 98.69"/></g></g></svg>