<svg xmlns="http://www.w3.org/2000/svg" viewBox="0 0 605.76 51.3"><defs><style>.cls-1{fill:#5f7175;}.cls-1,.cls-2,.cls-4,.cls-5{stroke:#5f7175;}.cls-1,.cls-2,.cls-3,.cls-4,.cls-5{stroke-miterlimit:10;stroke-width:2px;}.cls-2{fill:#99adb3;}.cls-3{fill:none;stroke:#fff;stroke-dasharray:12 12;}.cls-4{fill:#e4e9ec;}.cls-5{fill:#fff;}</style></defs><title>Asset 34</title><g id="Layer_2" data-name="Layer 2"><g id="_2-cidade" data-name="2-cidade"><rect class="cls-1" x="1" y="1" width="603.76" height="12.48"/><rect class="cls-2" x="1" y="13.48" width="603.76" height="6.86"/><line class="cls-3" x1="1" y1="7.24" x2="604.76" y2="7.24"/><rect class="cls-4" x="13.64" y="20.35" width="12.64" height="5.62"/><rect class="cls-5" x="13.64" y="25.96" width="12.64" height="24.34"/><rect class="cls-4" x="102.15" y="20.35" width="12.64" height="5.62"/><rect class="cls-5" x="102.15" y="25.96" width="12.64" height="24.34"/><rect class="cls-4" x="190.66" y="20.35" width="12.64" height="5.62"/><rect class="cls-5" x="190.66" y="25.96" width="12.64" height="24.34"/><rect class="cls-4" x="279.17" y="20.35" width="12.64" height="5.62"/><rect class="cls-5" x="279.17" y="25.96" width="12.64" height="24.34"/><rect class="cls-4" x="379.69" y="20.35" width="12.64" height="5.62"/><rect class="cls-5" x="379.69" y="25.96" width="12.64" height="24.34"/><rect class="cls-4" x="480.21" y="20.35" width="12.64" height="5.62"/><rect class="cls-5" x="480.21" y="25.96" width="12.64" height="24.34"/></g></g></svg>