<svg xmlns="http://www.w3.org/2000/svg" viewBox="0 0 196 144"><defs><style>.cls-1,.cls-7{fill:#e4e9ec;}.cls-1,.cls-2,.cls-3,.cls-5,.cls-6{stroke:#5f7175;}.cls-1,.cls-2,.cls-3,.cls-5,.cls-7{stroke-miterlimit:10;}.cls-1,.cls-2,.cls-3,.cls-4,.cls-5,.cls-6,.cls-7{stroke-width:2px;}.cls-2{fill:#99adb3;}.cls-3{fill:#c2d1d4;}.cls-4,.cls-6{fill:none;stroke-linejoin:round;}.cls-4{stroke:#fff;}.cls-5{fill:#5f7175;}.cls-7{stroke:#e4e9ec;}</style></defs><title>Asset 49</title><g id="Layer_2" data-name="Layer 2"><g id="_2-cidade" data-name="2-cidade"><rect class="cls-1" x="71.95" y="29.01" width="28.11" height="18.76"/><rect class="cls-2" x="100.3" y="29.01" width="6.7" height="18.76"/><rect class="cls-3" x="13.95" y="65.03" width="21.7" height="15.5"/><rect class="cls-2" x="35.83" y="65.03" width="5.17" height="15.5"/><line class="cls-4" x1="86" y1="29.01" x2="86"/><rect class="cls-1" x="57.95" y="48.02" width="50.57" height="18.76"/><rect class="cls-2" x="108.95" y="48.02" width="12.05" height="18.76"/><polygon class="cls-1" points="1.05 78.85 46 78.85 46 143 1 143 1.05 78.85"/><polygon class="cls-1" points="136.05 78.85 181 78.85 181 143 136 143 136.05 78.85"/><polygon class="cls-5" points="181.02 78.85 195 78.85 195 143 181 143 181.02 78.85"/><polygon class="cls-2" points="121.02 63.84 136 63.84 136 143 121 143 121.02 63.84"/><polygon class="cls-3" points="46.09 63.84 121 63.84 121 143 46 143 46.09 63.84"/><path class="cls-2" d="M49,144V106a6,6,0,1,1,12,0V144"/><path class="cls-2" d="M67,144V106a6,6,0,1,1,12,0V144"/><path class="cls-2" d="M85,144V106a6,6,0,1,1,12,0V144"/><path class="cls-2" d="M103,144V106a6,6,0,1,1,12,0V144"/><line class="cls-6" x1="55" y1="73.03" x2="109" y2="73.03"/><line class="cls-6" x1="55" y1="82.04" x2="109" y2="82.04"/><path class="cls-7" d="M86,18.42a8,8,0,0,1,4.92-2c2.52,0,5.59,2.45,8.12,2.92a7.2,7.2,0,0,0,5-.92v-12a7.2,7.2,0,0,1-5,.92c-2.53-.47-5.6-2.92-8.12-2.92a8,8,0,0,0-4.92,2Z"/><line class="cls-6" x1="6" y1="96.68" x2="38" y2="96.68"/><line class="cls-6" x1="6" y1="105.91" x2="38" y2="105.91"/><line class="cls-6" x1="143" y1="96.68" x2="175" y2="96.68"/><line class="cls-6" x1="143" y1="105.91" x2="175" y2="105.91"/></g></g></svg>