<svg xmlns="http://www.w3.org/2000/svg" viewBox="0 0 270.35 66.36"><defs><style>.cls-1{fill:#5f7175;}.cls-1,.cls-3{stroke:#5f7175;}.cls-1,.cls-3,.cls-4,.cls-5{stroke-miterlimit:10;}.cls-1,.cls-2,.cls-3,.cls-4,.cls-5{stroke-width:2px;}.cls-2,.cls-3,.cls-6{fill:#fff;}.cls-2,.cls-5{stroke:#fff;}.cls-2{stroke-linejoin:bevel;}.cls-4{fill:#99adb3;stroke:#99adb3;}.cls-5{fill:none;}</style></defs><title>Asset 61</title><g id="Layer_2" data-name="Layer 2"><g id="_2-cidade" data-name="2-cidade"><polygon class="cls-1" points="16.93 1.36 2.59 14.37 30.59 14.37 16.93 1.36"/><polygon class="cls-2" points="138.57 4.84 112.32 16.89 163.59 16.89 138.57 4.84"/><rect class="cls-3" x="163.59" y="3.36" width="61" height="14.02"/><polygon class="cls-3" points="224.59 17.38 245.59 5.37 266.59 17.38 224.59 17.38"/><rect class="cls-3" x="31.11" y="2.36" width="81.21" height="13.52"/><rect class="cls-4" x="3.59" y="15.38" width="263" height="49.99"/><line class="cls-5" x1="112.32" y1="14.88" x2="112.32" y2="64.24"/><line class="cls-5" x1="31.11" y1="14.88" x2="31.11" y2="64.24"/><rect class="cls-5" x="13.11" y="31.29" width="4.61" height="34.07"/><rect class="cls-5" x="77.62" y="31.29" width="22.48" height="34.07"/><rect class="cls-5" x="125.72" y="31.29" width="4.61" height="34.07"/><rect class="cls-5" x="191.72" y="31.29" width="4.61" height="34.07"/><rect class="cls-5" x="251.72" y="31.29" width="4.61" height="34.07"/><rect class="cls-6" x="20.9" y="24.25" width="5.49" height="5.38"/><rect class="cls-6" x="34.63" y="24.25" width="34.73" height="5.38"/><line class="cls-5" x1="163.59" y1="14.38" x2="163.59" y2="65.36"/><line class="cls-5" x1="224.59" y1="14.38" x2="224.59" y2="65.36"/><rect class="cls-6" x="170.59" y="23.39" width="15" height="7.01"/><rect class="cls-6" x="231.59" y="23.39" width="7" height="7.01"/></g></g></svg>