<svg xmlns="http://www.w3.org/2000/svg" viewBox="0 0 53.12 79"><defs><style>.cls-1,.cls-4{fill:none;}.cls-1{stroke:#99adb3;}.cls-1,.cls-2,.cls-3,.cls-4{stroke-miterlimit:10;stroke-width:2px;}.cls-2{fill:#621a49;}.cls-2,.cls-3,.cls-4{stroke:#e4e9ec;}.cls-3{fill:#99adb3;}</style></defs><title>Asset 67</title><g id="Layer_2" data-name="Layer 2"><g id="_2-cidade" data-name="2-cidade"><line class="cls-1" x1="18.7" y1="39.52" x2="50.13" y2="39.52"/><line class="cls-1" x1="18.83" y1="43.59" x2="50.26" y2="43.59"/><line class="cls-1" x1="18.83" y1="47.79" x2="50.26" y2="47.79"/><line class="cls-1" x1="15.97" y1="51.99" x2="53.12" y2="51.99"/><line class="cls-1" x1="22.2" y1="36.5" x2="22.2" y2="47.79"/><line class="cls-1" x1="46.89" y1="36.5" x2="46.89" y2="47.79"/><line class="cls-1" x1="23.76" y1="51.99" x2="23.76" y2="78.5"/><line class="cls-1" x1="45.85" y1="51.99" x2="45.85" y2="78.5"/><path class="cls-2" d="M4.21,3.44A2.42,2.42,0,1,1,9,3.44"/><path class="cls-3" d="M9.45,16.47l2.69-11.4A11,11,0,0,0,6.58,3,10.65,10.65,0,0,0,1.12,5.07l2.69,11.4Z"/><line class="cls-4" x1="6.63" y1="16.47" x2="6.63" y2="79"/></g></g></svg>