<svg xmlns="http://www.w3.org/2000/svg" xmlns:xlink="http://www.w3.org/1999/xlink" viewBox="0 0 1291.78 239.27"><defs><style>.cls-1{fill:none;}.cls-2{clip-path:url(#clip-path);}.cls-3{fill:url(#linear-gradient);}.cls-4{clip-path:url(#clip-path-2);}.cls-5{fill:url(#linear-gradient-2);}.cls-6{fill:url(#linear-gradient-3);}</style><clipPath id="clip-path" transform="translate(0 -86.78)"><path class="cls-1" d="M20.3,324.39s257.45-107.35,326.61-91c58.75,13.89,127.93,36.31,205.62,23.87,37-5.93,77-16.14,122-31.33,31.11-10.5,64-22.78,98.27-34.89C840,167.25,922,144.75,992.73,136.4c96.91-11.44,137.46,57.22,169.56,100.78,39.88,54.13,129.49,87.2,129.49,87.2V0H21.12Z"/></clipPath><linearGradient id="linear-gradient" x1="703.83" y1="255.77" x2="671.01" y2="97.3" gradientUnits="userSpaceOnUse"><stop offset="0.07" stop-color="#5f7175" stop-opacity="0.8"/><stop offset="0.09" stop-color="#5c6d71" stop-opacity="0.76"/><stop offset="0.25" stop-color="#455052" stop-opacity="0.49"/><stop offset="0.42" stop-color="#333a3a" stop-opacity="0.27"/><stop offset="0.6" stop-color="#272a28" stop-opacity="0.12"/><stop offset="0.78" stop-color="#1f201e" stop-opacity="0.03"/><stop offset="1" stop-color="#1d1d1b" stop-opacity="0"/></linearGradient><clipPath id="clip-path-2" transform="translate(0 -86.78)"><path class="cls-1" d="M20.3,324.39s257.45-107.35,326.61-91V127.66H0V323.75Z"/></clipPath><linearGradient id="linear-gradient-2" x1="159.67" y1="326.05" x2="159.67" y2="147.79" gradientUnits="userSpaceOnUse"><stop offset="0.07" stop-color="#5f7175" stop-opacity="0.9"/><stop offset="0.29" stop-color="#4e5b5e" stop-opacity="0.67"/><stop offset="0.77" stop-color="#2b2f2e" stop-opacity="0.19"/><stop offset="1" stop-color="#1d1d1b" stop-opacity="0"/></linearGradient><linearGradient id="linear-gradient-3" x1="656.04" y1="324.39" x2="656.04" y2="67.46" gradientUnits="userSpaceOnUse"><stop offset="0" stop-color="#5f7175" stop-opacity="0.8"/><stop offset="0.11" stop-color="#526164" stop-opacity="0.65"/><stop offset="0.36" stop-color="#3b4344" stop-opacity="0.37"/><stop offset="0.6" stop-color="#2b2e2d" stop-opacity="0.16"/><stop offset="0.81" stop-color="#202120" stop-opacity="0.04"/><stop offset="1" stop-color="#1d1d1b" stop-opacity="0"/></linearGradient></defs><title>Asset 41</title><g id="Layer_2" data-name="Layer 2"><g id="BG"><g class="cls-2"><path class="cls-3" d="M931,146.64c-30.74-25.35-59.89-53.69-98.88-58.9-25.47-3.4-51.4,2.69-75.2,12.67s-42.88,25-63.26,41.19c-66.7,52.9-74,101.68-238,122.32l55.41,21.2Z" transform="translate(0 -86.78)"/></g><g class="cls-4"><path class="cls-5" d="M319.33,232.36c-28.87.93-49.12-11.8-56.55-17.95-28.46-23.54-56.69-52.3-90-63.34-24.72-8.2-46-.37-61.18,16.24C78.7,203.36,30.65,280.69,0,326l22.23-1.73,198-35.77Z" transform="translate(0 -86.78)"/></g><path class="cls-6" d="M20.3,324.39s257.45-107.35,326.61-91c58.75,13.89,127.93,36.31,205.62,23.87,37-5.93,77-16.14,122-31.33,31.11-10.5,64-22.78,98.27-34.89C840,167.25,922,144.75,992.73,136.4c96.91-11.44,137.46,57.22,169.56,100.78,39.88,54.13,129.49,87.2,129.49,87.2" transform="translate(0 -86.78)"/></g></g></svg>