<svg xmlns="http://www.w3.org/2000/svg" viewBox="0 0 65 85"><defs><style>.cls-1{fill:#fff;}.cls-1,.cls-2,.cls-3,.cls-4{stroke:#621a49;stroke-miterlimit:10;}.cls-1,.cls-2,.cls-4{stroke-width:2px;}.cls-2{fill:#621a49;}.cls-3,.cls-4{fill:none;}</style></defs><title>Asset 21</title><g id="Layer_2" data-name="Layer 2"><g id="_2-cidade" data-name="2-cidade"><path class="cls-1" d="M127.24,600.64A29.26,29.26,0,0,0,98,571.37c-16.16,0-28.81,13.1-28.81,29.27" transform="translate(-65.5 -570.37)"/><rect class="cls-2" x="42.91" y="19.46" width="21.09" height="64.54"/><rect class="cls-1" x="1" y="19.46" width="41.91" height="64.54"/><path class="cls-3" d="M76.39,602.71a2.62,2.62,0,1,1,5.25,0v10.13H76.39Z" transform="translate(-65.5 -570.37)"/><line class="cls-3" x1="13.52" y1="29.72" x2="13.52" y2="42.47"/><line class="cls-3" x1="10.9" y1="36.38" x2="16.07" y2="36.38"/><line class="cls-3" x1="9.05" y1="42.61" x2="17.99" y2="42.61"/><path class="cls-3" d="M90.14,602.71a2.62,2.62,0,1,1,5.25,0v10.13H90.14Z" transform="translate(-65.5 -570.37)"/><line class="cls-3" x1="27.26" y1="29.72" x2="27.26" y2="42.47"/><line class="cls-3" x1="24.64" y1="36.38" x2="29.81" y2="36.38"/><line class="cls-3" x1="22.79" y1="42.61" x2="31.73" y2="42.61"/><path class="cls-4" d="M79.58,624.35c0-1.69,3-3.06,6.63-3.06s6.63,1.37,6.63,3.06v30H79.58Z" transform="translate(-65.5 -570.37)"/></g></g></svg>