<svg xmlns="http://www.w3.org/2000/svg" viewBox="0 0 238 112.91"><defs><style>.cls-1,.cls-3{fill:#fff;}.cls-1,.cls-2,.cls-3{stroke:#621a49;stroke-miterlimit:10;}.cls-1,.cls-2{stroke-width:2px;}.cls-2,.cls-4{fill:none;}.cls-3{stroke-width:3px;}</style></defs><title>Asset 80</title><g id="Layer_2" data-name="Layer 2"><g id="_3-camada3" data-name="3-camada3"><path class="cls-1" d="M25.74,1C23.08,1,14,2.35,12.61,4.4L3.09,13.85A7.1,7.1,0,0,0,8.1,26H229.9a7.1,7.1,0,0,0,5-12.13L225.39,4.4C224,2.35,214.92,1,212.26,1Z"/><polyline class="cls-2" points="229.05 8 209.06 8 209.06 13.99 235.04 13.99"/><rect class="cls-2" x="42.13" y="8" width="154.93" height="6"/><path class="cls-3" d="M229.9,28H8.15"/><polyline class="cls-2" points="8.95 8 28.94 8 28.94 13.99 2.96 13.99"/><line class="cls-4" x1="7.65" y1="28.98" x2="7.65" y2="112.91"/></g></g></svg>