<svg xmlns="http://www.w3.org/2000/svg" viewBox="0 0 265 126.6"><defs><style>.cls-1,.cls-5,.cls-6,.cls-8{fill:#fff;}.cls-1,.cls-3,.cls-4{stroke:#621a49;}.cls-1,.cls-3,.cls-4,.cls-5,.cls-7{stroke-miterlimit:10;}.cls-1,.cls-3,.cls-4,.cls-5,.cls-6,.cls-7{stroke-width:2px;}.cls-2,.cls-4{fill:#621a49;}.cls-3{fill:none;}.cls-5,.cls-6,.cls-7{stroke:#be77aa;}.cls-6{stroke-linejoin:round;}.cls-7,.cls-9{fill:#be77aa;}</style></defs><title>Asset 35</title><g id="Layer_2" data-name="Layer 2"><g id="_2-cidade" data-name="2-cidade"><rect class="cls-1" x="50" y="10.97" width="48.36" height="114.63"/><rect class="cls-2" x="57.48" y="42.1" width="2.2" height="5.43"/><rect class="cls-2" x="57.48" y="27.35" width="2.2" height="5.43"/><rect class="cls-2" x="68.53" y="52.24" width="2.2" height="5.43"/><rect class="cls-2" x="86.27" y="78.54" width="2.2" height="5.43"/><rect class="cls-2" x="90.59" y="29.6" width="2.2" height="5.43"/><rect class="cls-2" x="68.53" y="21.31" width="2.2" height="5.43"/><rect class="cls-2" x="80.05" y="44.81" width="2.2" height="5.43"/><rect class="cls-2" x="71.37" y="72.88" width="2.2" height="5.43"/><rect class="cls-2" x="90.45" y="50.45" width="2.2" height="5.43"/><rect class="cls-3" x="59.53" y="93.84" width="27.91" height="31.71"/><rect class="cls-4" x="98.36" y="10.97" width="25.64" height="114.47"/><rect class="cls-5" x="1" y="10.67" width="49" height="114.93"/><rect class="cls-2" x="34.05" y="29.89" width="2.4" height="5.14"/><rect class="cls-2" x="19.23" y="44.97" width="2.4" height="5.14"/><rect class="cls-2" x="10.03" y="73.96" width="2.4" height="5.14"/><rect class="cls-2" x="11.37" y="25.4" width="2.4" height="5.14"/><polygon class="cls-6" points="25.5 1 1 11 50 11 25.5 1"/><rect class="cls-5" x="140.33" y="10.97" width="20.67" height="114.63"/><rect class="cls-7" x="125" y="10.97" width="23.44" height="114.38"/><rect class="cls-8" x="131.79" y="24.06" width="4.05" height="4.49"/><rect class="cls-8" x="140.69" y="33.24" width="4.05" height="4.49"/><rect class="cls-8" x="129.36" y="47.97" width="4.05" height="4.49"/><rect class="cls-8" x="141.01" y="55.88" width="4.05" height="4.49"/><rect class="cls-8" x="130.66" y="71.71" width="4.05" height="4.49"/><rect class="cls-4" x="211" y="10.97" width="11" height="114.63"/><rect class="cls-1" x="161" y="10.97" width="50" height="114.63"/><rect class="cls-2" x="170" y="22.95" width="3" height="8.98"/><rect class="cls-2" x="185" y="22.95" width="3" height="8.98"/><rect class="cls-2" x="166" y="48.87" width="3" height="8.98"/><rect class="cls-2" x="179" y="42.89" width="3" height="8.98"/><rect class="cls-2" x="188" y="52.86" width="3" height="8.98"/><rect class="cls-2" x="199" y="40.9" width="3" height="8.98"/><rect class="cls-5" x="247" y="10.97" width="17" height="114.63"/><rect class="cls-5" x="222" y="10.97" width="25" height="114.63"/><rect class="cls-9" x="226.01" y="22.94" width="3.99" height="4" transform="translate(252.94 -203.06) rotate(90)"/><rect class="cls-9" x="228.01" y="30.92" width="3.99" height="4" transform="translate(262.92 -197.08) rotate(90)"/><rect class="cls-9" x="238.01" y="22.94" width="3.99" height="4" transform="translate(264.94 -215.06) rotate(90)"/><rect class="cls-9" x="227.01" y="45.88" width="3.99" height="4" transform="translate(276.88 -181.12) rotate(90)"/><rect class="cls-9" x="232.01" y="56.85" width="3.99" height="4" transform="translate(292.85 -175.15) rotate(90)"/><rect class="cls-9" x="236.01" y="38.9" width="3.99" height="4" transform="translate(278.9 -197.1) rotate(90)"/><rect class="cls-9" x="241.01" y="53.86" width="3.99" height="4" transform="translate(298.86 -187.14) rotate(90)"/></g></g></svg>