<svg xmlns="http://www.w3.org/2000/svg" viewBox="0 0 90 74"><defs><style>.cls-1{fill:#621a49;}.cls-1,.cls-2{stroke:#621a49;}.cls-1,.cls-2,.cls-3{stroke-miterlimit:10;stroke-width:2px;}.cls-2,.cls-4{fill:#fff;}.cls-3{fill:#be77aa;stroke:#be77aa;}</style></defs><title>Asset 26</title><g id="Layer_2" data-name="Layer 2"><g id="_2-cidade" data-name="2-cidade"><rect class="cls-1" x="63.86" y="1" width="25.14" height="12.5" transform="translate(152.86 14.5) rotate(180)"/><rect class="cls-2" x="12.94" y="1" width="50.91" height="12.5"/><rect class="cls-2" x="76.43" y="12.87" width="12.57" height="60.13" transform="translate(165.43 85.87) rotate(180)"/><rect class="cls-3" x="1" y="12.87" width="75.43" height="60.13"/><rect class="cls-4" x="6.03" y="18.5" width="7.54" height="7.5"/><rect class="cls-4" x="18.6" y="18.5" width="7.54" height="7.5"/><rect class="cls-4" x="31.17" y="18.5" width="7.54" height="7.5"/><rect class="cls-4" x="43.74" y="18.5" width="7.54" height="7.5"/><rect class="cls-4" x="56.31" y="18.5" width="7.54" height="7.5"/><rect class="cls-4" x="6.03" y="30.37" width="7.54" height="7.5"/><rect class="cls-4" x="18.6" y="30.37" width="7.54" height="7.5"/><rect class="cls-4" x="31.17" y="30.37" width="7.54" height="7.5"/><rect class="cls-4" x="43.74" y="30.37" width="7.54" height="7.5"/><rect class="cls-4" x="56.31" y="30.37" width="7.54" height="7.5"/></g></g></svg>