<svg xmlns="http://www.w3.org/2000/svg" viewBox="0 0 54.13 79"><defs><style>.cls-1{fill:none;}.cls-1,.cls-2,.cls-3{stroke:#621a49;stroke-miterlimit:10;stroke-width:2px;}.cls-2{fill:#621a49;}.cls-3{fill:#be77aa;}</style></defs><title>Asset 68</title><g id="Layer_2" data-name="Layer 2"><g id="_2-cidade" data-name="2-cidade"><line class="cls-1" x1="19.15" y1="39.52" x2="51.09" y2="39.52"/><line class="cls-1" x1="19.28" y1="43.59" x2="51.22" y2="43.59"/><line class="cls-1" x1="19.28" y1="47.79" x2="51.22" y2="47.79"/><line class="cls-1" x1="16.38" y1="51.99" x2="54.13" y2="51.99"/><line class="cls-1" x1="22.71" y1="36.5" x2="22.71" y2="47.79"/><line class="cls-1" x1="47.79" y1="36.5" x2="47.79" y2="47.79"/><line class="cls-1" x1="24.3" y1="51.99" x2="24.3" y2="78.5"/><line class="cls-1" x1="46.73" y1="51.99" x2="46.73" y2="78.5"/><path class="cls-2" d="M4.26,3.44a2.46,2.46,0,0,1,4.91,0"/><path class="cls-3" d="M9.59,16.47l2.73-11.4A11.26,11.26,0,0,0,6.68,3,10.91,10.91,0,0,0,1.13,5.07l2.73,11.4Z"/><line class="cls-1" x1="6.72" y1="16.47" x2="6.72" y2="79"/></g></g></svg>