<svg xmlns="http://www.w3.org/2000/svg" viewBox="0 0 1200 42"><defs><style>.cls-1{fill:#7dd1df;}.cls-2{fill:#007695;}.cls-3{fill:none;stroke:#fff;stroke-miterlimit:10;}</style></defs><title>Asset 37</title><g id="Layer_2" data-name="Layer 2"><g id="_1-plano-piso" data-name="1-plano-piso"><rect class="cls-1" width="1200" height="42"/><path class="cls-2" d="M1200,0H0V5.77A1.33,1.33,0,0,1,1.25,4.38,1.33,1.33,0,0,1,2.5,5.77V10H5V5.77A1.33,1.33,0,0,1,6.22,4.38,1.33,1.33,0,0,1,7.47,5.77V10H9.93V5.77a1.33,1.33,0,0,1,1.25-1.39,1.33,1.33,0,0,1,1.25,1.39V10h2.46V5.77a1.26,1.26,0,1,1,2.5,0V10h2.46V5.77a1.26,1.26,0,1,1,2.5,0V10h2.46V5.77a1.26,1.26,0,1,1,2.5,0V10h2.46V5.77a1.26,1.26,0,1,1,2.5,0V10h2.46V5.77a1.26,1.26,0,1,1,2.5,0V10h2.46V5.77a1.26,1.26,0,1,1,2.5,0V10h2.46V5.77a1.26,1.26,0,1,1,2.5,0V10h2.46V5.77a1.26,1.26,0,1,1,2.5,0V10H54.6V5.77a1.26,1.26,0,1,1,2.5,0V10h2.46V5.77a1.26,1.26,0,1,1,2.5,0V10h2.46V5.77a1.26,1.26,0,1,1,2.5,0V10h2.46V5.77a1.26,1.26,0,1,1,2.5,0V10h2.46V5.77a1.26,1.26,0,1,1,2.5,0V10h2.46V5.77a1.26,1.26,0,1,1,2.5,0V10h2.46V5.77a1.26,1.26,0,1,1,2.5,0V10h2.46V5.77a1.26,1.26,0,1,1,2.5,0V10h2.46V5.77a1.26,1.26,0,1,1,2.5,0V10h2.46V5.77a1.26,1.26,0,1,1,2.5,0V10h2.46V5.77a1.26,1.26,0,1,1,2.5,0V10h2.46V5.77a1.26,1.26,0,1,1,2.5,0V10h2.46V5.77a1.26,1.26,0,1,1,2.5,0V10h2.46V5.77a1.26,1.26,0,1,1,2.5,0V10h2.46V5.77a1.26,1.26,0,1,1,2.5,0V10h2.46V5.77a1.26,1.26,0,1,1,2.5,0V10H134V5.77a1.26,1.26,0,1,1,2.5,0V10H139V5.77a1.33,1.33,0,0,1,1.25-1.39h0a1.33,1.33,0,0,1,1.25,1.39V10h2.46V5.77a1.26,1.26,0,1,1,2.5,0V10h2.46V5.77a1.26,1.26,0,1,1,2.5,0V10h2.46V5.77a1.26,1.26,0,1,1,2.5,0V10h2.46V5.77a1.26,1.26,0,1,1,2.5,0V10h2.46V5.77a1.26,1.26,0,1,1,2.5,0V10h2.46V5.77a1.26,1.26,0,1,1,2.5,0V10h2.46V5.77a1.26,1.26,0,1,1,2.5,0V10h2.46V5.77a1.26,1.26,0,1,1,2.5,0V10h2.46V5.77a1.26,1.26,0,1,1,2.5,0V10h2.46V5.77a1.26,1.26,0,1,1,2.5,0V10h2.46V5.77a1.33,1.33,0,0,1,1.25-1.39h0a1.33,1.33,0,0,1,1.25,1.39V10h2.46V5.77a1.26,1.26,0,1,1,2.5,0V10h2.46V5.77a1.26,1.26,0,1,1,2.5,0V10h2.46V5.77a1.26,1.26,0,1,1,2.5,0V10h2.46V5.77a1.26,1.26,0,1,1,2.5,0V10h2.46V5.77a1.26,1.26,0,1,1,2.5,0V10h2.46V5.77a1.26,1.26,0,1,1,2.5,0V10h2.46V5.77a1.26,1.26,0,1,1,2.5,0V10h2.46V5.77a1.26,1.26,0,1,1,2.5,0V10h2.46V5.77a1.26,1.26,0,1,1,2.5,0V10h2.46V5.77a1.26,1.26,0,1,1,2.5,0V10h2.46V5.77a1.26,1.26,0,1,1,2.5,0V10h2.46V5.77a1.26,1.26,0,1,1,2.5,0V10h2.46V5.77a1.26,1.26,0,1,1,2.5,0V10h2.46V5.77a1.26,1.26,0,1,1,2.5,0V10H268V5.77a1.26,1.26,0,1,1,2.5,0V10H273V5.77a1.26,1.26,0,1,1,2.5,0V10H278V5.77a1.26,1.26,0,1,1,2.5,0V10h2.46V5.77a1.26,1.26,0,1,1,2.5,0V10h2.46V5.77a1.26,1.26,0,1,1,2.5,0V10h2.46V5.77a1.26,1.26,0,1,1,2.5,0V10h2.46V5.77a1.26,1.26,0,1,1,2.5,0V10h2.46V5.77a1.26,1.26,0,1,1,2.5,0V10h2.46V5.77a1.26,1.26,0,1,1,2.5,0V10h2.46V5.77a1.26,1.26,0,1,1,2.5,0V10h2.46V5.77a1.26,1.26,0,1,1,2.5,0V10h2.46V5.77a1.26,1.26,0,1,1,2.5,0V10h2.46V5.77a1.26,1.26,0,1,1,2.5,0V10h2.46V5.77a1.26,1.26,0,1,1,2.5,0V10h2.46V5.77a1.33,1.33,0,0,1,1.25-1.39h0A1.33,1.33,0,0,1,340,5.77V10h2.46V5.77a1.26,1.26,0,1,1,2.5,0V10h2.46V5.77a1.26,1.26,0,1,1,2.5,0V10h2.46V5.77a1.26,1.26,0,1,1,2.5,0V10h2.46V5.77a1.26,1.26,0,1,1,2.5,0V10h2.46V5.77a1.26,1.26,0,1,1,2.5,0V10h2.46V5.77a1.26,1.26,0,1,1,2.5,0V10h2.46V5.77a1.26,1.26,0,1,1,2.5,0V10h2.46V5.77a1.26,1.26,0,1,1,2.5,0V10h2.46V5.77a1.26,1.26,0,1,1,2.5,0V10h2.46V5.77a1.26,1.26,0,1,1,2.5,0V10h2.46V5.77a1.33,1.33,0,0,1,1.25-1.39h0a1.33,1.33,0,0,1,1.25,1.39V10h2.46V5.77a1.26,1.26,0,1,1,2.5,0V10H402V5.77a1.26,1.26,0,1,1,2.5,0V10H407V5.77a1.26,1.26,0,1,1,2.5,0V10H412V5.77a1.26,1.26,0,1,1,2.5,0V10h2.46V5.77a1.26,1.26,0,1,1,2.5,0V10h2.46V5.77a1.26,1.26,0,1,1,2.5,0V10h2.46V5.77a1.26,1.26,0,1,1,2.5,0V10h2.46V5.77a1.26,1.26,0,1,1,2.5,0V10h2.46V5.77a1.26,1.26,0,1,1,2.5,0V10h2.46V5.77a1.26,1.26,0,1,1,2.5,0V10h2.46V5.77A1.33,1.33,0,0,1,448,4.38h0a1.33,1.33,0,0,1,1.25,1.39V10h2.46V5.77a1.26,1.26,0,1,1,2.5,0V10h2.46V5.77a1.26,1.26,0,1,1,2.5,0V10h2.46V5.77a1.26,1.26,0,1,1,2.5,0V10h2.46V5.77a1.26,1.26,0,1,1,2.5,0V10h2.46V5.77a1.26,1.26,0,1,1,2.5,0V10h2.46V5.77a1.26,1.26,0,1,1,2.5,0V10h2.46V5.77a1.26,1.26,0,1,1,2.5,0V10h2.46V5.77a1.26,1.26,0,1,1,2.5,0V10h2.46V5.77a1.26,1.26,0,1,1,2.5,0V10h2.46V5.77a1.26,1.26,0,1,1,2.5,0V10h2.46V5.77a1.33,1.33,0,0,1,1.25-1.39h0a1.33,1.33,0,0,1,1.25,1.39V10h2.46V5.77a1.26,1.26,0,1,1,2.5,0V10h2.46V5.77a1.26,1.26,0,1,1,2.5,0V10h2.46V5.77a1.26,1.26,0,1,1,2.5,0V10h2.46V5.77a1.26,1.26,0,1,1,2.5,0V10h2.46V5.77a1.26,1.26,0,1,1,2.5,0V10h2.46V5.77a1.26,1.26,0,1,1,2.5,0V10h2.46V5.77a1.26,1.26,0,1,1,2.5,0V10H541V5.77a1.26,1.26,0,1,1,2.5,0V10H546V5.77a1.26,1.26,0,1,1,2.5,0V10h2.46V5.77a1.26,1.26,0,1,1,2.5,0V10h2.46V5.77a1.33,1.33,0,0,1,1.25-1.39h0a1.33,1.33,0,0,1,1.25,1.39V10h2.46V5.77a1.26,1.26,0,1,1,2.5,0V10h2.46V5.77a1.26,1.26,0,1,1,2.5,0V10h2.46V5.77a1.26,1.26,0,1,1,2.5,0V10h2.46V5.77a1.26,1.26,0,1,1,2.5,0V10h2.46V5.77a1.26,1.26,0,1,1,2.5,0V10h2.46V5.77a1.26,1.26,0,1,1,2.5,0V10h2.46V5.77a1.26,1.26,0,1,1,2.5,0V10h2.46V5.77a1.26,1.26,0,1,1,2.5,0V10h2.46V5.77a1.26,1.26,0,1,1,2.5,0V10h2.46V5.77a1.26,1.26,0,1,1,2.5,0V10h2.46V5.77a1.33,1.33,0,0,1,1.25-1.39h0A1.33,1.33,0,0,1,613,5.77V10h2.46V5.77a1.26,1.26,0,1,1,2.5,0V10h2.46V5.77a1.26,1.26,0,1,1,2.5,0V10h2.46V5.77a1.26,1.26,0,1,1,2.5,0V10h2.46V5.77a1.26,1.26,0,1,1,2.5,0V10h2.46V5.77a1.26,1.26,0,1,1,2.5,0V10h2.46V5.77a1.26,1.26,0,1,1,2.5,0V10h2.46V5.77a1.26,1.26,0,1,1,2.5,0V10h2.46V5.77a1.26,1.26,0,1,1,2.5,0V10h2.46V5.77a1.26,1.26,0,1,1,2.5,0V10h2.46V5.77a1.26,1.26,0,1,1,2.5,0V10h2.46V5.77a1.33,1.33,0,0,1,1.25-1.39h0a1.33,1.33,0,0,1,1.25,1.39V10h2.46V5.77a1.26,1.26,0,1,1,2.5,0V10H675V5.77a1.26,1.26,0,1,1,2.5,0V10H680V5.77a1.26,1.26,0,1,1,2.5,0V10H685V5.77a1.26,1.26,0,1,1,2.5,0V10h2.46V5.77a1.26,1.26,0,1,1,2.5,0V10h2.46V5.77a1.26,1.26,0,1,1,2.5,0V10h2.46V5.77a1.26,1.26,0,1,1,2.5,0V10h2.46V5.77a1.26,1.26,0,1,1,2.5,0V10h2.46V5.77a1.26,1.26,0,1,1,2.5,0V10h2.46V5.77a1.26,1.26,0,1,1,2.5,0V10h2.46V5.77A1.33,1.33,0,0,1,721,4.38h0a1.33,1.33,0,0,1,1.25,1.39V10h2.46V5.77a1.26,1.26,0,1,1,2.5,0V10h2.46V5.77a1.26,1.26,0,1,1,2.5,0V10h2.46V5.77a1.26,1.26,0,1,1,2.5,0V10h2.46V5.77a1.26,1.26,0,1,1,2.5,0V10h2.46V5.77a1.26,1.26,0,1,1,2.5,0V10h2.46V5.77a1.26,1.26,0,1,1,2.5,0V10h2.46V5.77a1.26,1.26,0,1,1,2.5,0V10h2.46V5.77a1.26,1.26,0,1,1,2.5,0V10h2.46V5.77a1.26,1.26,0,1,1,2.5,0V10h2.46V5.77a1.26,1.26,0,1,1,2.5,0V10h2.46V5.77a1.26,1.26,0,1,1,2.5,0V10h2.46V5.77a1.26,1.26,0,1,1,2.5,0V10h2.46V5.77a1.26,1.26,0,1,1,2.5,0V10h2.46V5.77a1.26,1.26,0,1,1,2.5,0V10h2.46V5.77a1.26,1.26,0,1,1,2.5,0V10h2.46V5.77a1.26,1.26,0,1,1,2.5,0V10h2.46V5.77a1.26,1.26,0,1,1,2.5,0V10H809V5.77a1.26,1.26,0,1,1,2.5,0V10H814V5.77a1.26,1.26,0,1,1,2.5,0V10H819V5.77a1.26,1.26,0,1,1,2.5,0V10h2.46V5.77a1.26,1.26,0,1,1,2.5,0V10h2.46V5.77a1.26,1.26,0,1,1,2.5,0V10h2.46V5.77a1.26,1.26,0,1,1,2.5,0V10h2.46V5.77a1.26,1.26,0,1,1,2.5,0V10h2.46V5.77a1.26,1.26,0,1,1,2.5,0V10h2.46V5.77a1.26,1.26,0,1,1,2.5,0V10h2.46V5.77a1.26,1.26,0,1,1,2.5,0V10h2.46V5.77a1.26,1.26,0,1,1,2.5,0V10h2.46V5.77a1.26,1.26,0,1,1,2.5,0V10h2.46V5.77a1.26,1.26,0,1,1,2.5,0V10h2.46V5.77a1.26,1.26,0,1,1,2.5,0V10h2.46V5.77a1.26,1.26,0,1,1,2.5,0V10h2.46V5.77a1.26,1.26,0,1,1,2.5,0V10h2.46V5.77a1.26,1.26,0,1,1,2.5,0V10h2.46V5.77a1.26,1.26,0,1,1,2.5,0V10h2.46V5.77a1.26,1.26,0,1,1,2.5,0V10h2.46V5.77a1.26,1.26,0,1,1,2.5,0V10h2.46V5.77a1.26,1.26,0,1,1,2.5,0V10h2.46V5.77a1.26,1.26,0,1,1,2.5,0V10h2.46V5.77a1.26,1.26,0,1,1,2.5,0V10h2.46V5.77a1.26,1.26,0,1,1,2.5,0V10h2.46V5.77a1.26,1.26,0,1,1,2.5,0V10h2.46V5.77a1.26,1.26,0,1,1,2.5,0V10h2.46V5.77a1.26,1.26,0,1,1,2.5,0V10h2.46V5.77a1.26,1.26,0,1,1,2.5,0V10H948V5.77a1.26,1.26,0,1,1,2.5,0V10H953V5.77a1.26,1.26,0,1,1,2.5,0V10h2.46V5.77a1.26,1.26,0,1,1,2.5,0V10h2.46V5.77a1.26,1.26,0,1,1,2.5,0V10h2.46V5.77a1.26,1.26,0,1,1,2.5,0V10h2.46V5.77a1.26,1.26,0,1,1,2.5,0V10h2.46V5.77a1.26,1.26,0,1,1,2.5,0V10h2.46V5.77a1.26,1.26,0,1,1,2.5,0V10h2.46V5.77a1.26,1.26,0,1,1,2.5,0V10h2.46V5.77a1.26,1.26,0,1,1,2.5,0V10h2.46V5.77a1.26,1.26,0,1,1,2.5,0V10h2.46V5.77a1.26,1.26,0,1,1,2.5,0V10h2.46V5.77a1.26,1.26,0,1,1,2.5,0V10h2.46V5.77a1.26,1.26,0,1,1,2.5,0V10h2.46V5.77a1.26,1.26,0,1,1,2.5,0V10h2.46V5.77a1.26,1.26,0,1,1,2.5,0V10h2.46V5.77a1.26,1.26,0,1,1,2.5,0V10h2.46V5.77a1.26,1.26,0,1,1,2.5,0V10h2.46V5.77a1.26,1.26,0,1,1,2.5,0V10h2.46V5.77a1.26,1.26,0,1,1,2.5,0V10h2.46V5.77a1.26,1.26,0,1,1,2.5,0V10h2.46V5.77a1.26,1.26,0,1,1,2.5,0V10h2.46V5.77a1.26,1.26,0,1,1,2.5,0V10h2.46V5.77a1.26,1.26,0,1,1,2.5,0V10h2.46V5.77a1.26,1.26,0,1,1,2.5,0V10h2.46V5.77a1.26,1.26,0,1,1,2.5,0V10h2.46V5.77a1.26,1.26,0,1,1,2.5,0V10H1082V5.77a1.26,1.26,0,1,1,2.5,0V10H1087V5.77a1.26,1.26,0,1,1,2.5,0V10H1092V5.77a1.26,1.26,0,1,1,2.5,0V10h2.46V5.77a1.26,1.26,0,1,1,2.5,0V10h2.46V5.77a1.26,1.26,0,1,1,2.5,0V10h2.46V5.77a1.26,1.26,0,1,1,2.5,0V10h2.46V5.77a1.26,1.26,0,1,1,2.5,0V10h2.46V5.77a1.26,1.26,0,1,1,2.5,0V10h2.46V5.77a1.26,1.26,0,1,1,2.5,0V10h2.46V5.77a1.26,1.26,0,1,1,2.51,0V10h2.46V5.77a1.26,1.26,0,1,1,2.5,0V10h2.46V5.77a1.26,1.26,0,1,1,2.5,0V10h2.46V5.77a1.26,1.26,0,1,1,2.5,0V10h2.46V5.77a1.26,1.26,0,1,1,2.5,0V10h2.46V5.77a1.26,1.26,0,1,1,2.5,0V10h2.46V5.77a1.26,1.26,0,1,1,2.5,0V10h2.46V5.77a1.26,1.26,0,1,1,2.51,0V10h2.46V5.77a1.26,1.26,0,1,1,2.5,0V10h2.46V5.77a1.26,1.26,0,1,1,2.5,0V10h2.46V5.77a1.26,1.26,0,1,1,2.5,0V10h2.46V5.77a1.26,1.26,0,1,1,2.5,0V10h2.46V5.77a1.26,1.26,0,1,1,2.51,0V10h2.46V5.77a1.26,1.26,0,1,1,2.51,0V10h2.46V5.77a1.26,1.26,0,1,1,2.5,0V10h1.3Z"/><path class="cls-3" d="M85,33a5,5,0,0,1-5-5,5,5,0,0,1-5,5"/><path class="cls-3" d="M95,33a5,5,0,0,1-5-5,5,5,0,0,1-5,5"/><path class="cls-3" d="M572,32a5,5,0,0,1-5-5,5,5,0,0,1-5,5"/><path class="cls-3" d="M582,32a5,5,0,0,1-5-5,5,5,0,0,1-5,5"/><path class="cls-3" d="M931,29a5,5,0,0,1-5-5,5,5,0,0,1-5,5"/><path class="cls-3" d="M941,29a5,5,0,0,1-5-5,5,5,0,0,1-5,5"/><path class="cls-3" d="M1119,32a5,5,0,0,0-10,0"/><path class="cls-3" d="M1129,32a5,5,0,0,0-10,0"/><path class="cls-3" d="M327,32a5,5,0,0,1-5-5,5,5,0,0,1-5,5"/><path class="cls-3" d="M337,32a5,5,0,0,1-5-5,5,5,0,0,1-5,5"/></g></g></svg>